<svg width="35" height="35" viewBox="0 0 35 35" fill="none" xmlns="http://www.w3.org/2000/svg">
<g clip-path="url(#clip0_1_316)">
<path d="M27.7083 5.83329H26.25V2.91663H23.3333V5.83329H11.6667V2.91663H8.75V5.83329H7.29167C5.67292 5.83329 4.38958 7.14579 4.38958 8.74996L4.375 29.1666C4.375 30.7708 5.67292 32.0833 7.29167 32.0833H27.7083C29.3125 32.0833 30.625 30.7708 30.625 29.1666V8.74996C30.625 7.14579 29.3125 5.83329 27.7083 5.83329ZM27.7083 29.1666H7.29167V14.5833H27.7083V29.1666ZM13.125 20.4166H10.2083V17.5H13.125V20.4166ZM18.9583 20.4166H16.0417V17.5H18.9583V20.4166ZM24.7917 20.4166H21.875V17.5H24.7917V20.4166ZM13.125 26.25H10.2083V23.3333H13.125V26.25ZM18.9583 26.25H16.0417V23.3333H18.9583V26.25ZM24.7917 26.25H21.875V23.3333H24.7917V26.25Z" fill="#A6A6A6"/>
</g>
<defs>
<clipPath id="clip0_1_316">
<rect width="35" height="35" fill="white"/>
</clipPath>
</defs>
</svg>
