<svg width="27" height="31" viewBox="0 0 27 31" fill="none" xmlns="http://www.w3.org/2000/svg">
<path d="M23.7083 3.83329H22.25V0.916626H19.3333V3.83329H7.66667V0.916626H4.75V3.83329H3.29167C1.67292 3.83329 0.389583 5.14579 0.389583 6.74996L0.375 27.1666C0.375 28.7708 1.67292 30.0833 3.29167 30.0833H23.7083C25.3125 30.0833 26.625 28.7708 26.625 27.1666V6.74996C26.625 5.14579 25.3125 3.83329 23.7083 3.83329ZM23.7083 27.1666H3.29167V12.5833H23.7083V27.1666ZM9.125 18.4166H6.20833V15.5H9.125V18.4166ZM14.9583 18.4166H12.0417V15.5H14.9583V18.4166ZM20.7917 18.4166H17.875V15.5H20.7917V18.4166ZM9.125 24.25H6.20833V21.3333H9.125V24.25ZM14.9583 24.25H12.0417V21.3333H14.9583V24.25ZM20.7917 24.25H17.875V21.3333H20.7917V24.25Z" fill="#FED83C"/>
</svg>
