<svg width="61" height="57" viewBox="0 0 61 57" fill="none" xmlns="http://www.w3.org/2000/svg">
<g filter="url(#filter0_d_63_58)">
<mask id="path-1-outside-1_63_58" maskUnits="userSpaceOnUse" x="4.24323" y="4.23441" width="52" height="48" fill="black">
<rect fill="white" x="4.24323" y="4.23441" width="52" height="48"/>
<path fill-rule="evenodd" clip-rule="evenodd" d="M45.5351 7.11044C45.9186 6.9696 46.3197 6.85906 46.74 6.78265C48.181 6.52066 50.176 6.36797 51.6281 7.35706C52.6386 8.04538 52.7648 9.11622 52.5691 10.0781C52.5298 10.2711 52.4771 10.4639 52.4145 10.654C52.9516 10.9853 53.4087 11.4993 53.751 12.2133C54.2484 13.2509 54.0744 14.269 53.6348 15.1331C53.2007 15.9864 52.4954 16.7207 51.8548 17.2601C51.171 17.8359 50.4136 18.2343 49.6189 18.4896C49.3923 19.194 49.0537 19.8698 48.6248 20.4617C49.7363 23.0442 50.352 25.8905 50.352 28.8805C50.352 30.0714 50.2543 31.2395 50.0666 32.3771C50.9815 33.4193 51.5361 34.7856 51.5361 36.2813C51.5361 39.5305 48.9188 42.1684 45.6774 42.2016C41.7712 47.0746 35.7689 50.1948 29.0377 50.1948C22.3067 50.1948 16.3044 47.0747 12.3982 42.202H12.1639C8.89399 42.202 6.24323 39.5512 6.24323 36.2813C6.24323 34.6522 6.9012 33.1768 7.9659 32.1063C7.80619 31.0543 7.72339 29.9771 7.72339 28.8805C7.72339 17.109 17.2661 7.56623 29.0377 7.56623C32.2468 7.56623 35.2902 8.27541 38.0198 9.54561C38.168 9.32811 38.3267 9.11799 38.4932 8.91662C39.422 7.79359 40.6377 6.89073 41.7889 6.45892C42.978 6.0129 44.508 6.23212 45.5351 7.11044ZM48.5789 18.7418C48.466 19.0084 48.335 19.2666 48.188 19.512C48.121 19.3753 48.0526 19.2395 47.9828 19.1045C48.1181 19.0096 48.2202 18.901 48.2955 18.7846C48.3902 18.772 48.4847 18.7577 48.5789 18.7418ZM47.5697 17.9607C47.497 17.9645 47.4242 17.9674 47.3512 17.9694C47.1302 17.5992 46.8982 17.2362 46.6558 16.881C46.6707 16.8724 46.6855 16.8637 46.7004 16.855C46.8327 16.9395 46.9634 17.038 47.0918 17.1513C47.2497 17.2905 47.458 17.5856 47.5479 17.8804C47.5565 17.9086 47.5637 17.9353 47.5697 17.9607ZM44.5721 14.1506C44.5402 14.1621 44.5084 14.1737 44.4766 14.1856C44.3895 14.0941 44.3016 14.0034 44.2128 13.9134C44.2921 13.8755 44.3704 13.835 44.4474 13.7921C44.4937 13.9093 44.5353 14.029 44.5721 14.1506ZM44.0366 13.0043C43.8705 13.0987 43.6961 13.179 43.5191 13.241C43.0027 12.7627 42.4626 12.3096 41.9008 11.8838L41.9038 11.8794C42.7554 11.9092 43.5264 12.2472 44.0366 13.0043ZM40.0428 10.4611C39.9716 10.4717 39.9003 10.4836 39.8299 10.4965C39.5008 10.3028 39.166 10.1178 38.8258 9.94166C38.9364 9.78541 39.0539 9.63217 39.1776 9.48261C40.0244 8.45862 41.1178 7.65916 42.1008 7.29044C42.8795 6.99836 43.8548 7.09046 44.5992 7.53041C43.9912 7.85497 43.4315 8.25902 42.9128 8.72317C42.2048 8.84899 41.6144 9.25845 41.2111 9.81934C41.078 10.0045 40.965 10.2062 40.874 10.4202L40.8568 10.4185C40.606 10.396 40.3122 10.4211 40.0428 10.4611ZM48.4541 17.8623C48.604 17.8364 48.7525 17.8057 48.8995 17.77C48.9847 17.4146 49.0368 17.0542 49.0514 16.6979C49.0766 16.081 48.8721 15.649 48.5472 15.3415C48.5278 15.3648 48.5081 15.3879 48.4883 15.4109C48.1969 15.7473 47.851 16.0565 47.4906 16.3281C47.5539 16.3778 47.6168 16.4302 47.6792 16.4851C47.9573 16.7304 48.2583 17.1652 48.3974 17.6214C48.4205 17.6972 48.4401 17.7782 48.4541 17.8623ZM49.2558 14.7946C49.7035 15.2667 49.9724 15.9113 49.9387 16.7342C49.929 16.9717 49.9049 17.211 49.8674 17.4501C50.3702 17.2354 50.8455 16.9489 51.2828 16.5807C51.878 16.0795 52.4848 15.4351 52.8433 14.7304C53.1963 14.0364 53.2953 13.3173 52.9501 12.5972C52.7043 12.0843 52.4026 11.7294 52.0725 11.4928C51.8682 11.9171 51.6365 12.3042 51.4256 12.62C50.8359 13.5026 50.0894 14.2212 49.2558 14.7946ZM51.5946 10.3029C51.6364 10.1685 51.6717 10.0341 51.6988 9.90098C51.8567 9.12518 51.7253 8.49784 51.1281 8.09106C49.9966 7.32029 48.3298 7.39627 46.8988 7.65643C46.6433 7.70288 46.3951 7.76389 46.1538 7.83861C46.5217 8.47228 46.6223 9.24538 46.5777 9.9728C46.724 10.1316 46.8539 10.3089 46.9607 10.5067C47.2785 10.7015 47.5792 10.9153 47.8528 11.1364C48.4358 10.7615 49.0737 10.4712 49.7177 10.3167C50.3381 10.1678 50.9826 10.1409 51.5946 10.3029ZM48.5337 11.7598C48.9798 11.4964 49.454 11.2933 49.9249 11.1803C50.3957 11.0673 50.8474 11.0479 51.2587 11.1356C51.0824 11.4976 50.8801 11.8377 50.6871 12.1267C50.3029 12.7017 49.8399 13.2022 49.3212 13.6329C49.3608 13.0666 49.1785 12.4981 48.7233 11.9688C48.6638 11.8997 48.6005 11.8299 48.5337 11.7598ZM47.2775 12.7339C47.4379 12.5731 47.6106 12.4183 47.7928 12.2723C47.8863 12.3654 47.9723 12.4576 48.05 12.5479C48.3944 12.9483 48.4759 13.3232 48.4241 13.6733C48.4021 13.8221 48.3546 13.9744 48.2839 14.1288C47.8802 13.9522 47.4419 13.8492 47.0128 13.8029C47.1313 13.4633 47.2245 13.1018 47.2775 12.7339ZM46.3366 11.3145C46.4288 11.6275 46.4557 11.9749 46.4282 12.3387C46.2538 12.531 46.095 12.7293 45.9547 12.9302C45.7637 13.2039 45.5786 13.5234 45.4145 13.8714C45.3508 13.6637 45.2754 13.4612 45.189 13.2659C45.4508 13.0322 45.674 12.769 45.8379 12.4892C46.0355 12.152 46.2074 11.7488 46.3366 11.3145ZM43.6294 9.58725C43.6174 9.58582 43.6055 9.58443 43.5936 9.58309C43.4937 9.57186 43.3962 9.5685 43.3013 9.57252C43.2619 9.60995 43.2227 9.6478 43.1837 9.68608C43.3297 9.64068 43.4786 9.6082 43.6294 9.58725ZM47.4799 14.7881C47.2372 14.9016 46.9897 15.0049 46.7389 15.0984C46.7103 14.9658 46.6522 14.856 46.5799 14.7657C46.5991 14.7325 46.6178 14.699 46.636 14.6653C46.661 14.6661 46.6857 14.6672 46.7101 14.6686C46.9747 14.6841 47.235 14.7237 47.4799 14.7881ZM42.5965 11.0683C43.4152 11.2289 44.1811 11.6543 44.7431 12.4641C44.8743 12.3292 44.9861 12.1862 45.0716 12.0403C45.272 11.6984 45.4463 11.2577 45.5601 10.7826C44.5816 10.3774 43.6737 10.3126 43.0325 10.7279C42.8826 10.825 42.7367 10.9396 42.5965 11.0683ZM44.25 8.78916C44.5879 8.55012 44.9408 8.34138 45.3107 8.16673C45.5193 8.46782 45.6411 8.85565 45.683 9.29375C45.6172 9.25833 45.5509 9.22486 45.4843 9.19326C45.0827 9.00281 44.6554 8.87259 44.25 8.78916Z"/>
</mask>
<path fill-rule="evenodd" clip-rule="evenodd" d="M45.5351 7.11044C45.9186 6.9696 46.3197 6.85906 46.74 6.78265C48.181 6.52066 50.176 6.36797 51.6281 7.35706C52.6386 8.04538 52.7648 9.11622 52.5691 10.0781C52.5298 10.2711 52.4771 10.4639 52.4145 10.654C52.9516 10.9853 53.4087 11.4993 53.751 12.2133C54.2484 13.2509 54.0744 14.269 53.6348 15.1331C53.2007 15.9864 52.4954 16.7207 51.8548 17.2601C51.171 17.8359 50.4136 18.2343 49.6189 18.4896C49.3923 19.194 49.0537 19.8698 48.6248 20.4617C49.7363 23.0442 50.352 25.8905 50.352 28.8805C50.352 30.0714 50.2543 31.2395 50.0666 32.3771C50.9815 33.4193 51.5361 34.7856 51.5361 36.2813C51.5361 39.5305 48.9188 42.1684 45.6774 42.2016C41.7712 47.0746 35.7689 50.1948 29.0377 50.1948C22.3067 50.1948 16.3044 47.0747 12.3982 42.202H12.1639C8.89399 42.202 6.24323 39.5512 6.24323 36.2813C6.24323 34.6522 6.9012 33.1768 7.9659 32.1063C7.80619 31.0543 7.72339 29.9771 7.72339 28.8805C7.72339 17.109 17.2661 7.56623 29.0377 7.56623C32.2468 7.56623 35.2902 8.27541 38.0198 9.54561C38.168 9.32811 38.3267 9.11799 38.4932 8.91662C39.422 7.79359 40.6377 6.89073 41.7889 6.45892C42.978 6.0129 44.508 6.23212 45.5351 7.11044ZM48.5789 18.7418C48.466 19.0084 48.335 19.2666 48.188 19.512C48.121 19.3753 48.0526 19.2395 47.9828 19.1045C48.1181 19.0096 48.2202 18.901 48.2955 18.7846C48.3902 18.772 48.4847 18.7577 48.5789 18.7418ZM47.5697 17.9607C47.497 17.9645 47.4242 17.9674 47.3512 17.9694C47.1302 17.5992 46.8982 17.2362 46.6558 16.881C46.6707 16.8724 46.6855 16.8637 46.7004 16.855C46.8327 16.9395 46.9634 17.038 47.0918 17.1513C47.2497 17.2905 47.458 17.5856 47.5479 17.8804C47.5565 17.9086 47.5637 17.9353 47.5697 17.9607ZM44.5721 14.1506C44.5402 14.1621 44.5084 14.1737 44.4766 14.1856C44.3895 14.0941 44.3016 14.0034 44.2128 13.9134C44.2921 13.8755 44.3704 13.835 44.4474 13.7921C44.4937 13.9093 44.5353 14.029 44.5721 14.1506ZM44.0366 13.0043C43.8705 13.0987 43.6961 13.179 43.5191 13.241C43.0027 12.7627 42.4626 12.3096 41.9008 11.8838L41.9038 11.8794C42.7554 11.9092 43.5264 12.2472 44.0366 13.0043ZM40.0428 10.4611C39.9716 10.4717 39.9003 10.4836 39.8299 10.4965C39.5008 10.3028 39.166 10.1178 38.8258 9.94166C38.9364 9.78541 39.0539 9.63217 39.1776 9.48261C40.0244 8.45862 41.1178 7.65916 42.1008 7.29044C42.8795 6.99836 43.8548 7.09046 44.5992 7.53041C43.9912 7.85497 43.4315 8.25902 42.9128 8.72317C42.2048 8.84899 41.6144 9.25845 41.2111 9.81934C41.078 10.0045 40.965 10.2062 40.874 10.4202L40.8568 10.4185C40.606 10.396 40.3122 10.4211 40.0428 10.4611ZM48.4541 17.8623C48.604 17.8364 48.7525 17.8057 48.8995 17.77C48.9847 17.4146 49.0368 17.0542 49.0514 16.6979C49.0766 16.081 48.8721 15.649 48.5472 15.3415C48.5278 15.3648 48.5081 15.3879 48.4883 15.4109C48.1969 15.7473 47.851 16.0565 47.4906 16.3281C47.5539 16.3778 47.6168 16.4302 47.6792 16.4851C47.9573 16.7304 48.2583 17.1652 48.3974 17.6214C48.4205 17.6972 48.4401 17.7782 48.4541 17.8623ZM49.2558 14.7946C49.7035 15.2667 49.9724 15.9113 49.9387 16.7342C49.929 16.9717 49.9049 17.211 49.8674 17.4501C50.3702 17.2354 50.8455 16.9489 51.2828 16.5807C51.878 16.0795 52.4848 15.4351 52.8433 14.7304C53.1963 14.0364 53.2953 13.3173 52.9501 12.5972C52.7043 12.0843 52.4026 11.7294 52.0725 11.4928C51.8682 11.9171 51.6365 12.3042 51.4256 12.62C50.8359 13.5026 50.0894 14.2212 49.2558 14.7946ZM51.5946 10.3029C51.6364 10.1685 51.6717 10.0341 51.6988 9.90098C51.8567 9.12518 51.7253 8.49784 51.1281 8.09106C49.9966 7.32029 48.3298 7.39627 46.8988 7.65643C46.6433 7.70288 46.3951 7.76389 46.1538 7.83861C46.5217 8.47228 46.6223 9.24538 46.5777 9.9728C46.724 10.1316 46.8539 10.3089 46.9607 10.5067C47.2785 10.7015 47.5792 10.9153 47.8528 11.1364C48.4358 10.7615 49.0737 10.4712 49.7177 10.3167C50.3381 10.1678 50.9826 10.1409 51.5946 10.3029ZM48.5337 11.7598C48.9798 11.4964 49.454 11.2933 49.9249 11.1803C50.3957 11.0673 50.8474 11.0479 51.2587 11.1356C51.0824 11.4976 50.8801 11.8377 50.6871 12.1267C50.3029 12.7017 49.8399 13.2022 49.3212 13.6329C49.3608 13.0666 49.1785 12.4981 48.7233 11.9688C48.6638 11.8997 48.6005 11.8299 48.5337 11.7598ZM47.2775 12.7339C47.4379 12.5731 47.6106 12.4183 47.7928 12.2723C47.8863 12.3654 47.9723 12.4576 48.05 12.5479C48.3944 12.9483 48.4759 13.3232 48.4241 13.6733C48.4021 13.8221 48.3546 13.9744 48.2839 14.1288C47.8802 13.9522 47.4419 13.8492 47.0128 13.8029C47.1313 13.4633 47.2245 13.1018 47.2775 12.7339ZM46.3366 11.3145C46.4288 11.6275 46.4557 11.9749 46.4282 12.3387C46.2538 12.531 46.095 12.7293 45.9547 12.9302C45.7637 13.2039 45.5786 13.5234 45.4145 13.8714C45.3508 13.6637 45.2754 13.4612 45.189 13.2659C45.4508 13.0322 45.674 12.769 45.8379 12.4892C46.0355 12.152 46.2074 11.7488 46.3366 11.3145ZM43.6294 9.58725C43.6174 9.58582 43.6055 9.58443 43.5936 9.58309C43.4937 9.57186 43.3962 9.5685 43.3013 9.57252C43.2619 9.60995 43.2227 9.6478 43.1837 9.68608C43.3297 9.64068 43.4786 9.6082 43.6294 9.58725ZM47.4799 14.7881C47.2372 14.9016 46.9897 15.0049 46.7389 15.0984C46.7103 14.9658 46.6522 14.856 46.5799 14.7657C46.5991 14.7325 46.6178 14.699 46.636 14.6653C46.661 14.6661 46.6857 14.6672 46.7101 14.6686C46.9747 14.6841 47.235 14.7237 47.4799 14.7881ZM42.5965 11.0683C43.4152 11.2289 44.1811 11.6543 44.7431 12.4641C44.8743 12.3292 44.9861 12.1862 45.0716 12.0403C45.272 11.6984 45.4463 11.2577 45.5601 10.7826C44.5816 10.3774 43.6737 10.3126 43.0325 10.7279C42.8826 10.825 42.7367 10.9396 42.5965 11.0683ZM44.25 8.78916C44.5879 8.55012 44.9408 8.34138 45.3107 8.16673C45.5193 8.46782 45.6411 8.85565 45.683 9.29375C45.6172 9.25833 45.5509 9.22486 45.4843 9.19326C45.0827 9.00281 44.6554 8.87259 44.25 8.78916Z" fill="white"/>
<path fill-rule="evenodd" clip-rule="evenodd" d="M45.5351 7.11044C45.9186 6.9696 46.3197 6.85906 46.74 6.78265C48.181 6.52066 50.176 6.36797 51.6281 7.35706C52.6386 8.04538 52.7648 9.11622 52.5691 10.0781C52.5298 10.2711 52.4771 10.4639 52.4145 10.654C52.9516 10.9853 53.4087 11.4993 53.751 12.2133C54.2484 13.2509 54.0744 14.269 53.6348 15.1331C53.2007 15.9864 52.4954 16.7207 51.8548 17.2601C51.171 17.8359 50.4136 18.2343 49.6189 18.4896C49.3923 19.194 49.0537 19.8698 48.6248 20.4617C49.7363 23.0442 50.352 25.8905 50.352 28.8805C50.352 30.0714 50.2543 31.2395 50.0666 32.3771C50.9815 33.4193 51.5361 34.7856 51.5361 36.2813C51.5361 39.5305 48.9188 42.1684 45.6774 42.2016C41.7712 47.0746 35.7689 50.1948 29.0377 50.1948C22.3067 50.1948 16.3044 47.0747 12.3982 42.202H12.1639C8.89399 42.202 6.24323 39.5512 6.24323 36.2813C6.24323 34.6522 6.9012 33.1768 7.9659 32.1063C7.80619 31.0543 7.72339 29.9771 7.72339 28.8805C7.72339 17.109 17.2661 7.56623 29.0377 7.56623C32.2468 7.56623 35.2902 8.27541 38.0198 9.54561C38.168 9.32811 38.3267 9.11799 38.4932 8.91662C39.422 7.79359 40.6377 6.89073 41.7889 6.45892C42.978 6.0129 44.508 6.23212 45.5351 7.11044ZM48.5789 18.7418C48.466 19.0084 48.335 19.2666 48.188 19.512C48.121 19.3753 48.0526 19.2395 47.9828 19.1045C48.1181 19.0096 48.2202 18.901 48.2955 18.7846C48.3902 18.772 48.4847 18.7577 48.5789 18.7418ZM47.5697 17.9607C47.497 17.9645 47.4242 17.9674 47.3512 17.9694C47.1302 17.5992 46.8982 17.2362 46.6558 16.881C46.6707 16.8724 46.6855 16.8637 46.7004 16.855C46.8327 16.9395 46.9634 17.038 47.0918 17.1513C47.2497 17.2905 47.458 17.5856 47.5479 17.8804C47.5565 17.9086 47.5637 17.9353 47.5697 17.9607ZM44.5721 14.1506C44.5402 14.1621 44.5084 14.1737 44.4766 14.1856C44.3895 14.0941 44.3016 14.0034 44.2128 13.9134C44.2921 13.8755 44.3704 13.835 44.4474 13.7921C44.4937 13.9093 44.5353 14.029 44.5721 14.1506ZM44.0366 13.0043C43.8705 13.0987 43.6961 13.179 43.5191 13.241C43.0027 12.7627 42.4626 12.3096 41.9008 11.8838L41.9038 11.8794C42.7554 11.9092 43.5264 12.2472 44.0366 13.0043ZM40.0428 10.4611C39.9716 10.4717 39.9003 10.4836 39.8299 10.4965C39.5008 10.3028 39.166 10.1178 38.8258 9.94166C38.9364 9.78541 39.0539 9.63217 39.1776 9.48261C40.0244 8.45862 41.1178 7.65916 42.1008 7.29044C42.8795 6.99836 43.8548 7.09046 44.5992 7.53041C43.9912 7.85497 43.4315 8.25902 42.9128 8.72317C42.2048 8.84899 41.6144 9.25845 41.2111 9.81934C41.078 10.0045 40.965 10.2062 40.874 10.4202L40.8568 10.4185C40.606 10.396 40.3122 10.4211 40.0428 10.4611ZM48.4541 17.8623C48.604 17.8364 48.7525 17.8057 48.8995 17.77C48.9847 17.4146 49.0368 17.0542 49.0514 16.6979C49.0766 16.081 48.8721 15.649 48.5472 15.3415C48.5278 15.3648 48.5081 15.3879 48.4883 15.4109C48.1969 15.7473 47.851 16.0565 47.4906 16.3281C47.5539 16.3778 47.6168 16.4302 47.6792 16.4851C47.9573 16.7304 48.2583 17.1652 48.3974 17.6214C48.4205 17.6972 48.4401 17.7782 48.4541 17.8623ZM49.2558 14.7946C49.7035 15.2667 49.9724 15.9113 49.9387 16.7342C49.929 16.9717 49.9049 17.211 49.8674 17.4501C50.3702 17.2354 50.8455 16.9489 51.2828 16.5807C51.878 16.0795 52.4848 15.4351 52.8433 14.7304C53.1963 14.0364 53.2953 13.3173 52.9501 12.5972C52.7043 12.0843 52.4026 11.7294 52.0725 11.4928C51.8682 11.9171 51.6365 12.3042 51.4256 12.62C50.8359 13.5026 50.0894 14.2212 49.2558 14.7946ZM51.5946 10.3029C51.6364 10.1685 51.6717 10.0341 51.6988 9.90098C51.8567 9.12518 51.7253 8.49784 51.1281 8.09106C49.9966 7.32029 48.3298 7.39627 46.8988 7.65643C46.6433 7.70288 46.3951 7.76389 46.1538 7.83861C46.5217 8.47228 46.6223 9.24538 46.5777 9.9728C46.724 10.1316 46.8539 10.3089 46.9607 10.5067C47.2785 10.7015 47.5792 10.9153 47.8528 11.1364C48.4358 10.7615 49.0737 10.4712 49.7177 10.3167C50.3381 10.1678 50.9826 10.1409 51.5946 10.3029ZM48.5337 11.7598C48.9798 11.4964 49.454 11.2933 49.9249 11.1803C50.3957 11.0673 50.8474 11.0479 51.2587 11.1356C51.0824 11.4976 50.8801 11.8377 50.6871 12.1267C50.3029 12.7017 49.8399 13.2022 49.3212 13.6329C49.3608 13.0666 49.1785 12.4981 48.7233 11.9688C48.6638 11.8997 48.6005 11.8299 48.5337 11.7598ZM47.2775 12.7339C47.4379 12.5731 47.6106 12.4183 47.7928 12.2723C47.8863 12.3654 47.9723 12.4576 48.05 12.5479C48.3944 12.9483 48.4759 13.3232 48.4241 13.6733C48.4021 13.8221 48.3546 13.9744 48.2839 14.1288C47.8802 13.9522 47.4419 13.8492 47.0128 13.8029C47.1313 13.4633 47.2245 13.1018 47.2775 12.7339ZM46.3366 11.3145C46.4288 11.6275 46.4557 11.9749 46.4282 12.3387C46.2538 12.531 46.095 12.7293 45.9547 12.9302C45.7637 13.2039 45.5786 13.5234 45.4145 13.8714C45.3508 13.6637 45.2754 13.4612 45.189 13.2659C45.4508 13.0322 45.674 12.769 45.8379 12.4892C46.0355 12.152 46.2074 11.7488 46.3366 11.3145ZM43.6294 9.58725C43.6174 9.58582 43.6055 9.58443 43.5936 9.58309C43.4937 9.57186 43.3962 9.5685 43.3013 9.57252C43.2619 9.60995 43.2227 9.6478 43.1837 9.68608C43.3297 9.64068 43.4786 9.6082 43.6294 9.58725ZM47.4799 14.7881C47.2372 14.9016 46.9897 15.0049 46.7389 15.0984C46.7103 14.9658 46.6522 14.856 46.5799 14.7657C46.5991 14.7325 46.6178 14.699 46.636 14.6653C46.661 14.6661 46.6857 14.6672 46.7101 14.6686C46.9747 14.6841 47.235 14.7237 47.4799 14.7881ZM42.5965 11.0683C43.4152 11.2289 44.1811 11.6543 44.7431 12.4641C44.8743 12.3292 44.9861 12.1862 45.0716 12.0403C45.272 11.6984 45.4463 11.2577 45.5601 10.7826C44.5816 10.3774 43.6737 10.3126 43.0325 10.7279C42.8826 10.825 42.7367 10.9396 42.5965 11.0683ZM44.25 8.78916C44.5879 8.55012 44.9408 8.34138 45.3107 8.16673C45.5193 8.46782 45.6411 8.85565 45.683 9.29375C45.6172 9.25833 45.5509 9.22486 45.4843 9.19326C45.0827 9.00281 44.6554 8.87259 44.25 8.78916Z" stroke="white" stroke-width="4" stroke-linejoin="round" mask="url(#path-1-outside-1_63_58)"/>
</g>
<circle cx="29.0377" cy="28.7327" r="21.3143" fill="url(#paint0_radial_63_58)"/>
<path d="M40.178 22.4548C41.2572 24.3239 40.6167 26.7139 38.7476 27.7931C36.8785 28.8722 34.4885 28.2318 33.4093 26.3627C32.3302 24.4935 34.143 24.1341 36.0121 23.055C37.8812 21.9758 39.0989 20.5856 40.178 22.4548Z" fill="url(#paint1_linear_63_58)"/>
<path d="M17.9664 22.1588C16.8872 24.0279 17.5276 26.418 19.3968 27.4971C21.2659 28.5762 23.6559 27.9358 24.7351 26.0667C25.8142 24.1976 24.0014 23.8381 22.1323 22.759C20.2632 21.6799 19.0455 20.2897 17.9664 22.1588Z" fill="url(#paint2_linear_63_58)"/>
<rect x="6.24323" y="30.213" width="45.2929" height="11.8413" rx="5.92064" fill="black"/>
<path fill-rule="evenodd" clip-rule="evenodd" d="M45.5352 6.96271C45.9187 6.82187 46.3199 6.71133 46.7401 6.63492C48.1812 6.37293 50.1762 6.22024 51.6282 7.20933C52.6387 7.89765 52.7649 8.96849 52.5692 9.93033C52.5299 10.1234 52.4773 10.3162 52.4146 10.5063C52.9517 10.8376 53.4089 11.3516 53.7511 12.0656C54.2486 13.1032 54.0746 14.1213 53.635 14.9853C53.2009 15.8387 52.4955 16.5729 51.855 17.1123C51.1711 17.6881 50.4137 18.0866 49.619 18.3419C49.1806 19.7044 48.3235 20.9601 47.2032 21.7082C45.9361 22.5543 44.1629 22.8808 42.6907 22.5172C41.4021 22.199 40.731 20.9633 40.8318 19.7245C40.2307 19.9034 39.5836 19.9451 38.9101 19.7545C38.6723 19.6872 38.4788 19.5472 38.3634 19.3364C38.2556 19.1396 38.2428 18.9299 38.2578 18.7618C38.2868 18.4346 38.4363 18.1079 38.5352 17.9164C38.7539 17.493 39.0429 17.1293 39.3719 16.8192C38.5867 16.4196 37.8857 15.7976 37.6058 14.8057C37.1638 14.2689 36.8827 13.5829 36.8827 12.7109C36.8827 11.2831 37.566 9.89025 38.4934 8.76889C39.4221 7.64586 40.6379 6.743 41.7891 6.31118C42.9782 5.86517 44.5082 6.08439 45.5352 6.96271ZM37.9748 11.4614C38.2098 10.7201 38.6343 9.99195 39.1777 9.33488C40.0246 8.31088 41.118 7.51143 42.101 7.14271C42.8797 6.85062 43.855 6.94273 44.5994 7.38267C43.9914 7.70724 43.4317 8.11129 42.913 8.57544C42.205 8.70126 41.6146 9.11072 41.2113 9.67161C41.0782 9.85677 40.9651 10.0585 40.8741 10.2724C40.8684 10.2719 40.8626 10.2713 40.8569 10.2708C40.6062 10.2483 40.3123 10.2733 40.0429 10.3134C39.768 10.3542 39.4922 10.4148 39.2673 10.4758C39.1548 10.5063 39.051 10.5381 38.9639 10.569C38.8884 10.5958 38.7899 10.634 38.7127 10.6839C38.3996 10.886 38.1582 11.1567 37.9748 11.4614ZM40.304 17.1926C39.8991 17.5003 39.5558 17.8757 39.3243 18.324C39.2348 18.4972 39.1553 18.6949 39.1424 18.8404C39.14 18.8668 39.1405 18.885 39.1416 18.8968C39.1446 18.8977 39.148 18.8988 39.152 18.8999C39.7495 19.0691 40.3392 18.9926 40.9189 18.7521C40.7841 18.5464 40.7261 18.2897 40.7588 17.9947C40.7833 17.7734 40.8291 17.5591 40.8934 17.3522C40.8379 17.3391 40.7827 17.3256 40.7279 17.3118C40.5894 17.2768 40.4475 17.2373 40.304 17.1926ZM41.8553 19.2778C41.8431 19.2848 41.8308 19.2917 41.8185 19.2986C41.4627 20.363 41.9856 21.4283 42.9036 21.655C44.1269 21.9571 45.6446 21.681 46.71 20.9696C47.507 20.4374 48.1649 19.5721 48.579 18.5941C48.4848 18.61 48.3904 18.6243 48.2957 18.6369C48.218 18.7569 48.1118 18.8686 47.9702 18.9655C47.5891 19.2265 47.1296 19.1836 46.795 19.0919C46.4455 18.9962 46.1145 18.8169 45.8897 18.6464C45.8862 18.6437 45.8827 18.641 45.8792 18.6384C45.4442 18.5878 44.9909 18.5101 44.5357 18.4016C43.861 19.0692 42.9323 19.3895 42.0021 19.2964C41.9552 19.2918 41.906 19.2857 41.8553 19.2778ZM47.5698 17.8129C47.3657 17.8238 47.16 17.827 46.9531 17.8231C46.7283 17.8188 46.4918 17.806 46.2476 17.7838C46.0634 17.6012 45.9279 17.3859 45.8361 17.1445C46.0975 17.0354 46.3938 16.8876 46.7005 16.7072C46.8329 16.7918 46.9635 16.8903 47.092 17.0035C47.2499 17.1428 47.4582 17.4378 47.5481 17.7327C47.5567 17.7609 47.5639 17.7876 47.5698 17.8129ZM48.4542 17.7146C48.6041 17.6886 48.7527 17.658 48.8996 17.6223C48.9848 17.2669 49.0369 16.9065 49.0515 16.5501C49.0768 15.9332 48.8722 15.5013 48.5474 15.1938C48.5279 15.2171 48.5083 15.2402 48.4884 15.2631C48.197 15.5996 47.8512 15.9087 47.4907 16.1804C47.5541 16.2301 47.617 16.2824 47.6794 16.3374C47.9575 16.5827 48.2584 17.0175 48.3976 17.4736C48.4207 17.5495 48.4403 17.6304 48.4542 17.7146ZM49.256 14.6469C49.7037 15.119 49.9726 15.7636 49.9389 16.5865C49.9291 16.8239 49.9051 17.0632 49.8675 17.3024C50.3703 17.0876 50.8457 16.8012 51.2829 16.433C51.8781 15.9318 52.4849 15.2874 52.8434 14.5827C53.1965 13.8887 53.2955 13.1695 52.9503 12.4495C52.7044 11.9365 52.4028 11.5816 52.0727 11.345C51.8683 11.7694 51.6366 12.1565 51.4257 12.4722C50.8361 13.3549 50.0895 14.0734 49.256 14.6469ZM51.5947 10.1551C51.6366 10.0207 51.6719 9.88634 51.699 9.75325C51.8568 8.97745 51.7255 8.35011 51.1283 7.94333C49.9967 7.17256 48.33 7.24853 46.899 7.5087C46.6435 7.55515 46.3953 7.61616 46.1539 7.69088C46.5219 8.32455 46.6224 9.09765 46.5778 9.82507C46.7242 9.98387 46.8541 10.1612 46.9609 10.3589C47.2786 10.5538 47.5793 10.7675 47.8529 10.9887C48.4359 10.6138 49.0739 10.3235 49.7179 10.169C50.3383 10.0201 50.9828 9.9932 51.5947 10.1551ZM48.5339 11.6121C48.98 11.3487 49.4542 11.1455 49.9251 11.0325C50.3958 10.9196 50.8475 10.9002 51.2589 10.9879C51.0826 11.3498 50.8803 11.69 50.6872 11.9789C50.3031 12.554 49.84 13.0544 49.3213 13.4851C49.3609 12.9189 49.1786 12.3503 48.7235 11.8211C48.664 11.7519 48.6007 11.6821 48.5339 11.6121ZM47.2777 12.5861C47.4381 12.4254 47.6108 12.2706 47.7929 12.1246C47.8864 12.2176 47.9725 12.3099 48.0501 12.4002C48.3945 12.8006 48.476 13.1755 48.4242 13.5255C48.4022 13.6743 48.3548 13.8267 48.284 13.981C47.8803 13.8044 47.4421 13.7014 47.0129 13.6551C47.1314 13.3156 47.2246 12.954 47.2777 12.5861ZM46.3367 11.1668C46.4289 11.4798 46.4559 11.8271 46.4283 12.191C46.254 12.3833 46.0951 12.5815 45.9549 12.7825C45.7639 13.0562 45.5788 13.3756 45.4146 13.7237C45.3509 13.516 45.2755 13.3135 45.1892 13.1181C45.4509 12.8844 45.6741 12.6213 45.8381 12.3415C46.0357 12.0042 46.2076 11.6011 46.3367 11.1668ZM43.6296 9.43952C43.6176 9.43809 43.6056 9.4367 43.5937 9.43536C43.4938 9.42413 43.3964 9.42077 43.3015 9.42479C43.2621 9.46222 43.2228 9.50007 43.1838 9.53834C43.3298 9.49295 43.4787 9.46047 43.6296 9.43952ZM39.7491 11.2714C39.6608 11.2912 39.5766 11.3121 39.4999 11.3329C39.4027 11.3593 39.3213 11.3845 39.2609 11.406C39.2079 11.4248 39.1875 11.4349 39.1873 11.4346C38.9399 11.5968 38.745 11.8516 38.6047 12.1747C38.9078 11.8003 39.2993 11.4881 39.7491 11.2714ZM43.2964 18.203C43.3638 18.1708 43.4297 18.1351 43.494 18.0961C43.4744 18.0892 43.4548 18.0822 43.4353 18.0752C43.3896 18.1179 43.3433 18.1605 43.2964 18.203ZM47.48 14.6404C47.2374 14.7539 46.9899 14.8572 46.739 14.9506C46.7104 14.8181 46.6524 14.7082 46.5801 14.618C46.5992 14.5848 46.6179 14.5513 46.6362 14.5176C46.6611 14.5184 46.6858 14.5195 46.7103 14.5209C46.9749 14.5364 47.2352 14.5759 47.48 14.6404ZM44.5722 14.0029C44.5355 13.8813 44.4939 13.7615 44.4476 13.6444C44.071 13.8543 43.664 14.0058 43.2629 14.0766C42.745 14.1681 42.1933 14.1325 41.7156 13.8681C41.494 13.7455 41.3006 13.5804 41.1399 13.3739C40.9669 14.029 41.0568 14.4462 41.2333 14.721C41.4133 15.001 41.7344 15.2136 42.185 15.3536C42.2037 15.3138 42.2237 15.2739 42.2452 15.234C42.7267 14.3385 43.5784 14.1205 44.3345 14.0929C44.4135 14.0614 44.4928 14.0314 44.5722 14.0029ZM41.5803 12.2684C41.6983 12.7203 41.9133 12.9625 42.1456 13.0911C42.3951 13.2291 42.7256 13.2697 43.1085 13.2021C43.4227 13.1466 43.7428 13.0236 44.0368 12.8566C43.5266 12.0994 42.7555 11.7615 41.904 11.7316C41.7868 11.9034 41.6783 12.0835 41.5803 12.2684ZM40.3022 11.9982C39.6545 12.2528 39.1559 12.7662 38.9407 13.3517C38.762 13.838 38.7734 14.3845 39.0785 14.9027C39.2251 14.9906 39.3812 15.0713 39.5453 15.1455C39.7003 15.2156 39.8608 15.279 40.0252 15.3364C39.6359 14.474 39.7456 13.5218 40.0271 12.6838C40.1056 12.4502 40.199 12.2206 40.3022 11.9982ZM44.7585 14.983C44.7378 14.9824 44.7183 14.9819 44.7001 14.9812C44.6381 14.979 44.5772 14.9778 44.5177 14.9777C44.2006 15.1127 43.8857 15.2758 43.5856 15.4653C43.7023 15.4846 43.8178 15.5087 43.9315 15.5378C44.1416 15.53 44.3497 15.5139 44.5506 15.4915C44.627 15.4403 44.7015 15.387 44.7742 15.3316C44.7734 15.2155 44.7681 15.0992 44.7585 14.983ZM42.5966 10.9206C43.4153 11.0811 44.1812 11.5066 44.7432 12.3164C44.8745 12.1814 44.9863 12.0385 45.0718 11.8925C45.2721 11.5507 45.4464 11.11 45.5602 10.6348C44.5818 10.2297 43.6739 10.1648 43.0326 10.5802C42.8828 10.6773 42.7369 10.7919 42.5966 10.9206ZM44.2501 8.64142C44.588 8.40239 44.9409 8.19365 45.3108 8.019C45.5195 8.32009 45.6413 8.70792 45.6831 9.14602C45.6174 9.1106 45.551 9.07713 45.4844 9.04552C45.0829 8.85508 44.6555 8.72486 44.2501 8.64142Z" fill="black"/>
<path d="M48.1276 36.802L44.8666 38.377V37.6277L47.2464 36.5418V36.5071L44.8666 35.4213V34.665L48.1276 36.247V36.802Z" fill="white"/>
<path d="M44.1381 33.2427L42.5214 39.2582H41.8623L43.4789 33.2427H44.1381Z" fill="white"/>
<path d="M37.8865 36.3301V35.775L41.1475 34.1931V34.9493L38.7676 36.0317V36.0733L41.1475 37.1557V37.905L37.8865 36.3301Z" fill="white"/>
<path d="M34.7506 38.5713C33.7411 38.5713 33.1201 37.9746 33.1201 37.1698C33.1201 36.5661 33.5156 36.1984 34.0914 35.8064C33.7723 35.4179 33.5399 35.064 33.5364 34.6165C33.5399 33.9192 34.0394 33.4231 34.8061 33.4231C35.5797 33.4231 36.055 33.9296 36.055 34.5194C36.055 34.9981 35.8052 35.3485 35.3889 35.6503L35.042 35.9035L36.048 37.1039C36.1764 36.8541 36.2562 36.5557 36.2562 36.2192H36.9222C36.9222 36.9165 36.721 37.364 36.5025 37.6485L37.2206 38.5019H36.388L36.048 38.103C35.7046 38.4221 35.205 38.5713 34.7506 38.5713ZM33.8625 37.149C33.859 37.5791 34.2129 37.9469 34.7575 37.9469C35.0628 37.9469 35.375 37.8289 35.6317 37.6173L34.5077 36.299L34.3828 36.3927C33.9874 36.6841 33.859 36.9894 33.8625 37.149ZM34.2302 34.6234C34.2302 34.8802 34.4106 35.1369 34.6396 35.4179L34.9448 35.1993C35.2189 35.0189 35.382 34.8351 35.382 34.5402C35.382 34.3043 35.1599 34.0406 34.82 34.0406C34.473 34.0441 34.2302 34.3355 34.2302 34.6234Z" fill="white"/>
<path d="M28.0761 35.8653C27.3892 35.8723 27.0145 35.3623 27.0215 34.6165C27.0145 33.881 27.4066 33.371 28.0761 33.3745C28.7665 33.371 29.1272 33.881 29.1307 34.6165C29.1272 35.3658 28.7526 35.8723 28.0761 35.8653ZM27.5904 38.5019L31.0387 33.4786H31.6701L28.2218 38.5019H27.5904ZM27.5904 34.6165C27.5939 35.0778 27.7535 35.3762 28.0761 35.3797C28.4022 35.3762 28.5548 35.0778 28.5548 34.6165C28.5548 34.1655 28.4126 33.8567 28.0761 33.8602C27.7535 33.8671 27.5939 34.1689 27.5904 34.6165ZM30.1923 37.3571C30.1888 36.6147 30.5773 36.1047 31.2469 36.1082C31.9338 36.1047 32.298 36.6147 32.3015 37.3571C32.298 38.0995 31.9234 38.6059 31.2469 38.6059C30.5635 38.6059 30.1888 38.096 30.1923 37.3571ZM30.7612 37.3571C30.7647 37.8115 30.9243 38.1133 31.2469 38.1133C31.573 38.1133 31.7256 37.8115 31.7256 37.3571C31.7256 36.8991 31.5834 36.5939 31.2469 36.5939C30.9277 36.6008 30.7647 36.9026 30.7612 37.3571Z" fill="white"/>
<path d="M23.1636 37.4266C22.4941 37.4266 21.9945 36.8923 21.9911 35.9834C21.9945 35.071 22.5114 34.5472 23.1636 34.5472C23.6424 34.5472 23.854 34.8455 23.9407 35.019H23.9754V34.6027H24.579V36.5454C24.5894 36.7986 24.6901 36.9235 24.8982 36.9201C25.2902 36.9235 25.5469 36.4691 25.5504 35.7961C25.5573 34.5402 24.6588 33.7146 23.3648 33.7146C22.0292 33.7181 21.1758 34.7172 21.1724 35.9834C21.1724 37.3606 21.9182 38.2696 23.3371 38.2591C23.8262 38.2557 24.1732 38.2175 24.579 38.1065V38.6616C24.2148 38.7656 23.795 38.8281 23.3371 38.8281C21.6199 38.8281 20.5895 37.7318 20.5895 35.9834C20.5861 34.3425 21.7378 33.1457 23.3648 33.1457C25.0092 33.1457 26.1367 34.2697 26.1332 35.7753C26.1332 36.8403 25.5886 37.4578 24.8496 37.4543C24.3986 37.4543 24.0621 37.2253 24.0101 36.9062H23.9754C23.8887 37.0831 23.6667 37.4266 23.1636 37.4266ZM22.6433 35.9765C22.6398 36.4795 22.8826 36.8542 23.3163 36.8576C23.7569 36.8542 23.9858 36.5072 23.9893 35.9765C23.9858 35.4596 23.7603 35.1196 23.3163 35.1161C22.8792 35.1196 22.6398 35.4873 22.6433 35.9765Z" fill="white"/>
<path d="M19.6739 33.4788L19.6114 37.052H18.9245L18.8621 33.4788H19.6739ZM18.7788 38.0581C18.7753 37.7875 19.0008 37.5654 19.2714 37.5654C19.5386 37.5654 19.7606 37.7875 19.764 38.0581C19.7606 38.3286 19.5386 38.5472 19.2714 38.5507C19.0008 38.5472 18.7753 38.3286 18.7788 38.0581Z" fill="white"/>
<path d="M16.3155 38.5021L16.5376 37.1561H15.365L15.143 38.5021H14.5463L14.7683 37.1561H14.0467L14.1369 36.5663H14.8654L15.0528 35.4146H14.3381L14.4283 34.8179H15.1534L15.3719 33.4788H15.9686L15.7501 34.8179H16.9226L17.1412 33.4788H17.7309L17.5124 34.8179H18.2444L18.1472 35.4146H17.4152L17.2279 36.5663H17.953L17.8489 37.1561H17.1308L16.9122 38.5021H16.3155ZM15.4621 36.5663H16.6347L16.822 35.4146H15.6495L15.4621 36.5663Z" fill="white"/>
<path d="M11.6115 39.1332V38.5781C10.6054 38.5157 9.97753 37.9675 9.93243 37.1072H10.6956C10.7338 37.5929 11.1189 37.8496 11.6115 37.9086V36.2468L11.3756 36.1844C10.5673 35.9624 10.0677 35.553 10.0643 34.8523C10.0677 34.0544 10.7165 33.5062 11.6115 33.4195V32.8471H12.0139V33.4126C12.9471 33.4715 13.5854 34.0335 13.6097 34.8037H12.8673C12.8257 34.3874 12.4926 34.1272 12.0139 34.0786V35.6398L12.229 35.6987C12.8708 35.8548 13.6756 36.2052 13.6791 37.1141C13.6756 37.9155 13.0755 38.5122 12.0139 38.5781V39.1332H11.6115ZM10.8275 34.8106C10.8275 35.2339 11.2403 35.4281 11.6115 35.5322V34.0821C11.1258 34.1515 10.8309 34.4394 10.8275 34.8106ZM12.0139 37.9086C12.5482 37.8426 12.9194 37.5408 12.9228 37.1003C12.9194 36.6736 12.5239 36.4966 12.0139 36.3544V37.9086Z" fill="white"/>
<defs>
<filter id="filter0_d_63_58" x="0.243225" y="0.234776" width="59.8099" height="55.96" filterUnits="userSpaceOnUse" color-interpolation-filters="sRGB">
<feFlood flood-opacity="0" result="BackgroundImageFix"/>
<feColorMatrix in="SourceAlpha" type="matrix" values="0 0 0 0 0 0 0 0 0 0 0 0 0 0 0 0 0 0 127 0" result="hardAlpha"/>
<feOffset/>
<feGaussianBlur stdDeviation="2"/>
<feComposite in2="hardAlpha" operator="out"/>
<feColorMatrix type="matrix" values="0 0 0 0 0 0 0 0 0 0 0 0 0 0 0 0 0 0 0.6 0"/>
<feBlend mode="normal" in2="BackgroundImageFix" result="effect1_dropShadow_63_58"/>
<feBlend mode="normal" in="SourceGraphic" in2="effect1_dropShadow_63_58" result="shape"/>
</filter>
<radialGradient id="paint0_radial_63_58" cx="0" cy="0" r="1" gradientUnits="userSpaceOnUse" gradientTransform="translate(29.0377 50.047) rotate(-90) scale(42.6286)">
<stop stop-color="#FFC37D"/>
<stop offset="0.55268" stop-color="#FFA77D"/>
<stop offset="1" stop-color="#FF7D7D"/>
</radialGradient>
<linearGradient id="paint1_linear_63_58" x1="35.0652" y1="28.1141" x2="35.7338" y2="20.4597" gradientUnits="userSpaceOnUse">
<stop/>
<stop offset="1" stop-color="#2E2E2E"/>
</linearGradient>
<linearGradient id="paint2_linear_63_58" x1="23.0792" y1="27.8182" x2="22.4106" y2="20.1638" gradientUnits="userSpaceOnUse">
<stop/>
<stop offset="1" stop-color="#2E2E2E"/>
</linearGradient>
</defs>
</svg>
