<svg width="68" height="60" viewBox="0 0 68 60" fill="none" xmlns="http://www.w3.org/2000/svg">
<g filter="url(#filter0_d_95_718)">
<path fill-rule="evenodd" clip-rule="evenodd" d="M47.1384 7.3829C46.5515 7.8421 46.2901 8.56322 46.3904 9.25137C45.9748 9.00245 45.4733 8.90621 44.98 9.00199C40.7345 5.85875 35.4806 4 29.7926 4C15.6821 4 4.24323 15.4388 4.24323 29.5493C4.24323 43.6599 15.6821 55.0987 29.7926 55.0987C30.3801 55.0987 30.9631 55.0789 31.5407 55.0398L31.4114 55L55.2891 31.2049C55.3242 30.6576 55.3419 30.1055 55.3419 29.5493C55.3419 26.2325 54.7099 23.0633 53.5597 20.1556L53.7884 20.1144C54.1918 20.9344 54.4042 21.5121 54.4042 22.0169C54.4042 23.1233 55.301 24.0202 56.4074 24.0202C57.5138 24.0202 58.4107 23.1233 58.4107 22.0169C58.4107 21.0764 58.1688 20.1902 57.8697 19.4251C57.9828 19.4063 58.095 19.3875 58.2059 19.3689L58.2074 19.3687C59.4036 19.1683 60.4354 18.9985 61.4291 18.9985C62.5354 18.9985 63.4323 18.1016 63.4323 16.9953C63.4323 15.8889 62.5354 14.992 61.4291 14.992C60.0704 14.992 58.6987 15.2228 57.5492 15.4161L57.5057 15.4235C57.2687 15.4633 57.0417 15.5015 56.8208 15.537C56.52 15.5853 56.2191 15.6342 55.9182 15.6837C55.2163 14.5265 54.4558 13.4093 53.6621 12.331C53.8917 12.2228 54.1231 12.1177 54.3565 12.016C55.1947 11.6506 56.0649 11.3571 56.9914 11.0964C57.0928 11.0678 57.1801 11.0421 57.2513 11.0211L57.2513 11.0211L57.2514 11.0211L57.2533 11.0205C57.3136 11.0028 57.3571 10.9899 57.3951 10.9793C57.4228 10.9715 57.4416 10.9666 57.4544 10.9634C58.541 10.9408 59.415 10.0528 59.415 8.96065C59.415 7.85428 58.5181 6.9574 57.4117 6.9574C56.8321 6.9574 56.2829 7.12525 56.0371 7.20034L56.0079 7.20927C55.9558 7.22511 55.927 7.23382 55.906 7.23973C54.8562 7.53516 53.8047 7.88588 52.7554 8.34335C52.1992 8.58585 51.6518 8.84462 51.1137 9.1196L51.0133 9.00254L50.8995 8.86977C50.5576 8.47077 50.2434 8.10063 49.9505 7.72626C49.2688 6.8549 48.0098 6.70116 47.1384 7.3829Z" fill="white"/>
</g>
<path fill-rule="evenodd" clip-rule="evenodd" d="M52.6147 32.9636C52.7645 31.9021 52.8419 30.8173 52.8419 29.7145C52.8419 16.9847 42.5224 6.66513 29.7926 6.66513C17.0628 6.66513 6.74323 16.9847 6.74323 29.7145C6.74323 42.4443 17.0628 52.7638 29.7926 52.7638C30.8681 52.7638 31.9263 52.6902 32.9626 52.5476L52.6147 32.9636Z" fill="url(#paint0_radial_95_718)"/>
<path d="M36.3209 38.7535C36.3209 40.2629 32.7236 42.2686 28.2862 42.2686C23.8488 42.2686 20.2516 40.2629 20.2516 38.7535C20.2516 37.244 20.8944 37.7491 28.2862 37.7491C36.3209 37.7491 36.3209 37.5324 36.3209 38.7535Z" fill="url(#paint1_linear_95_718)"/>
<ellipse cx="41.4586" cy="36.2771" rx="6.56266" ry="4.00162" fill="url(#paint2_radial_95_718)"/>
<ellipse cx="13.758" cy="36.227" rx="6.56266" ry="4.00162" fill="url(#paint3_radial_95_718)"/>
<path d="M41.8447 30.4647C39.3338 29.9459 36.3208 29.9459 33.3079 33.4611C36.3208 32.9589 38.3295 32.9589 40.3382 33.9798" stroke="#4B0808" stroke-width="1.5" stroke-linecap="round" stroke-linejoin="round"/>
<path d="M15.2299 30.4647C17.7408 29.9459 20.7537 29.9459 23.7667 33.4611C20.7537 32.9589 18.7451 32.9589 16.7364 33.9798" stroke="#4B0808" stroke-width="1.5" stroke-linecap="round" stroke-linejoin="round"/>
<path fill-rule="evenodd" clip-rule="evenodd" d="M47.9086 8.53251C48.2363 8.27617 48.7097 8.33398 48.966 8.66162C49.2779 9.06022 49.6084 9.4492 49.9503 9.84825C49.987 9.89106 50.0239 9.93401 50.0608 9.97711C50.3087 10.2661 50.562 10.5615 50.8105 10.8629C51.6033 10.422 52.4184 10.019 53.2549 9.65431C54.2384 9.22556 55.2333 8.89272 56.2446 8.6081C56.281 8.59788 56.3237 8.58488 56.3718 8.57025C56.6236 8.49366 57.0218 8.37252 57.4118 8.37252C57.8278 8.37252 58.165 8.70976 58.165 9.12577C58.165 9.54177 57.8278 9.87901 57.4118 9.87901C57.265 9.87901 57.1327 9.91802 56.8998 9.98669C56.8281 10.0078 56.7469 10.0318 56.6528 10.0583C55.6878 10.3298 54.761 10.6411 53.857 11.0353C53.1419 11.347 52.4438 11.6881 51.7632 12.0582C53.0359 13.6961 54.2388 15.4157 55.2782 17.2226C55.8583 17.1248 56.4386 17.0296 57.0191 16.9363C57.2453 16.9 57.4769 16.861 57.713 16.8213C58.8896 16.6234 60.1752 16.4072 61.4291 16.4072C61.8451 16.4072 62.1823 16.7444 62.1823 17.1604C62.1823 17.5764 61.8451 17.9136 61.4291 17.9136C60.313 17.9136 59.1763 18.1041 58.0009 18.301C57.7551 18.3422 57.5075 18.3836 57.2581 18.4237C56.8518 18.489 56.4459 18.5552 56.0403 18.6226C56.5446 19.6004 57.1607 20.8496 57.1607 22.182C57.1607 22.5981 56.8234 22.9353 56.4074 22.9353C55.9914 22.9353 55.6542 22.5981 55.6542 22.182C55.6542 21.232 55.1939 20.2658 54.6563 19.2259C54.5979 19.113 54.5388 19.0003 54.4789 18.888C53.2103 19.109 51.9455 19.3429 50.6854 19.5949C50.9311 20.3929 51.1347 21.2794 51.1347 22.182C51.1347 22.5981 50.7975 22.9353 50.3815 22.9353C49.9654 22.9353 49.6282 22.5981 49.6282 22.182C49.6282 21.442 49.4479 20.6725 49.2023 19.9004C48.9686 19.95 48.7351 20.0003 48.5017 20.0514C48.1123 20.1365 47.7121 20.2309 47.3049 20.3269C46.3819 20.5444 45.4227 20.7705 44.4706 20.9178C44.0595 20.9814 43.6747 20.6996 43.6111 20.2885C43.5475 19.8774 43.8292 19.4926 44.2404 19.429C45.1334 19.2909 45.9957 19.0874 46.8889 18.8767C47.3102 18.7773 47.7383 18.6762 48.1799 18.5797C48.35 18.5425 48.5201 18.5056 48.6904 18.4692C48.2496 17.3497 47.7332 16.28 47.1476 15.2449C46.9621 15.4042 46.7785 15.5664 46.5967 15.7313C46.5504 15.7734 46.5039 15.8155 46.4575 15.8576C45.5153 16.7116 44.5671 17.5711 44.0025 18.5431C43.7935 18.9028 43.3325 19.025 42.9728 18.8161C42.6131 18.6071 42.4909 18.1461 42.6998 17.7864C43.3872 16.603 44.501 15.5957 45.3986 14.7839C45.4616 14.7269 45.5236 14.6709 45.5843 14.6158C45.8395 14.3841 46.0983 14.1577 46.3605 13.9364C45.9377 13.2702 45.4951 12.6206 45.0337 11.9892C45.0228 11.9742 45.0077 11.9549 44.9808 11.9211C44.9789 11.9187 44.9769 11.9162 44.9749 11.9137C44.9516 11.8845 44.9207 11.8457 44.8901 11.8051C44.827 11.7213 44.731 11.5863 44.6628 11.4201C44.5051 11.0352 44.6892 10.5953 45.0741 10.4375C45.4568 10.2806 45.894 10.4617 46.054 10.8422C46.0552 10.8439 46.065 10.861 46.0932 10.8984C46.1113 10.9224 46.1304 10.9464 46.1564 10.979L46.1596 10.9831C46.1841 11.0138 46.2182 11.0567 46.2501 11.1004C46.699 11.7147 47.1307 12.3454 47.5442 12.9907C48.1775 12.5122 48.8289 12.062 49.498 11.6405C49.3082 11.4137 49.1143 11.1876 48.9169 10.9574C48.8802 10.9146 48.8433 10.8716 48.8064 10.8285C48.4643 10.4294 48.1142 10.0177 47.7795 9.58991C47.5232 9.26227 47.581 8.78885 47.9086 8.53251ZM50.4489 12.8226C49.7218 13.2741 49.0162 13.761 48.3332 14.2833C49.0452 15.5167 49.6668 16.8011 50.1858 18.1586C51.3525 17.9235 52.5218 17.7041 53.6927 17.4966C52.7275 15.8792 51.6233 14.3236 50.4489 12.8226Z" fill="#8A3C04"/>
<g filter="url(#filter1_d_95_718)">
<path fill-rule="evenodd" clip-rule="evenodd" d="M31.3767 55.0373C31.8837 49.1495 34.3901 43.4015 38.8958 38.8958C43.4016 34.3901 49.1495 31.8837 55.0373 31.3767L31.3767 55.0373Z" fill="white"/>
</g>
<defs>
<filter id="filter0_d_95_718" x="0.243225" y="0" width="67.1891" height="59.0987" filterUnits="userSpaceOnUse" color-interpolation-filters="sRGB">
<feFlood flood-opacity="0" result="BackgroundImageFix"/>
<feColorMatrix in="SourceAlpha" type="matrix" values="0 0 0 0 0 0 0 0 0 0 0 0 0 0 0 0 0 0 127 0" result="hardAlpha"/>
<feOffset/>
<feGaussianBlur stdDeviation="2"/>
<feComposite in2="hardAlpha" operator="out"/>
<feColorMatrix type="matrix" values="0 0 0 0 0 0 0 0 0 0 0 0 0 0 0 0 0 0 0.6 0"/>
<feBlend mode="normal" in2="BackgroundImageFix" result="effect1_dropShadow_95_718"/>
<feBlend mode="normal" in="SourceGraphic" in2="effect1_dropShadow_95_718" result="shape"/>
</filter>
<filter id="filter1_d_95_718" x="24.3768" y="27.3767" width="31.6605" height="31.6605" filterUnits="userSpaceOnUse" color-interpolation-filters="sRGB">
<feFlood flood-opacity="0" result="BackgroundImageFix"/>
<feColorMatrix in="SourceAlpha" type="matrix" values="0 0 0 0 0 0 0 0 0 0 0 0 0 0 0 0 0 0 127 0" result="hardAlpha"/>
<feOffset dx="-3"/>
<feGaussianBlur stdDeviation="2"/>
<feComposite in2="hardAlpha" operator="out"/>
<feColorMatrix type="matrix" values="0 0 0 0 0.264323 0 0 0 0 0.264323 0 0 0 0 0.264323 0 0 0 0.17 0"/>
<feBlend mode="normal" in2="BackgroundImageFix" result="effect1_dropShadow_95_718"/>
<feBlend mode="normal" in="SourceGraphic" in2="effect1_dropShadow_95_718" result="shape"/>
</filter>
<radialGradient id="paint0_radial_95_718" cx="0" cy="0" r="1" gradientUnits="userSpaceOnUse" gradientTransform="translate(37.7958 21.3911) rotate(125.763) scale(33.1396)">
<stop stop-color="#FFC85E"/>
<stop offset="0.5" stop-color="#FFB84E"/>
<stop offset="1" stop-color="#FFA800"/>
</radialGradient>
<linearGradient id="paint1_linear_95_718" x1="24.751" y1="40.6568" x2="25.4535" y2="36.1877" gradientUnits="userSpaceOnUse">
<stop stop-color="#BD000B"/>
<stop offset="1" stop-color="#FA6F0B"/>
</linearGradient>
<radialGradient id="paint2_radial_95_718" cx="0" cy="0" r="1" gradientUnits="userSpaceOnUse" gradientTransform="translate(41.4586 36.2771) rotate(90) scale(4.00162 6.56266)">
<stop stop-color="#FF7A00"/>
<stop offset="0.64" stop-color="#FF873E" stop-opacity="0.5"/>
<stop offset="1" stop-color="#FF947D" stop-opacity="0"/>
</radialGradient>
<radialGradient id="paint3_radial_95_718" cx="0" cy="0" r="1" gradientUnits="userSpaceOnUse" gradientTransform="translate(13.758 36.227) rotate(90) scale(4.00162 6.56266)">
<stop stop-color="#FF7A00"/>
<stop offset="0.64" stop-color="#FF873E" stop-opacity="0.5"/>
<stop offset="1" stop-color="#FF947D" stop-opacity="0"/>
</radialGradient>
</defs>
</svg>
