<svg width="30" height="22" viewBox="0 0 30 22" fill="none" xmlns="http://www.w3.org/2000/svg">
<path d="M2.5 6.3125C2.05729 6.3125 1.68646 6.1625 1.3875 5.8625C1.0875 5.56354 0.9375 5.19271 0.9375 4.75V1.625C0.9375 1.18229 1.0875 0.810938 1.3875 0.510938C1.68646 0.211979 2.05729 0.0625 2.5 0.0625H5.625C6.06771 0.0625 6.43906 0.211979 6.73906 0.510938C7.03802 0.810938 7.1875 1.18229 7.1875 1.625V4.75C7.1875 5.19271 7.03802 5.56354 6.73906 5.8625C6.43906 6.1625 6.06771 6.3125 5.625 6.3125H2.5ZM10.3125 6.3125C9.86979 6.3125 9.49896 6.1625 9.2 5.8625C8.9 5.56354 8.75 5.19271 8.75 4.75V1.625C8.75 1.18229 8.9 0.810938 9.2 0.510938C9.49896 0.211979 9.86979 0.0625 10.3125 0.0625H27.5C27.9427 0.0625 28.3135 0.211979 28.6125 0.510938C28.9125 0.810938 29.0625 1.18229 29.0625 1.625V4.75C29.0625 5.19271 28.9125 5.56354 28.6125 5.8625C28.3135 6.1625 27.9427 6.3125 27.5 6.3125H10.3125ZM10.3125 14.125C9.86979 14.125 9.49896 13.975 9.2 13.675C8.9 13.376 8.75 13.0052 8.75 12.5625V9.4375C8.75 8.99479 8.9 8.62344 9.2 8.32344C9.49896 8.02448 9.86979 7.875 10.3125 7.875H27.5C27.9427 7.875 28.3135 8.02448 28.6125 8.32344C28.9125 8.62344 29.0625 8.99479 29.0625 9.4375V12.5625C29.0625 13.0052 28.9125 13.376 28.6125 13.675C28.3135 13.975 27.9427 14.125 27.5 14.125H10.3125ZM2.5 14.125C2.05729 14.125 1.68646 13.975 1.3875 13.675C1.0875 13.376 0.9375 13.0052 0.9375 12.5625V9.4375C0.9375 8.99479 1.0875 8.62344 1.3875 8.32344C1.68646 8.02448 2.05729 7.875 2.5 7.875H5.625C6.06771 7.875 6.43906 8.02448 6.73906 8.32344C7.03802 8.62344 7.1875 8.99479 7.1875 9.4375V12.5625C7.1875 13.0052 7.03802 13.376 6.73906 13.675C6.43906 13.975 6.06771 14.125 5.625 14.125H2.5ZM10.3125 21.9375C9.86979 21.9375 9.49896 21.7875 9.2 21.4875C8.9 21.1885 8.75 20.8177 8.75 20.375V17.25C8.75 16.8073 8.9 16.4359 9.2 16.1359C9.49896 15.837 9.86979 15.6875 10.3125 15.6875H27.5C27.9427 15.6875 28.3135 15.837 28.6125 16.1359C28.9125 16.4359 29.0625 16.8073 29.0625 17.25V20.375C29.0625 20.8177 28.9125 21.1885 28.6125 21.4875C28.3135 21.7875 27.9427 21.9375 27.5 21.9375H10.3125ZM2.5 21.9375C2.05729 21.9375 1.68646 21.7875 1.3875 21.4875C1.0875 21.1885 0.9375 20.8177 0.9375 20.375V17.25C0.9375 16.8073 1.0875 16.4359 1.3875 16.1359C1.68646 15.837 2.05729 15.6875 2.5 15.6875H5.625C6.06771 15.6875 6.43906 15.837 6.73906 16.1359C7.03802 16.4359 7.1875 16.8073 7.1875 17.25V20.375C7.1875 20.8177 7.03802 21.1885 6.73906 21.4875C6.43906 21.7875 6.06771 21.9375 5.625 21.9375H2.5Z" fill="#4C4C4C"/>
</svg>
