<svg width="62" height="60" viewBox="0 0 62 60" fill="none" xmlns="http://www.w3.org/2000/svg">
<g filter="url(#filter0_d_163_101)">
<mask id="path-1-outside-1_163_101" maskUnits="userSpaceOnUse" x="3.5" y="3.66513" width="55" height="52" fill="black">
<rect fill="white" x="3.5" y="3.66513" width="55" height="52"/>
<path fill-rule="evenodd" clip-rule="evenodd" d="M29.5493 52.7638C42.2792 52.7638 52.5987 42.4443 52.5987 29.7145C52.5987 27.2258 52.2043 24.8292 51.4745 22.5838C51.8307 22.4396 52.0252 22.0452 51.9127 21.6697C51.5304 20.3933 50.5818 19.3734 49.8181 18.5813C50.1874 18.4004 50.5573 18.2205 50.9277 18.0414C51.1552 17.9315 51.3804 17.8207 51.6041 17.7107C52.6736 17.1849 53.7079 16.6763 54.777 16.3561C55.1755 16.2368 55.4018 15.817 55.2825 15.4185C55.1631 15.0199 54.7433 14.7936 54.3448 14.913C53.1437 15.2727 51.9741 15.8487 50.9038 16.3759C50.689 16.4816 50.4783 16.5854 50.2721 16.6851C49.8415 16.8933 49.4113 17.1027 48.9819 17.3136C47.8422 15.5315 46.4642 13.9165 44.8927 12.5138C45.1083 12.3191 45.3273 12.1276 45.5498 11.9394C46.3028 11.3025 47.1013 10.7384 47.9478 10.2014C48.0303 10.149 48.1013 10.1027 48.1639 10.0619C48.3673 9.92932 48.4828 9.854 48.6234 9.81189C49.0219 9.69254 49.2482 9.27272 49.1289 8.8742C49.0095 8.47568 48.5897 8.24938 48.1912 8.36873C47.8176 8.48061 47.4709 8.71092 47.2517 8.85651C47.2098 8.88433 47.1726 8.90905 47.1407 8.92926C46.2536 9.49206 45.396 10.0964 44.5769 10.7892C44.2877 11.0339 44.0039 11.2838 43.7256 11.5389C39.8157 8.48495 34.8951 6.66513 29.5493 6.66513C16.8195 6.66513 6.5 16.9847 6.5 29.7145C6.5 42.4443 16.8195 52.7638 29.5493 52.7638Z"/>
</mask>
<path fill-rule="evenodd" clip-rule="evenodd" d="M29.5493 52.7638C42.2792 52.7638 52.5987 42.4443 52.5987 29.7145C52.5987 27.2258 52.2043 24.8292 51.4745 22.5838C51.8307 22.4396 52.0252 22.0452 51.9127 21.6697C51.5304 20.3933 50.5818 19.3734 49.8181 18.5813C50.1874 18.4004 50.5573 18.2205 50.9277 18.0414C51.1552 17.9315 51.3804 17.8207 51.6041 17.7107C52.6736 17.1849 53.7079 16.6763 54.777 16.3561C55.1755 16.2368 55.4018 15.817 55.2825 15.4185C55.1631 15.0199 54.7433 14.7936 54.3448 14.913C53.1437 15.2727 51.9741 15.8487 50.9038 16.3759C50.689 16.4816 50.4783 16.5854 50.2721 16.6851C49.8415 16.8933 49.4113 17.1027 48.9819 17.3136C47.8422 15.5315 46.4642 13.9165 44.8927 12.5138C45.1083 12.3191 45.3273 12.1276 45.5498 11.9394C46.3028 11.3025 47.1013 10.7384 47.9478 10.2014C48.0303 10.149 48.1013 10.1027 48.1639 10.0619C48.3673 9.92932 48.4828 9.854 48.6234 9.81189C49.0219 9.69254 49.2482 9.27272 49.1289 8.8742C49.0095 8.47568 48.5897 8.24938 48.1912 8.36873C47.8176 8.48061 47.4709 8.71092 47.2517 8.85651C47.2098 8.88433 47.1726 8.90905 47.1407 8.92926C46.2536 9.49206 45.396 10.0964 44.5769 10.7892C44.2877 11.0339 44.0039 11.2838 43.7256 11.5389C39.8157 8.48495 34.8951 6.66513 29.5493 6.66513C16.8195 6.66513 6.5 16.9847 6.5 29.7145C6.5 42.4443 16.8195 52.7638 29.5493 52.7638Z" fill="white"/>
<path d="M51.4745 22.5838L50.5367 20.2664L48.3767 21.1405L49.0969 23.3565L51.4745 22.5838ZM51.9127 21.6697L54.3076 20.9525L54.3076 20.9525L51.9127 21.6697ZM49.8181 18.5813L48.7183 16.3363L45.6364 17.8461L48.0184 20.3166L49.8181 18.5813ZM50.9277 18.0414L52.0158 20.2922L52.0158 20.2922L50.9277 18.0414ZM51.6041 17.7107L52.7072 19.9542L52.7072 19.9542L51.6041 17.7107ZM54.777 16.3561L55.4943 18.751L55.4943 18.751L54.777 16.3561ZM55.2825 15.4185L52.8876 16.1357L52.8876 16.1357L55.2825 15.4185ZM54.3448 14.913L55.0621 17.3079L55.0621 17.3079L54.3448 14.913ZM50.9038 16.3759L52.0083 18.6186L52.0083 18.6186L50.9038 16.3759ZM50.2721 16.6851L51.3601 18.9359L51.3601 18.9359L50.2721 16.6851ZM48.9819 17.3136L46.8757 18.6604L48.0789 20.542L50.0837 19.5577L48.9819 17.3136ZM44.8927 12.5138L43.2172 10.6583L41.1505 12.5244L43.2279 14.3788L44.8927 12.5138ZM45.5498 11.9394L43.9352 10.0307L43.9352 10.0307L45.5498 11.9394ZM47.9478 10.2014L46.6086 8.09031L46.6085 8.09034L47.9478 10.2014ZM48.1639 10.0619L46.7986 7.96763L46.7986 7.96765L48.1639 10.0619ZM48.6234 9.81189L47.9061 7.41699L47.9061 7.417L48.6234 9.81189ZM49.1289 8.8742L51.5238 8.15694L51.5238 8.15694L49.1289 8.8742ZM48.1912 8.36873L47.4739 5.97383L47.4739 5.97383L48.1912 8.36873ZM47.2517 8.85651L45.8685 6.77403L45.8685 6.77404L47.2517 8.85651ZM47.1407 8.92926L45.8015 6.81822L45.8015 6.81823L47.1407 8.92926ZM44.5769 10.7892L42.9623 8.88057L42.9623 8.88058L44.5769 10.7892ZM43.7256 11.5389L42.1868 13.5091L43.8548 14.812L45.415 13.3817L43.7256 11.5389ZM50.0987 29.7145C50.0987 41.0636 40.8984 50.2638 29.5493 50.2638V55.2638C43.6599 55.2638 55.0987 43.825 55.0987 29.7145H50.0987ZM49.0969 23.3565C49.7466 25.3554 50.0987 27.4914 50.0987 29.7145H55.0987C55.0987 26.9602 54.662 24.3029 53.8521 21.8111L49.0969 23.3565ZM49.5178 22.387C49.2566 21.5148 49.7082 20.6016 50.5367 20.2664L52.4123 24.9012C53.9533 24.2776 54.7937 22.5756 54.3076 20.9525L49.5178 22.387ZM48.0184 20.3166C48.8207 21.1487 49.3326 21.7687 49.5178 22.387L54.3076 20.9525C53.7282 19.018 52.3429 17.5981 51.6178 16.8461L48.0184 20.3166ZM49.8397 15.7906C49.4656 15.9715 49.0917 16.1533 48.7183 16.3363L50.918 20.8264C51.283 20.6476 51.649 20.4696 52.0158 20.2922L49.8397 15.7906ZM50.501 15.4673C50.2761 15.5779 50.0583 15.6849 49.8396 15.7906L52.0158 20.2922C52.252 20.1781 52.4847 20.0636 52.7072 19.9542L50.501 15.4673ZM54.0598 13.9613C52.7561 14.3517 51.5327 14.96 50.501 15.4673L52.7072 19.9542C53.8145 19.4098 54.6597 19.001 55.4943 18.751L54.0598 13.9613ZM52.8876 16.1357C52.6108 15.2116 53.1356 14.238 54.0597 13.9613L55.4943 18.751C57.2155 18.2356 58.1929 16.4224 57.6774 14.7012L52.8876 16.1357ZM55.0621 17.3079C54.1379 17.5847 53.1644 17.0599 52.8876 16.1357L57.6774 14.7012C57.1619 12.98 55.3487 12.0026 53.6275 12.5181L55.0621 17.3079ZM52.0083 18.6186C53.112 18.0751 54.0948 17.5976 55.0621 17.3079L53.6275 12.5181C52.1925 12.9479 50.8363 13.6224 49.7992 14.1331L52.0083 18.6186ZM51.3601 18.9359C51.5761 18.8315 51.7951 18.7236 52.0083 18.6186L49.7992 14.1331C49.5829 14.2396 49.3805 14.3393 49.184 14.4343L51.3601 18.9359ZM50.0837 19.5577C50.5082 19.3492 50.9337 19.142 51.3601 18.9359L49.184 14.4343C48.7492 14.6445 48.3145 14.8562 47.88 15.0695L50.0837 19.5577ZM43.2279 14.3788C44.6301 15.6305 45.8594 17.0713 46.8757 18.6604L51.088 15.9667C49.825 13.9917 48.2983 12.2026 46.5575 10.6487L43.2279 14.3788ZM43.9352 10.0307C43.6922 10.2363 43.4529 10.4455 43.2172 10.6583L46.5681 14.3693C46.7637 14.1927 46.9625 14.019 47.1644 13.8481L43.9352 10.0307ZM46.6085 8.09034C45.6946 8.67014 44.7979 9.30096 43.9352 10.0307L47.1644 13.8481C47.8077 13.304 48.508 12.8066 49.287 12.3124L46.6085 8.09034ZM46.7986 7.96765C46.7356 8.00868 46.6765 8.04719 46.6086 8.09031L49.2869 12.3124C49.3841 12.2508 49.4669 12.1968 49.5292 12.1562L46.7986 7.96765ZM47.9061 7.417C47.3492 7.5838 46.9123 7.89349 46.7986 7.96763L49.5291 12.1562C49.5837 12.1207 49.6143 12.1007 49.6393 12.0849C49.663 12.0699 49.6624 12.0708 49.6482 12.0789C49.6321 12.088 49.5937 12.109 49.5385 12.1336C49.4811 12.1592 49.4144 12.1847 49.3407 12.2068L47.9061 7.417ZM46.734 9.59146C46.4572 8.66731 46.982 7.69377 47.9061 7.41699L49.3407 12.2068C51.0619 11.6913 52.0393 9.87812 51.5238 8.15694L46.734 9.59146ZM48.9085 10.7636C47.9843 11.0404 47.0108 10.5156 46.734 9.59146L51.5238 8.15694C51.0083 6.43575 49.1951 5.45835 47.4739 5.97383L48.9085 10.7636ZM48.6349 10.939C48.7482 10.8637 48.816 10.8198 48.8822 10.7828C48.912 10.7662 48.9307 10.7572 48.939 10.7535C48.9479 10.7495 48.9372 10.755 48.9085 10.7636L47.4739 5.97383C46.6906 6.20843 46.0483 6.65461 45.8685 6.77403L48.6349 10.939ZM48.48 11.0403C48.5387 11.003 48.6 10.9622 48.6349 10.939L45.8685 6.77404C45.8465 6.78866 45.8315 6.79857 45.8185 6.80711C45.8057 6.81559 45.8011 6.81848 45.8015 6.81822L48.48 11.0403ZM46.1915 12.6979C46.9008 12.0979 47.6603 11.5603 48.48 11.0403L45.8015 6.81823C44.8469 7.42384 43.8911 8.09488 42.9623 8.88057L46.1915 12.6979ZM45.415 13.3817C45.6687 13.1491 45.9275 12.9212 46.1915 12.6979L42.9623 8.88058C42.6478 9.14657 42.3391 9.41839 42.0363 9.69601L45.415 13.3817ZM29.5493 9.16513C34.3179 9.16513 38.7007 10.7863 42.1868 13.5091L45.2645 9.56864C40.9307 6.18363 35.4723 4.16513 29.5493 4.16513V9.16513ZM9 29.7145C9 18.3654 18.2003 9.16513 29.5493 9.16513V4.16513C15.4388 4.16513 4 15.604 4 29.7145H9ZM29.5493 50.2638C18.2003 50.2638 9 41.0636 9 29.7145H4C4 43.825 15.4388 55.2638 29.5493 55.2638V50.2638Z" fill="white" mask="url(#path-1-outside-1_163_101)"/>
</g>
<circle cx="29.5493" cy="29.7145" r="23.0493" fill="url(#paint0_radial_163_101)"/>
<path d="M36.0776 38.7535C36.0776 40.2629 32.4804 42.2686 28.043 42.2686C23.6056 42.2686 20.0083 40.2629 20.0083 38.7535C20.0083 37.244 20.6511 37.7491 28.043 37.7491C36.0776 37.7491 36.0776 37.5324 36.0776 38.7535Z" fill="url(#paint1_linear_163_101)"/>
<ellipse cx="41.2154" cy="36.2771" rx="6.56266" ry="4.00162" fill="url(#paint2_radial_163_101)"/>
<ellipse cx="13.5147" cy="36.227" rx="6.56266" ry="4.00162" fill="url(#paint3_radial_163_101)"/>
<path d="M41.6014 30.4647C39.0906 29.9459 36.0776 29.9459 33.0646 33.4611C36.0776 32.9589 38.0862 32.9589 40.0949 33.9798" stroke="#4B0808" stroke-width="1.5" stroke-linecap="round" stroke-linejoin="round"/>
<path d="M14.9867 30.4647C17.4975 29.9459 20.5105 29.9459 23.5235 33.4611C20.5105 32.9589 18.5019 32.9589 16.4932 33.9798" stroke="#4B0808" stroke-width="1.5" stroke-linecap="round" stroke-linejoin="round"/>
<path fill-rule="evenodd" clip-rule="evenodd" d="M39.1335 11.2485C39.3738 10.9089 39.8439 10.8285 40.1835 11.0688C40.5966 11.3612 41.0248 11.639 41.4668 11.9231C41.5143 11.9536 41.5619 11.9842 41.6097 12.0149C41.93 12.2206 42.2575 12.4309 42.582 12.6483C43.2149 11.9985 43.8802 11.3786 44.5769 10.7892C45.396 10.0964 46.2536 9.49206 47.1407 8.92926C47.1726 8.90905 47.2098 8.88433 47.2517 8.85651C47.4709 8.71092 47.8176 8.48061 48.1912 8.36873C48.5897 8.24938 49.0095 8.47568 49.1289 8.8742C49.2482 9.27272 49.0219 9.69254 48.6234 9.81189C48.4828 9.854 48.3673 9.92932 48.1639 10.0619C48.1013 10.1027 48.0303 10.149 47.9478 10.2014C47.1013 10.7384 46.3028 11.3025 45.5498 11.9394C44.9543 12.4432 44.3834 12.9702 43.8376 13.5201C45.5267 14.724 47.1724 16.0261 48.6865 17.4589C49.2141 17.1988 49.7427 16.941 50.2721 16.6851C50.4783 16.5854 50.689 16.4816 50.9038 16.3759C51.9741 15.8487 53.1437 15.2727 54.3448 14.913C54.7433 14.7936 55.1631 15.0199 55.2825 15.4185C55.4018 15.817 55.1755 16.2368 54.777 16.3561C53.7079 16.6763 52.6736 17.1849 51.6041 17.7107C51.3804 17.8207 51.1552 17.9315 50.9277 18.0414C50.5573 18.2205 50.1874 18.4004 49.8181 18.5813C50.5818 19.3734 51.5304 20.3933 51.9127 21.6697C52.032 22.0682 51.8057 22.4881 51.4072 22.6074C51.0087 22.7268 50.5889 22.5005 50.4695 22.1019C50.197 21.1918 49.4788 20.3984 48.6655 19.5564C48.5771 19.4649 48.4882 19.374 48.3986 19.2836C47.2467 19.8592 46.1022 20.4462 44.9674 21.0491C45.4317 21.7431 45.8811 22.534 46.1401 23.3986C46.2594 23.7971 46.0331 24.2169 45.6346 24.3363C45.2361 24.4557 44.8162 24.2293 44.6969 23.8308C44.4846 23.1219 44.0911 22.4365 43.6343 21.7673C43.4246 21.8819 43.2154 21.9971 43.0065 22.1129C42.6579 22.3062 42.3016 22.5114 41.939 22.7202C41.1172 23.1935 40.2632 23.6852 39.3934 24.0995C39.0178 24.2783 38.5683 24.1188 38.3895 23.7432C38.2106 23.3677 38.3701 22.9182 38.7457 22.7393C39.5616 22.3508 40.3292 21.9085 41.1244 21.4503C41.4995 21.2342 41.8806 21.0146 42.2759 20.7954C42.4282 20.711 42.5806 20.6269 42.7333 20.5431C41.9898 19.5972 41.1882 18.7206 40.3302 17.897C40.1983 18.1028 40.0689 18.3109 39.9421 18.5211C39.9098 18.5747 39.8774 18.6283 39.845 18.682C39.1874 19.7704 38.5256 20.8658 38.2636 21.9589C38.1667 22.3634 37.7601 22.6128 37.3556 22.5158C36.951 22.4189 36.7017 22.0123 36.7986 21.6078C37.1176 20.2769 37.8956 18.9924 38.5225 17.9572C38.5666 17.8845 38.6099 17.8131 38.6522 17.7429C38.8302 17.4477 39.0132 17.1565 39.2009 16.8693C38.6047 16.3525 37.9943 15.8571 37.3712 15.3847C37.3564 15.3734 37.3364 15.3593 37.301 15.3347C37.2984 15.3329 37.2958 15.3311 37.2931 15.3292C37.2625 15.3079 37.2218 15.2796 37.1808 15.2495C37.0963 15.1874 36.9656 15.0856 36.8526 14.946C36.591 14.6225 36.6412 14.1482 36.9647 13.8866C37.2863 13.6265 37.757 13.6746 38.0195 13.9931C38.0212 13.9945 38.0354 14.008 38.0732 14.0358C38.0974 14.0536 38.1226 14.0711 38.1568 14.0949L38.1611 14.0978C38.1933 14.1203 38.2383 14.1516 38.2814 14.1843C38.8877 14.644 39.4822 15.1242 40.0635 15.6238C40.5328 14.9837 41.0277 14.3656 41.5478 13.7698C41.3009 13.607 41.0502 13.446 40.7951 13.2822C40.7476 13.2517 40.7 13.2211 40.6522 13.1904C40.2101 12.9062 39.7565 12.6122 39.3132 12.2985C38.9736 12.0581 38.8932 11.5881 39.1335 11.2485ZM42.7979 14.6294C42.2308 15.2705 41.6946 15.9394 41.1902 16.6357C42.2261 17.613 43.1901 18.665 44.0767 19.8166C45.1269 19.2566 46.1841 18.7109 47.2462 18.1762C45.8575 16.9038 44.3534 15.7304 42.7979 14.6294Z" fill="#8A3C04"/>
<defs>
<filter id="filter0_d_163_101" x="0" y="0.165131" width="61.815" height="59.0987" filterUnits="userSpaceOnUse" color-interpolation-filters="sRGB">
<feFlood flood-opacity="0" result="BackgroundImageFix"/>
<feColorMatrix in="SourceAlpha" type="matrix" values="0 0 0 0 0 0 0 0 0 0 0 0 0 0 0 0 0 0 127 0" result="hardAlpha"/>
<feOffset/>
<feGaussianBlur stdDeviation="2"/>
<feComposite in2="hardAlpha" operator="out"/>
<feColorMatrix type="matrix" values="0 0 0 0 0 0 0 0 0 0 0 0 0 0 0 0 0 0 0.6 0"/>
<feBlend mode="normal" in2="BackgroundImageFix" result="effect1_dropShadow_163_101"/>
<feBlend mode="normal" in="SourceGraphic" in2="effect1_dropShadow_163_101" result="shape"/>
</filter>
<radialGradient id="paint0_radial_163_101" cx="0" cy="0" r="1" gradientUnits="userSpaceOnUse" gradientTransform="translate(37.5526 21.3911) rotate(125.763) scale(33.1396)">
<stop stop-color="#FFC85E"/>
<stop offset="0.5" stop-color="#FFB84E"/>
<stop offset="1" stop-color="#FFA800"/>
</radialGradient>
<linearGradient id="paint1_linear_163_101" x1="24.5077" y1="40.6568" x2="25.2103" y2="36.1877" gradientUnits="userSpaceOnUse">
<stop stop-color="#BD000B"/>
<stop offset="1" stop-color="#FA6F0B"/>
</linearGradient>
<radialGradient id="paint2_radial_163_101" cx="0" cy="0" r="1" gradientUnits="userSpaceOnUse" gradientTransform="translate(41.2154 36.2771) rotate(90) scale(4.00162 6.56266)">
<stop stop-color="#FF7A00"/>
<stop offset="0.64" stop-color="#FF873E" stop-opacity="0.5"/>
<stop offset="1" stop-color="#FF947D" stop-opacity="0"/>
</radialGradient>
<radialGradient id="paint3_radial_163_101" cx="0" cy="0" r="1" gradientUnits="userSpaceOnUse" gradientTransform="translate(13.5147 36.227) rotate(90) scale(4.00162 6.56266)">
<stop stop-color="#FF7A00"/>
<stop offset="0.64" stop-color="#FF873E" stop-opacity="0.5"/>
<stop offset="1" stop-color="#FF947D" stop-opacity="0"/>
</radialGradient>
</defs>
</svg>
