<svg width="60" height="59" viewBox="0 0 60 59" fill="none" xmlns="http://www.w3.org/2000/svg">
<g filter="url(#filter0_d_95_397)">
<circle cx="29.7432" cy="29.5" r="25.5" fill="white"/>
</g>
<circle cx="29.7431" cy="29.5" r="22.95" fill="url(#paint0_radial_95_397)"/>
<path d="M39.8245 32.5C39.8245 35.2614 36.4666 39 32.3245 39C28.1824 39 24.8245 35.2614 24.8245 32.5C24.8245 29.7386 25.4245 29 32.3245 29C39.8245 29 39.8245 29.7386 39.8245 32.5Z" fill="url(#paint1_linear_95_397)"/>
<ellipse cx="17.7776" cy="28.9344" rx="6.53437" ry="3.98438" fill="url(#paint2_radial_95_397)"/>
<ellipse cx="46.3589" cy="29.9344" rx="6.53437" ry="3.98438" fill="url(#paint3_radial_95_397)"/>
<path d="M35.8245 20.8125C35.8245 22.3658 36.8245 25.3125 40.8245 27C44.8245 25.3125 45.8245 22.3658 45.8245 20.8125C45.8245 19.2592 44.7052 18 43.3245 18C41.9438 18 40.8245 19 40.8245 19.5C40.8245 19 39.7052 18 38.3245 18C36.9438 18 35.8245 19.2592 35.8245 20.8125Z" fill="url(#paint4_radial_95_397)"/>
<path d="M18.8245 20.8125C18.8245 22.3658 19.8245 25.3125 23.8245 27C27.8245 25.3125 28.8245 22.3658 28.8245 20.8125C28.8245 19.2592 27.7052 18 26.3245 18C24.9438 18 23.8245 19 23.8245 19.5C23.8245 19 22.7052 18 21.3245 18C19.9438 18 18.8245 19.2592 18.8245 20.8125Z" fill="url(#paint5_radial_95_397)"/>
<defs>
<filter id="filter0_d_95_397" x="0.243225" y="0" width="59" height="59" filterUnits="userSpaceOnUse" color-interpolation-filters="sRGB">
<feFlood flood-opacity="0" result="BackgroundImageFix"/>
<feColorMatrix in="SourceAlpha" type="matrix" values="0 0 0 0 0 0 0 0 0 0 0 0 0 0 0 0 0 0 127 0" result="hardAlpha"/>
<feOffset/>
<feGaussianBlur stdDeviation="2"/>
<feComposite in2="hardAlpha" operator="out"/>
<feColorMatrix type="matrix" values="0 0 0 0 0 0 0 0 0 0 0 0 0 0 0 0 0 0 0.6 0"/>
<feBlend mode="normal" in2="BackgroundImageFix" result="effect1_dropShadow_95_397"/>
<feBlend mode="normal" in="SourceGraphic" in2="effect1_dropShadow_95_397" result="shape"/>
</filter>
<radialGradient id="paint0_radial_95_397" cx="0" cy="0" r="1" gradientUnits="userSpaceOnUse" gradientTransform="translate(37.7118 21.2125) rotate(125.763) scale(32.9968)">
<stop stop-color="#FFBABE"/>
<stop offset="0.798204" stop-color="#FF7070"/>
<stop offset="1" stop-color="#FF6580"/>
</radialGradient>
<linearGradient id="paint1_linear_95_397" x1="29.0245" y1="36.0513" x2="31.3819" y2="28.3995" gradientUnits="userSpaceOnUse">
<stop stop-color="#4B0808"/>
<stop offset="1" stop-color="#671F00"/>
</linearGradient>
<radialGradient id="paint2_radial_95_397" cx="0" cy="0" r="1" gradientUnits="userSpaceOnUse" gradientTransform="translate(17.7776 28.9344) rotate(90) scale(3.98438 6.53437)">
<stop stop-color="#FF5C5C"/>
<stop offset="0.555" stop-color="#FF5E57" stop-opacity="0.5"/>
<stop offset="1" stop-color="#FF9283" stop-opacity="0"/>
</radialGradient>
<radialGradient id="paint3_radial_95_397" cx="0" cy="0" r="1" gradientUnits="userSpaceOnUse" gradientTransform="translate(46.3589 29.9344) rotate(90) scale(3.98438 6.53437)">
<stop stop-color="#FF5C5C"/>
<stop offset="0.555" stop-color="#FF5E57" stop-opacity="0.5"/>
<stop offset="1" stop-color="#FF9283" stop-opacity="0"/>
</radialGradient>
<radialGradient id="paint4_radial_95_397" cx="0" cy="0" r="1" gradientUnits="userSpaceOnUse" gradientTransform="translate(42.4912 20.25) rotate(123.362) scale(8.08181 9.0481)">
<stop stop-color="#FF4343"/>
<stop offset="1" stop-color="#B7002C"/>
</radialGradient>
<radialGradient id="paint5_radial_95_397" cx="0" cy="0" r="1" gradientUnits="userSpaceOnUse" gradientTransform="translate(25.4912 20.25) rotate(123.362) scale(8.08181 9.0481)">
<stop stop-color="#FF4343"/>
<stop offset="1" stop-color="#B7002C"/>
</radialGradient>
</defs>
</svg>
