<svg width="68" height="60" viewBox="0 0 68 60" fill="none" xmlns="http://www.w3.org/2000/svg">
<g filter="url(#filter0_d_63_95)">
<path fill-rule="evenodd" clip-rule="evenodd" d="M29.7926 52.5987C42.5224 52.5987 52.8419 42.2792 52.8419 29.5493C52.8419 16.8195 42.5224 6.5 29.7926 6.5C17.0628 6.5 6.74323 16.8195 6.74323 29.5493C6.74323 42.2792 17.0628 52.5987 29.7926 52.5987ZM48.3332 14.1182C49.0162 13.5959 49.7217 13.1089 50.4489 12.6575C51.6232 14.1585 52.7275 15.7141 53.6926 17.3314C52.5218 17.5389 51.3525 17.7584 50.1858 17.9935C49.6668 16.6359 49.0452 15.3516 48.3332 14.1182Z" fill="white"/>
<path fill-rule="evenodd" clip-rule="evenodd" d="M46.3904 9.25137C46.2901 8.56322 46.5515 7.8421 47.1384 7.3829C48.0098 6.70116 49.2688 6.8549 49.9505 7.72626C50.2434 8.10063 50.5576 8.47077 50.8995 8.86977L51.0133 9.00254C51.0465 9.04126 51.08 9.08029 51.1137 9.1196C51.6518 8.84462 52.1992 8.58585 52.7554 8.34335C53.8047 7.88588 54.8562 7.53516 55.906 7.23973C55.927 7.23382 55.9558 7.22511 56.0079 7.20927C56.0171 7.20648 56.0269 7.20348 56.0371 7.20034C56.2829 7.12525 56.8321 6.9574 57.4117 6.9574C58.5181 6.9574 59.415 7.85428 59.415 8.96065C59.415 10.0528 58.541 10.9408 57.4544 10.9634C57.4416 10.9666 57.4228 10.9715 57.3951 10.9793C57.3571 10.9899 57.3136 11.0028 57.2533 11.0205L57.2514 11.0211C57.1803 11.0421 57.0929 11.0678 56.9914 11.0964C56.0649 11.3571 55.1947 11.6506 54.3565 12.016C54.1231 12.1177 53.8917 12.2228 53.6621 12.331C54.4558 13.4093 55.2163 14.5265 55.9182 15.6837C56.2191 15.6342 56.52 15.5853 56.8208 15.537C57.0417 15.5015 57.2687 15.4633 57.5057 15.4235L57.5492 15.4161C58.6987 15.2228 60.0704 14.992 61.4291 14.992C62.5354 14.992 63.4323 15.8889 63.4323 16.9953C63.4323 18.1016 62.5354 18.9985 61.4291 18.9985C60.4354 18.9985 59.4036 19.1683 58.2074 19.3687L58.2059 19.3689C58.095 19.3875 57.9828 19.4063 57.8697 19.4251C58.1688 20.1902 58.4107 21.0764 58.4107 22.0169C58.4107 23.1233 57.5138 24.0202 56.4074 24.0202C55.301 24.0202 54.4042 23.1233 54.4042 22.0169C54.4042 21.5121 54.1918 20.9344 53.7884 20.1144C53.7122 20.1281 53.6359 20.1418 53.5597 20.1556C54.7099 23.0633 55.3419 26.2325 55.3419 29.5493C55.3419 43.6599 43.9031 55.0987 29.7926 55.0987C15.6821 55.0987 4.24323 43.6599 4.24323 29.5493C4.24323 15.4388 15.6821 4 29.7926 4C35.4806 4 40.7345 5.85875 44.98 9.00199C45.4733 8.90621 45.9748 9.00245 46.3904 9.25137ZM46.0168 13.1773C45.977 13.1377 45.9369 13.0983 45.8968 13.0591C45.5303 12.7012 45.152 12.3554 44.7624 12.0223C44.7576 12.0183 44.7529 12.0142 44.7482 12.0102C44.5678 11.8562 44.3851 11.7051 44.2 11.5567C44.1692 11.5319 44.1383 11.5073 44.1073 11.4827C43.8612 11.2875 43.611 11.0971 43.3569 10.9118C39.551 8.13722 34.863 6.5 29.7926 6.5C17.0628 6.5 6.74323 16.8195 6.74323 29.5493C6.74323 42.2792 17.0628 52.5987 29.7926 52.5987C42.5224 52.5987 52.8419 42.2792 52.8419 29.5493C52.8419 26.7217 52.3328 24.013 51.4011 21.5099C51.291 21.214 51.1749 20.921 51.0531 20.631C51.0193 20.5504 50.985 20.4701 50.9503 20.39C50.9446 20.3768 50.9389 20.3637 50.9332 20.3506C50.895 20.263 50.8563 20.1757 50.8171 20.0887C50.7245 19.8833 50.6291 19.6795 50.5307 19.4774C50.505 19.4245 50.479 19.3717 50.4529 19.3191C50.2994 19.0097 50.1392 18.7043 49.9724 18.403C49.9224 18.3126 49.8718 18.2227 49.8206 18.1331C49.1165 16.9005 48.3019 15.7391 47.3902 14.6625C47.1873 14.4229 46.9796 14.1875 46.7673 13.9565C46.5232 13.6909 46.273 13.4311 46.0168 13.1773ZM49.4931 13.2799C49.0996 13.5484 48.7129 13.8278 48.3332 14.1182C49.0452 15.3516 49.6668 16.6359 50.1858 17.9935C50.4765 17.9349 50.7673 17.8773 51.0583 17.8206C51.494 17.7357 51.93 17.6529 52.3662 17.5719C52.8081 17.4899 53.2503 17.4098 53.6926 17.3314C53.2318 16.5592 52.7393 15.8011 52.2225 15.0562C51.657 14.2411 51.0626 13.4418 50.4489 12.6575C50.126 12.858 49.8074 13.0654 49.4931 13.2799Z" fill="white"/>
</g>
<circle cx="29.7926" cy="29.7145" r="23.0493" fill="url(#paint0_radial_63_95)"/>
<path d="M36.3208 38.7535C36.3208 40.2629 32.7236 42.2686 28.2862 42.2686C23.8488 42.2686 20.2516 40.2629 20.2516 38.7535C20.2516 37.244 20.8943 37.7491 28.2862 37.7491C36.3208 37.7491 36.3208 37.5324 36.3208 38.7535Z" fill="url(#paint1_linear_63_95)"/>
<ellipse cx="41.4586" cy="36.2771" rx="6.56266" ry="4.00162" fill="url(#paint2_radial_63_95)"/>
<ellipse cx="13.7579" cy="36.227" rx="6.56266" ry="4.00162" fill="url(#paint3_radial_63_95)"/>
<path d="M41.8446 30.4647C39.3338 29.9459 36.3208 29.9459 33.3078 33.4611C36.3208 32.9589 38.3295 32.9589 40.3381 33.9798" stroke="#4B0808" stroke-width="1.5" stroke-linecap="round" stroke-linejoin="round"/>
<path d="M15.2299 30.4647C17.7408 29.9459 20.7537 29.9459 23.7667 33.4611C20.7537 32.9589 18.7451 32.9589 16.7364 33.9798" stroke="#4B0808" stroke-width="1.5" stroke-linecap="round" stroke-linejoin="round"/>
<path fill-rule="evenodd" clip-rule="evenodd" d="M47.9086 8.53251C48.2363 8.27617 48.7097 8.33398 48.966 8.66162C49.2779 9.06022 49.6084 9.4492 49.9503 9.84825C49.987 9.89106 50.0239 9.93401 50.0608 9.97711C50.3087 10.2661 50.562 10.5615 50.8105 10.8629C51.6033 10.422 52.4184 10.019 53.2549 9.65431C54.2384 9.22556 55.2333 8.89272 56.2446 8.6081C56.281 8.59788 56.3237 8.58488 56.3718 8.57025C56.6236 8.49366 57.0218 8.37252 57.4118 8.37252C57.8278 8.37252 58.165 8.70976 58.165 9.12577C58.165 9.54177 57.8278 9.87901 57.4118 9.87901C57.265 9.87901 57.1327 9.91802 56.8998 9.98669C56.8281 10.0078 56.7469 10.0318 56.6528 10.0583C55.6878 10.3298 54.761 10.6411 53.857 11.0353C53.1419 11.347 52.4438 11.6881 51.7632 12.0582C53.0359 13.6961 54.2388 15.4157 55.2782 17.2226C55.8583 17.1248 56.4386 17.0296 57.0191 16.9363C57.2453 16.9 57.4769 16.861 57.713 16.8213C58.8896 16.6234 60.1752 16.4072 61.4291 16.4072C61.8451 16.4072 62.1823 16.7444 62.1823 17.1604C62.1823 17.5764 61.8451 17.9136 61.4291 17.9136C60.313 17.9136 59.1763 18.1041 58.0009 18.301C57.7551 18.3422 57.5075 18.3836 57.2581 18.4237C56.8518 18.489 56.4459 18.5552 56.0403 18.6226C56.5446 19.6004 57.1607 20.8496 57.1607 22.182C57.1607 22.598 56.8234 22.9353 56.4074 22.9353C55.9914 22.9353 55.6542 22.598 55.6542 22.182C55.6542 21.232 55.1939 20.2658 54.6563 19.2259C54.5979 19.113 54.5388 19.0003 54.4789 18.888C53.2103 19.109 51.9455 19.3429 50.6854 19.5949C50.9311 20.3929 51.1347 21.2794 51.1347 22.182C51.1347 22.598 50.7975 22.9353 50.3815 22.9353C49.9654 22.9353 49.6282 22.598 49.6282 22.182C49.6282 21.442 49.4479 20.6725 49.2023 19.9004C48.9686 19.95 48.7351 20.0003 48.5017 20.0514C48.1123 20.1365 47.7121 20.2309 47.3049 20.3269C46.3819 20.5444 45.4227 20.7705 44.4706 20.9178C44.0595 20.9814 43.6747 20.6996 43.6111 20.2885C43.5475 19.8774 43.8292 19.4926 44.2404 19.429C45.1334 19.2909 45.9957 19.0874 46.8889 18.8767C47.3102 18.7773 47.7383 18.6762 48.1799 18.5797C48.35 18.5425 48.5201 18.5056 48.6904 18.4692C48.2496 17.3497 47.7332 16.28 47.1476 15.2449C46.9621 15.4042 46.7785 15.5664 46.5967 15.7313C46.5504 15.7734 46.5039 15.8155 46.4575 15.8576C45.5153 16.7116 44.5671 17.5711 44.0025 18.5431C43.7935 18.9028 43.3325 19.025 42.9728 18.8161C42.6131 18.6071 42.4909 18.1461 42.6998 17.7864C43.3872 16.603 44.501 15.5957 45.3986 14.7839C45.4616 14.7269 45.5236 14.6709 45.5843 14.6158C45.8395 14.3841 46.0983 14.1577 46.3605 13.9364C45.9377 13.2702 45.4951 12.6206 45.0337 11.9892C45.0228 11.9742 45.0077 11.9549 44.9808 11.9211C44.9789 11.9187 44.9769 11.9162 44.9749 11.9137C44.9516 11.8845 44.9207 11.8457 44.8901 11.8051C44.827 11.7213 44.731 11.5863 44.6628 11.4201C44.5051 11.0352 44.6892 10.5953 45.0741 10.4375C45.4568 10.2806 45.894 10.4617 46.054 10.8422C46.0552 10.8439 46.065 10.861 46.0932 10.8984C46.1113 10.9224 46.1304 10.9464 46.1564 10.979L46.1596 10.9831C46.1841 11.0138 46.2182 11.0567 46.2501 11.1004C46.699 11.7147 47.1307 12.3454 47.5442 12.9907C48.1775 12.5122 48.8289 12.062 49.498 11.6405C49.3082 11.4137 49.1143 11.1876 48.9169 10.9574C48.8802 10.9146 48.8433 10.8716 48.8064 10.8285C48.4643 10.4294 48.1142 10.0177 47.7795 9.58991C47.5232 9.26226 47.581 8.78885 47.9086 8.53251ZM50.4489 12.8226C49.7218 13.2741 49.0162 13.761 48.3332 14.2833C49.0452 15.5167 49.6668 16.8011 50.1858 18.1586C51.3525 17.9235 52.5218 17.7041 53.6927 17.4966C52.7275 15.8792 51.6233 14.3236 50.4489 12.8226Z" fill="#8A3C04"/>
<defs>
<filter id="filter0_d_63_95" x="0.243225" y="0" width="67.1891" height="59.0987" filterUnits="userSpaceOnUse" color-interpolation-filters="sRGB">
<feFlood flood-opacity="0" result="BackgroundImageFix"/>
<feColorMatrix in="SourceAlpha" type="matrix" values="0 0 0 0 0 0 0 0 0 0 0 0 0 0 0 0 0 0 127 0" result="hardAlpha"/>
<feOffset/>
<feGaussianBlur stdDeviation="2"/>
<feComposite in2="hardAlpha" operator="out"/>
<feColorMatrix type="matrix" values="0 0 0 0 0 0 0 0 0 0 0 0 0 0 0 0 0 0 0.6 0"/>
<feBlend mode="normal" in2="BackgroundImageFix" result="effect1_dropShadow_63_95"/>
<feBlend mode="normal" in="SourceGraphic" in2="effect1_dropShadow_63_95" result="shape"/>
</filter>
<radialGradient id="paint0_radial_63_95" cx="0" cy="0" r="1" gradientUnits="userSpaceOnUse" gradientTransform="translate(37.7958 21.3911) rotate(125.763) scale(33.1396)">
<stop stop-color="#FFC85E"/>
<stop offset="0.5" stop-color="#FFB84E"/>
<stop offset="1" stop-color="#FFA800"/>
</radialGradient>
<linearGradient id="paint1_linear_63_95" x1="24.751" y1="40.6568" x2="25.4535" y2="36.1877" gradientUnits="userSpaceOnUse">
<stop stop-color="#BD000B"/>
<stop offset="1" stop-color="#FA6F0B"/>
</linearGradient>
<radialGradient id="paint2_radial_63_95" cx="0" cy="0" r="1" gradientUnits="userSpaceOnUse" gradientTransform="translate(41.4586 36.2771) rotate(90) scale(4.00162 6.56266)">
<stop stop-color="#FF7A00"/>
<stop offset="0.64" stop-color="#FF873E" stop-opacity="0.5"/>
<stop offset="1" stop-color="#FF947D" stop-opacity="0"/>
</radialGradient>
<radialGradient id="paint3_radial_63_95" cx="0" cy="0" r="1" gradientUnits="userSpaceOnUse" gradientTransform="translate(13.7579 36.227) rotate(90) scale(4.00162 6.56266)">
<stop stop-color="#FF7A00"/>
<stop offset="0.64" stop-color="#FF873E" stop-opacity="0.5"/>
<stop offset="1" stop-color="#FF947D" stop-opacity="0"/>
</radialGradient>
</defs>
</svg>
