<svg width="59" height="59" viewBox="0 0 59 59" fill="none" xmlns="http://www.w3.org/2000/svg">
<g filter="url(#filter0_d_95_716)">
<path fill-rule="evenodd" clip-rule="evenodd" d="M50.4143 13.0519L52.2631 16.599L50.0462 17.7545L52.2631 16.599C52.6339 17.3105 52.7359 18.0891 52.6069 18.8205C54.1113 22.0706 54.9499 25.6903 54.9499 29.5C54.9499 30.0758 54.9308 30.6472 54.8932 31.2135L31.2134 54.8932C30.6471 54.9308 30.0758 54.95 29.4999 54.95C15.4443 54.95 4.04992 43.5556 4.04993 29.5C4.04993 15.4443 15.4443 4.04996 29.4999 4.04996C36.3572 4.04996 42.5835 6.76472 47.1576 11.1721C48.4731 11.1155 49.7655 11.8071 50.4143 13.0519L48.2322 14.1893L50.4143 13.0519Z" fill="white"/>
</g>
<path fill-rule="evenodd" clip-rule="evenodd" d="M29.4999 6.54996C16.825 6.54996 6.54993 16.825 6.54993 29.5C6.54993 42.1749 16.825 52.45 29.4999 52.45C31.0833 52.45 32.6292 52.2896 34.1223 51.9843L51.9843 34.1223C52.2896 32.6292 52.45 31.0833 52.45 29.5C52.45 16.825 42.1749 6.54996 29.4999 6.54996Z" fill="url(#paint0_radial_95_716)"/>
<path d="M24 42C24 40.3431 26.4624 39 29.5 39C32.5376 39 35 40.3431 35 42C35 43.6569 34.56 45 29.5 45C24 45 24 43.6569 24 42Z" fill="url(#paint1_linear_95_716)"/>
<path fill-rule="evenodd" clip-rule="evenodd" d="M42.4346 34.9405C42.1407 34.166 41.2745 33.7764 40.5 34.0703C40.0371 34.246 39.1945 34.4403 38.3218 34.3957C37.4597 34.3515 36.7251 34.0876 36.2135 33.527C35.6552 32.915 34.7064 32.8716 34.0944 33.43C33.4825 33.9883 33.439 34.9371 33.9974 35.5491C35.2122 36.8805 36.8127 37.3223 38.1684 37.3917C39.5135 37.4606 40.771 37.1762 41.5644 36.8751C42.339 36.5812 42.7286 35.715 42.4346 34.9405Z" fill="black"/>
<path fill-rule="evenodd" clip-rule="evenodd" d="M16.5976 34.9405C16.8916 34.166 17.7577 33.7764 18.5323 34.0703C18.9951 34.246 19.8378 34.4403 20.7104 34.3957C21.5725 34.3515 22.3072 34.0876 22.8187 33.527C23.3771 32.915 24.3258 32.8716 24.9378 33.43C25.5498 33.9883 25.5932 34.9371 25.0348 35.5491C23.82 36.8805 22.2195 37.3223 20.8638 37.3917C19.5188 37.4606 18.2612 37.1762 17.4678 36.8751C16.6933 36.5812 16.3037 35.715 16.5976 34.9405Z" fill="black"/>
<rect x="34.5464" y="26.9609" width="6" height="18" rx="1" transform="rotate(-117.529 34.5464 26.9609)" fill="url(#paint2_linear_95_716)"/>
<rect x="34.3207" y="13.5464" width="6" height="18" rx="1" transform="rotate(-27.5291 34.3207 13.5464)" fill="url(#paint3_linear_95_716)"/>
<g filter="url(#filter1_d_95_716)">
<path fill-rule="evenodd" clip-rule="evenodd" d="M31.2728 54.842C31.7964 48.9836 34.3003 43.2689 38.7846 38.7846C43.2688 34.3003 48.9836 31.7964 54.842 31.2728L31.2728 54.842Z" fill="white"/>
</g>
<defs>
<filter id="filter0_d_95_716" x="0.0499268" y="0.0499573" width="58.9" height="58.9" filterUnits="userSpaceOnUse" color-interpolation-filters="sRGB">
<feFlood flood-opacity="0" result="BackgroundImageFix"/>
<feColorMatrix in="SourceAlpha" type="matrix" values="0 0 0 0 0 0 0 0 0 0 0 0 0 0 0 0 0 0 127 0" result="hardAlpha"/>
<feOffset/>
<feGaussianBlur stdDeviation="2"/>
<feComposite in2="hardAlpha" operator="out"/>
<feColorMatrix type="matrix" values="0 0 0 0 0 0 0 0 0 0 0 0 0 0 0 0 0 0 0.6 0"/>
<feBlend mode="normal" in2="BackgroundImageFix" result="effect1_dropShadow_95_716"/>
<feBlend mode="normal" in="SourceGraphic" in2="effect1_dropShadow_95_716" result="shape"/>
</filter>
<filter id="filter1_d_95_716" x="24.2728" y="27.2728" width="31.5692" height="31.5691" filterUnits="userSpaceOnUse" color-interpolation-filters="sRGB">
<feFlood flood-opacity="0" result="BackgroundImageFix"/>
<feColorMatrix in="SourceAlpha" type="matrix" values="0 0 0 0 0 0 0 0 0 0 0 0 0 0 0 0 0 0 127 0" result="hardAlpha"/>
<feOffset dx="-3"/>
<feGaussianBlur stdDeviation="2"/>
<feComposite in2="hardAlpha" operator="out"/>
<feColorMatrix type="matrix" values="0 0 0 0 0.264323 0 0 0 0 0.264323 0 0 0 0 0.264323 0 0 0 0.17 0"/>
<feBlend mode="normal" in2="BackgroundImageFix" result="effect1_dropShadow_95_716"/>
<feBlend mode="normal" in="SourceGraphic" in2="effect1_dropShadow_95_716" result="shape"/>
</filter>
<radialGradient id="paint0_radial_95_716" cx="0" cy="0" r="1" gradientUnits="userSpaceOnUse" gradientTransform="translate(31.0001 57.5) rotate(-91.3322) scale(43.0116 43.0116)">
<stop stop-color="#C1C0B7"/>
<stop offset="0.798204" stop-color="#B2AEA0"/>
<stop offset="1" stop-color="#A29B8C"/>
</radialGradient>
<linearGradient id="paint1_linear_95_716" x1="31.92" y1="40.7692" x2="30.7286" y2="45.4957" gradientUnits="userSpaceOnUse">
<stop stop-color="#E86161"/>
<stop offset="1" stop-color="#BD7768"/>
</linearGradient>
<linearGradient id="paint2_linear_95_716" x1="37.5464" y1="26.9609" x2="37.5464" y2="44.9609" gradientUnits="userSpaceOnUse">
<stop stop-color="#ECECEC"/>
<stop offset="1" stop-color="#DDDDDD"/>
</linearGradient>
<linearGradient id="paint3_linear_95_716" x1="37.3207" y1="13.5464" x2="37.3207" y2="31.5464" gradientUnits="userSpaceOnUse">
<stop stop-color="#ECECEC"/>
<stop offset="1" stop-color="#F4F4F4"/>
</linearGradient>
</defs>
</svg>
