<svg width="62" height="59" viewBox="0 0 62 59" fill="none" xmlns="http://www.w3.org/2000/svg">
<g filter="url(#filter0_d_135_188)">
<path fill-rule="evenodd" clip-rule="evenodd" d="M29.45 52.4C42.1249 52.4 52.4 42.1249 52.4 29.45C52.4 26.7477 51.9329 24.1544 51.0751 21.7466C51.6036 21.6578 52.0671 21.2881 52.2498 20.7447L54.4413 14.2242C54.7053 13.439 54.2826 12.5884 53.4974 12.3245C52.7121 12.0606 51.8616 12.4832 51.5977 13.2685L49.7564 18.7466C48.9924 17.3001 48.0784 15.9451 47.0351 14.7024L47.2631 8.98699C47.2838 8.15882 46.6292 7.4707 45.801 7.45004C44.9729 7.42937 44.2847 8.08398 44.2641 8.91215L44.1479 11.8233C40.1665 8.49984 35.0418 6.5 29.45 6.5C16.7751 6.5 6.5 16.7751 6.5 29.45C6.5 42.1249 16.7751 52.4 29.45 52.4Z" fill="white"/>
</g>
<g filter="url(#filter1_d_135_188)">
<path fill-rule="evenodd" clip-rule="evenodd" d="M49.7564 18.7466L51.5977 13.2685C51.8616 12.4832 52.7121 12.0606 53.4974 12.3245C54.2826 12.5884 54.7053 13.439 54.4413 14.2242L52.2498 20.7447C52.1275 21.1083 51.8795 21.3942 51.5705 21.5701C51.5216 21.5979 51.4713 21.623 51.4196 21.6452C51.3097 21.6924 51.1941 21.7266 51.0751 21.7466C51.1291 21.8979 51.1814 22.05 51.2322 22.2027C51.4442 22.8401 51.6289 23.4899 51.7851 24.1507C52.1872 25.8518 52.4 27.6261 52.4 29.45C52.4 42.1249 42.1249 52.4 29.45 52.4C16.7751 52.4 6.5 42.1249 6.5 29.45C6.5 16.7751 16.7751 6.5 29.45 6.5C33.9613 6.5 38.1685 7.80164 41.7167 10.0498C42.5665 10.5883 43.3786 11.1811 44.1479 11.8233L44.2641 8.91215C44.2653 8.86135 44.2691 8.8112 44.2753 8.76183C44.3697 8.00622 45.0237 7.43064 45.801 7.45004C46.6292 7.4707 47.2838 8.15882 47.2631 8.98699L47.0351 14.7024C47.3863 15.1207 47.7228 15.5517 48.0439 15.9947C48.6767 16.8677 49.2496 17.787 49.7564 18.7466ZM49.662 11.5703C50.6314 10.0723 52.5248 9.36018 54.2939 9.95479C56.3879 10.6586 57.5149 12.9267 56.8111 15.0207L54.6195 21.5412C54.4738 21.9747 54.261 22.3665 53.997 22.709C54.586 24.8582 54.9 27.1191 54.9 29.45C54.9 43.5056 43.5056 54.9 29.45 54.9C15.3944 54.9 4 43.5056 4 29.45C4 15.3944 15.3944 4 29.45 4C34.0497 4 38.3676 5.222 42.0928 7.35795C42.7224 5.90705 44.1851 4.90893 45.8634 4.95081C48.0719 5.00593 49.8175 6.84091 49.7624 9.04936L49.7619 9.06802L49.662 11.5703Z" fill="white"/>
</g>
<circle cx="29.45" cy="29.45" r="22.95" fill="url(#paint0_radial_135_188)"/>
<circle cx="22.4812" cy="20.1375" r="3.1875" fill="url(#paint1_linear_135_188)"/>
<circle cx="38.7377" cy="20.1375" r="3.1875" fill="url(#paint2_linear_135_188)"/>
<path d="M35.9501 29.7812C35.9501 32.5427 35.9501 34.7812 30.9501 34.7812C25.9501 34.7812 25.9501 32.5427 25.9501 29.7812C25.9501 24.2812 28.7069 22.7812 30.9501 22.7812C33.7069 22.7812 35.9501 24.2812 35.9501 29.7812Z" fill="url(#paint3_linear_135_188)"/>
<ellipse cx="42.3155" cy="27.1593" rx="6.53437" ry="3.98438" fill="url(#paint4_radial_135_188)"/>
<ellipse cx="18.9032" cy="26.9344" rx="6.53437" ry="3.98438" fill="url(#paint5_radial_135_188)"/>
<path fill-rule="evenodd" clip-rule="evenodd" d="M45.801 7.45004C46.6292 7.4707 47.2838 8.15882 47.2631 8.98699L47 15.581C46.9793 16.4092 46.2912 17.0638 45.463 17.0431C44.6349 17.0225 43.9803 16.3343 44.0009 15.5062L44.2641 8.91215C44.2847 8.08398 44.9729 7.42937 45.801 7.45004Z" fill="#E86E6E"/>
<path fill-rule="evenodd" clip-rule="evenodd" d="M53.4974 12.3245C54.2826 12.5885 54.7053 13.439 54.4413 14.2242L52.2498 20.7447C51.9858 21.53 51.1353 21.9526 50.35 21.6886C49.5648 21.4247 49.1422 20.5742 49.4061 19.7889L51.5977 13.2685C51.8616 12.4832 52.7121 12.0606 53.4974 12.3245Z" fill="#E86E6E"/>
<path fill-rule="evenodd" clip-rule="evenodd" d="M49.7859 21.9302C50.5711 22.1941 50.9938 23.0446 50.7298 23.8299L50.3582 24.7857C50.0943 25.5709 49.2437 25.9935 48.4585 25.7296C47.6732 25.4657 47.2506 24.6151 47.5145 23.8299L47.8861 22.8741C48.1501 22.0888 49.0006 21.6662 49.7859 21.9302Z" fill="#E86E6E"/>
<path fill-rule="evenodd" clip-rule="evenodd" d="M45.5885 18.1358C46.4169 18.1358 47.0885 18.8074 47.0885 19.6358V20.6358C47.0885 21.4643 46.4169 22.1358 45.5885 22.1358C44.76 22.1358 44.0885 21.4643 44.0885 20.6358V19.6358C44.0885 18.8074 44.76 18.1358 45.5885 18.1358Z" fill="#E86E6E"/>
<defs>
<filter id="filter0_d_135_188" x="2.5" y="2.5" width="56.0199" height="53.9" filterUnits="userSpaceOnUse" color-interpolation-filters="sRGB">
<feFlood flood-opacity="0" result="BackgroundImageFix"/>
<feColorMatrix in="SourceAlpha" type="matrix" values="0 0 0 0 0 0 0 0 0 0 0 0 0 0 0 0 0 0 127 0" result="hardAlpha"/>
<feOffset/>
<feGaussianBlur stdDeviation="2"/>
<feComposite in2="hardAlpha" operator="out"/>
<feColorMatrix type="matrix" values="0 0 0 0 0 0 0 0 0 0 0 0 0 0 0 0 0 0 0.25 0"/>
<feBlend mode="normal" in2="BackgroundImageFix" result="effect1_dropShadow_135_188"/>
<feBlend mode="normal" in="SourceGraphic" in2="effect1_dropShadow_135_188" result="shape"/>
</filter>
<filter id="filter1_d_135_188" x="0" y="0" width="61.0206" height="58.9" filterUnits="userSpaceOnUse" color-interpolation-filters="sRGB">
<feFlood flood-opacity="0" result="BackgroundImageFix"/>
<feColorMatrix in="SourceAlpha" type="matrix" values="0 0 0 0 0 0 0 0 0 0 0 0 0 0 0 0 0 0 127 0" result="hardAlpha"/>
<feOffset/>
<feGaussianBlur stdDeviation="2"/>
<feComposite in2="hardAlpha" operator="out"/>
<feColorMatrix type="matrix" values="0 0 0 0 0 0 0 0 0 0 0 0 0 0 0 0 0 0 0.6 0"/>
<feBlend mode="normal" in2="BackgroundImageFix" result="effect1_dropShadow_135_188"/>
<feBlend mode="normal" in="SourceGraphic" in2="effect1_dropShadow_135_188" result="shape"/>
</filter>
<radialGradient id="paint0_radial_135_188" cx="0" cy="0" r="1" gradientUnits="userSpaceOnUse" gradientTransform="translate(37.4188 21.1625) rotate(125.763) scale(32.9968)">
<stop stop-color="#B2FEEC"/>
<stop offset="0.798204" stop-color="#87F1E5"/>
<stop offset="1" stop-color="#8FF1D9"/>
</radialGradient>
<linearGradient id="paint1_linear_135_188" x1="19.7491" y1="22.05" x2="23.3431" y2="16.9158" gradientUnits="userSpaceOnUse">
<stop/>
<stop offset="1" stop-color="#2E2E2E"/>
</linearGradient>
<linearGradient id="paint2_linear_135_188" x1="36.0056" y1="22.05" x2="39.5995" y2="16.9158" gradientUnits="userSpaceOnUse">
<stop/>
<stop offset="1" stop-color="#2E2E2E"/>
</linearGradient>
<linearGradient id="paint3_linear_135_188" x1="28.7501" y1="31.8325" x2="31.9405" y2="24.9289" gradientUnits="userSpaceOnUse">
<stop stop-color="#FF7D7D"/>
<stop offset="1" stop-color="#FFA47D"/>
</linearGradient>
<radialGradient id="paint4_radial_135_188" cx="0" cy="0" r="1" gradientUnits="userSpaceOnUse" gradientTransform="translate(42.3155 27.1593) rotate(90) scale(3.98438 6.53437)">
<stop stop-color="#FF8D7D" stop-opacity="0.8"/>
<stop offset="1" stop-color="#FFA47D" stop-opacity="0"/>
</radialGradient>
<radialGradient id="paint5_radial_135_188" cx="0" cy="0" r="1" gradientUnits="userSpaceOnUse" gradientTransform="translate(18.9032 26.9344) rotate(90) scale(3.98438 6.53437)">
<stop stop-color="#FF8D7D" stop-opacity="0.8"/>
<stop offset="1" stop-color="#FFA47D" stop-opacity="0"/>
</radialGradient>
</defs>
</svg>
