<svg width="65" height="61" viewBox="0 0 65 61" fill="none" xmlns="http://www.w3.org/2000/svg">
<g filter="url(#filter0_d_155_77)">
<path d="M45.5 4C46.9042 4 48.1624 4.25648 49.2289 4.72685C49.9125 4.57953 50.6678 4.5 51.5 4.5C56.3347 4.5 58.8319 6.96269 58.9918 10.6206C59.519 11.5672 59.8381 12.705 60 14C60.3943 16.7602 57.9899 20.1424 54.7486 21.6941C55.8159 24.4157 56.4289 27.3654 56.4942 30.4499L30.4499 56.4942C22.8559 56.3335 16.0786 52.853 11.511 47.4456C7.06774 46.9501 4 43.1341 4 38.5C4 36.4742 4.58628 34.7708 5.61747 33.4635C5.53975 32.6528 5.5 31.831 5.5 31C5.5 16.9167 16.9167 5.5 31 5.5C34.0382 5.5 36.9523 6.03134 39.6545 7.00616C41.2255 5.24438 43.4324 4 45.5 4Z" fill="white"/>
</g>
<path fill-rule="evenodd" clip-rule="evenodd" d="M53.4038 33.3561C53.5019 32.499 53.5523 31.6274 53.5523 30.744C53.5523 18.1869 43.3727 8.00732 30.8156 8.00732C18.2584 8.00732 8.07886 18.1869 8.07886 30.744C8.07886 43.3012 18.2584 53.4807 30.8156 53.4807C31.6989 53.4807 32.5705 53.4304 33.4277 53.3323L53.4038 33.3561Z" fill="url(#paint0_radial_155_77)"/>
<path fill-rule="evenodd" clip-rule="evenodd" d="M52.7724 33.9876C51.6478 32.9541 50.1475 32.3231 48.4998 32.3231H12.8158C9.32766 32.3231 6.5 35.1507 6.5 38.6388C6.5 42.1269 9.32765 44.9546 12.8157 44.9546H41.8054L52.7724 33.9876Z" fill="black"/>
<path d="M42.6994 24.0471C43.8506 26.0409 43.1674 28.5905 41.1736 29.7416C39.1797 30.8928 36.6302 30.2096 35.479 28.2158C34.3279 26.2219 36.2616 25.8385 38.2555 24.6873C40.2493 23.5362 41.5482 22.0532 42.6994 24.0471Z" fill="url(#paint1_linear_155_77)"/>
<path d="M19.0054 23.7314C17.8543 25.7252 18.5374 28.2748 20.5313 29.4259C22.5251 30.5771 25.0747 29.8939 26.2258 27.9001C27.377 25.9062 25.4432 25.5228 23.4494 24.3716C21.4555 23.2205 20.1566 21.7375 19.0054 23.7314Z" fill="url(#paint2_linear_155_77)"/>
<path fill-rule="evenodd" clip-rule="evenodd" d="M48.4142 7.52118C48.8233 7.37094 49.2512 7.25301 49.6995 7.17151C51.2367 6.89204 53.3648 6.72915 54.9138 7.78426C55.9917 8.5185 56.1264 9.66081 55.9176 10.6868C55.8757 10.8928 55.8195 11.0985 55.7527 11.3013C56.3256 11.6546 56.8132 12.203 57.1784 12.9646C57.709 14.0714 57.5234 15.1575 57.0545 16.0792C56.5914 16.9895 55.839 17.7727 55.1556 18.3481C54.4262 18.9624 53.6182 19.3874 52.7705 19.6597C52.3028 21.1132 51.3885 22.4527 50.1935 23.2507C48.8417 24.1533 46.9503 24.5015 45.3798 24.1137C44.0052 23.7742 43.2894 22.4561 43.3968 21.1346C42.7556 21.3254 42.0654 21.37 41.3469 21.1666C41.0933 21.0948 40.8868 20.9454 40.7637 20.7206C40.6487 20.5107 40.6351 20.287 40.651 20.1077C40.6821 19.7586 40.8415 19.4101 40.947 19.2058C41.1803 18.7542 41.4886 18.3663 41.8396 18.0355C41.0019 17.6091 40.2541 16.9457 39.9556 15.8876C39.4841 15.3149 39.1842 14.5831 39.1842 13.653C39.1842 12.1299 39.9131 10.6441 40.9024 9.44789C41.8931 8.24991 43.19 7.2868 44.418 6.82617C45.6864 6.35039 47.3186 6.58424 48.4142 7.52118ZM40.3492 12.32C40.5998 11.5293 41.0528 10.7526 41.6324 10.0516C42.5358 8.95932 43.7021 8.10651 44.7507 7.71318C45.5814 7.40161 46.6218 7.49986 47.4159 7.96916C46.7673 8.31539 46.1702 8.7464 45.6169 9.24153C44.8617 9.37575 44.2318 9.81253 43.8017 10.4108C43.6597 10.6084 43.5391 10.8235 43.442 11.0518C43.4358 11.0512 43.4297 11.0506 43.4237 11.05C43.1562 11.026 42.8427 11.0527 42.5554 11.0954C42.2621 11.139 41.9678 11.2036 41.7279 11.2687C41.608 11.3013 41.4973 11.3351 41.4043 11.3681C41.3237 11.3967 41.2187 11.4374 41.1363 11.4906C40.8023 11.7063 40.5448 11.995 40.3492 12.32ZM42.8338 18.4338C42.4019 18.7619 42.0357 19.1624 41.7887 19.6406C41.6932 19.8255 41.6085 20.0363 41.5947 20.1915C41.5922 20.2197 41.5927 20.2391 41.5939 20.2516C41.597 20.2527 41.6007 20.2538 41.6049 20.255C42.2424 20.4355 42.8714 20.3539 43.4897 20.0973C43.346 19.8779 43.2841 19.6041 43.319 19.2894C43.3451 19.0533 43.394 18.8247 43.4626 18.604C43.4034 18.59 43.3445 18.5756 43.286 18.5609C43.1383 18.5236 42.9869 18.4815 42.8338 18.4338ZM44.4887 20.6581C44.4756 20.6655 44.4625 20.673 44.4494 20.6803C44.0698 21.8157 44.6276 22.9521 45.607 23.1939C46.9118 23.5162 48.5308 23.2217 49.6674 22.4628C50.5176 21.8951 51.2193 20.9721 51.6611 19.9287C51.5606 19.9457 51.4598 19.9609 51.3588 19.9744C51.276 20.1025 51.1627 20.2216 51.0117 20.325C50.6051 20.6034 50.1149 20.5576 49.758 20.4598C49.3852 20.3577 49.0321 20.1665 48.7923 19.9845C48.7886 19.9817 48.7848 19.9789 48.7811 19.976C48.3171 19.922 47.8335 19.8392 47.3479 19.7234C46.6282 20.4356 45.6375 20.7772 44.6453 20.678C44.5953 20.673 44.5428 20.6665 44.4887 20.6581ZM50.5845 19.0955C50.3668 19.1071 50.1473 19.1105 49.9267 19.1063C49.6869 19.1018 49.4346 19.0881 49.1741 19.0644C48.9776 18.8697 48.833 18.64 48.7351 18.3825C49.0139 18.2661 49.33 18.1084 49.6572 17.916C49.7984 18.0062 49.9378 18.1112 50.0748 18.2321C50.2432 18.3806 50.4654 18.6954 50.5614 19.0099C50.5705 19.04 50.5782 19.0685 50.5845 19.0955ZM51.528 18.9905C51.6879 18.9629 51.8463 18.9302 52.0031 18.8921C52.094 18.513 52.1495 18.1285 52.1651 17.7484C52.1921 17.0904 51.9739 16.6296 51.6274 16.3015C51.6066 16.3264 51.5856 16.3511 51.5645 16.3755C51.2536 16.7344 50.8846 17.0642 50.5002 17.354C50.5678 17.407 50.6348 17.4628 50.7014 17.5215C50.9981 17.7831 51.3191 18.247 51.4675 18.7335C51.4922 18.8144 51.5131 18.9008 51.528 18.9905ZM52.3832 15.7182C52.8608 16.2218 53.1476 16.9094 53.1117 17.7872C53.1013 18.0405 53.0757 18.2958 53.0356 18.5508C53.5719 18.3218 54.079 18.0162 54.5454 17.6235C55.1804 17.0888 55.8277 16.4014 56.2101 15.6496C56.5867 14.9094 56.6923 14.1422 56.3241 13.3741C56.0618 12.8269 55.74 12.4483 55.3879 12.196C55.1699 12.6486 54.9228 13.0615 54.6977 13.3984C54.0688 14.3399 53.2724 15.1064 52.3832 15.7182ZM54.878 10.9267C54.9227 10.7833 54.9603 10.6399 54.9892 10.4979C55.1576 9.67037 55.0175 9.00116 54.3805 8.56723C53.1734 7.74503 51.3954 7.82607 49.8689 8.1036C49.5964 8.15315 49.3316 8.21823 49.0742 8.29793C49.4667 8.9739 49.5739 9.79859 49.5263 10.5746C49.6825 10.7439 49.821 10.9331 49.9349 11.1441C50.2739 11.3519 50.5947 11.5799 50.8865 11.8159C51.5084 11.4159 52.189 11.1062 52.8759 10.9414C53.5378 10.7826 54.2253 10.7539 54.878 10.9267ZM51.6129 12.4808C52.0888 12.1998 52.5946 11.9831 53.097 11.8626C53.5991 11.7421 54.081 11.7214 54.5198 11.8149C54.3317 12.2011 54.1159 12.5639 53.91 12.8721C53.5002 13.4856 53.0063 14.0194 52.4529 14.4789C52.4952 13.8748 52.3007 13.2683 51.8152 12.7038C51.7517 12.63 51.6842 12.5556 51.6129 12.4808ZM50.2729 13.5199C50.444 13.3484 50.6282 13.1833 50.8225 13.0275C50.9222 13.1268 51.0141 13.2252 51.0969 13.3215C51.4643 13.7487 51.5512 14.1485 51.496 14.522C51.4725 14.6807 51.4219 14.8432 51.3464 15.0079C50.9157 14.8195 50.4483 14.7096 49.9905 14.6602C50.1169 14.298 50.2163 13.9123 50.2729 13.5199ZM49.2691 12.0058C49.3675 12.3397 49.3963 12.7102 49.3669 13.0984C49.1809 13.3035 49.0114 13.515 48.8618 13.7294C48.6581 14.0213 48.4606 14.362 48.2855 14.7333C48.2176 14.5118 48.1371 14.2957 48.045 14.0874C48.3242 13.8381 48.5623 13.5574 48.7372 13.2589C48.948 12.8991 49.1314 12.4691 49.2691 12.0058ZM46.3813 10.1633C46.3685 10.1617 46.3558 10.1603 46.3431 10.1588C46.2366 10.1469 46.1326 10.1433 46.0314 10.1476C45.9893 10.1875 45.9475 10.2279 45.9058 10.2687C46.0616 10.2203 46.2204 10.1856 46.3813 10.1633ZM42.2419 12.1174C42.1477 12.1385 42.0579 12.1608 41.9761 12.183C41.8724 12.2111 41.7856 12.2381 41.7211 12.2609C41.6646 12.281 41.6428 12.2919 41.6426 12.2915C41.3787 12.4645 41.1708 12.7363 41.0211 13.081C41.3444 12.6816 41.7621 12.3485 42.2419 12.1174ZM46.0259 19.5116C46.0978 19.4772 46.1681 19.4392 46.2367 19.3976C46.2158 19.3902 46.1949 19.3828 46.1741 19.3753C46.1254 19.4208 46.0759 19.4663 46.0259 19.5116ZM50.4888 15.7112C50.2299 15.8323 49.9659 15.9425 49.6983 16.0422C49.6678 15.9008 49.6059 15.7836 49.5287 15.6873C49.5491 15.6519 49.5691 15.6162 49.5886 15.5802C49.6152 15.5811 49.6416 15.5823 49.6676 15.5838C49.9499 15.6002 50.2275 15.6425 50.4888 15.7112ZM47.3869 15.0312C47.3477 14.9014 47.3033 14.7737 47.2539 14.6487C46.8522 14.8727 46.4181 15.0343 45.9902 15.1099C45.4377 15.2074 44.8492 15.1694 44.3396 14.8874C44.1033 14.7566 43.8969 14.5804 43.7255 14.3602C43.541 15.0591 43.6369 15.5041 43.8252 15.7972C44.0171 16.0959 44.3597 16.3227 44.8403 16.4721C44.8603 16.4295 44.8817 16.387 44.9046 16.3444C45.4182 15.3891 46.3267 15.1566 47.1333 15.1272C47.2176 15.0936 47.3022 15.0616 47.3869 15.0312ZM44.1953 13.1809C44.3211 13.663 44.5505 13.9213 44.7984 14.0585C45.0645 14.2058 45.4171 14.249 45.8255 14.1769C46.1607 14.1178 46.5022 13.9865 46.8157 13.8084C46.2715 13.0007 45.449 12.6402 44.5406 12.6084C44.4155 12.7916 44.2999 12.9837 44.1953 13.1809ZM42.8319 12.8927C42.1409 13.1643 41.6091 13.712 41.3796 14.3365C41.1889 14.8552 41.2011 15.4383 41.5265 15.991C41.6829 16.0848 41.8494 16.1708 42.0245 16.25C42.1898 16.3248 42.3611 16.3924 42.5364 16.4537C42.1212 15.5337 42.2382 14.518 42.5385 13.6241C42.6222 13.3748 42.7218 13.13 42.8319 12.8927ZM47.5856 16.0767C47.5636 16.0761 47.5427 16.0755 47.5234 16.0748C47.4571 16.0724 47.3922 16.0711 47.3287 16.071C46.9904 16.215 46.6546 16.3891 46.3345 16.5911C46.4589 16.6117 46.5821 16.6375 46.7034 16.6685C46.9276 16.6602 47.1496 16.643 47.3639 16.6191C47.4453 16.5645 47.5248 16.5076 47.6023 16.4486C47.6015 16.3248 47.5958 16.2006 47.5856 16.0767ZM45.2794 11.7432C46.1528 11.9144 46.9698 12.3683 47.5693 13.2321C47.7093 13.0882 47.8286 12.9357 47.9198 12.78C48.1335 12.4153 48.3194 11.9452 48.4408 11.4384C47.3971 11.0062 46.4286 10.937 45.7446 11.3801C45.5847 11.4836 45.4291 11.6059 45.2794 11.7432ZM47.0433 9.31192C47.4037 9.05693 47.7802 8.83426 48.1748 8.64795C48.3974 8.96914 48.5273 9.38285 48.5719 9.85019C48.5018 9.81241 48.431 9.7767 48.3599 9.74298C47.9316 9.53983 47.4758 9.40092 47.0433 9.31192Z" fill="black"/>
<path d="M40.2549 38.8483V38.2562L43.7335 36.5687V37.3755L41.1949 38.5301V38.5745L43.7335 39.7291V40.5284L40.2549 38.8483Z" fill="white"/>
<path d="M36.9098 41.2391C35.8329 41.2391 35.1705 40.6026 35.1705 39.7441C35.1705 39.1002 35.5923 38.7079 36.2066 38.2897C35.8662 37.8753 35.6182 37.4978 35.6145 37.0204C35.6182 36.2766 36.1511 35.7474 36.969 35.7474C37.7942 35.7474 38.3012 36.2877 38.3012 36.9168C38.3012 37.4275 38.0348 37.8013 37.5907 38.1232L37.2206 38.3934L38.2938 39.6738C38.4307 39.4073 38.5158 39.0891 38.5158 38.7301H39.2264C39.2264 39.4739 39.0117 39.9513 38.7786 40.2548L39.5446 41.1651H38.6565L38.2938 40.7396C37.9274 41.08 37.3946 41.2391 36.9098 41.2391ZM35.9624 39.7219C35.9587 40.1808 36.3362 40.573 36.9172 40.573C37.2428 40.573 37.5759 40.4472 37.8497 40.2215L36.6507 38.8152L36.5175 38.9151C36.0956 39.226 35.9587 39.5517 35.9624 39.7219ZM36.3547 37.0278C36.3547 37.3017 36.5471 37.5755 36.7913 37.8753L37.117 37.6421C37.4094 37.4497 37.5833 37.2536 37.5833 36.939C37.5833 36.6874 37.3464 36.4061 36.9838 36.4061C36.6137 36.4098 36.3547 36.7207 36.3547 37.0278Z" fill="white"/>
<path d="M29.7899 38.3526C29.0572 38.36 28.6575 37.816 28.6649 37.0204C28.6575 36.2358 29.0757 35.6918 29.7899 35.6955C30.5263 35.6918 30.9112 36.2358 30.9149 37.0204C30.9112 37.8197 30.5115 38.36 29.7899 38.3526ZM29.2718 41.1651L32.9502 35.8066H33.6237L29.9453 41.1651H29.2718ZM29.2718 37.0204C29.2755 37.5126 29.4457 37.8308 29.7899 37.8345C30.1377 37.8308 30.3006 37.5126 30.3006 37.0204C30.3006 36.5393 30.1489 36.2099 29.7899 36.2136C29.4457 36.221 29.2755 36.543 29.2718 37.0204ZM32.0473 39.9439C32.0436 39.1519 32.458 38.6079 33.1723 38.6116C33.905 38.6079 34.2936 39.1519 34.2973 39.9439C34.2936 40.7358 33.8939 41.2761 33.1723 41.2761C32.4432 41.2761 32.0436 40.7321 32.0473 39.9439ZM32.6542 39.9439C32.6579 40.4287 32.8281 40.7506 33.1723 40.7506C33.5201 40.7506 33.683 40.4287 33.683 39.9439C33.683 39.4554 33.5312 39.1297 33.1723 39.1297C32.8318 39.1371 32.6579 39.4591 32.6542 39.9439Z" fill="white"/>
<path d="M24.5496 40.018C23.8354 40.018 23.3025 39.4481 23.2988 38.4786C23.3025 37.5053 23.8539 36.9465 24.5496 36.9465C25.0603 36.9465 25.286 37.2647 25.3785 37.4498H25.4155V37.0057H26.0594V39.0781C26.0706 39.3482 26.1779 39.4814 26.3999 39.4777C26.8181 39.4814 27.0919 38.9966 27.0956 38.2787C27.103 36.9391 26.1446 36.0583 24.7642 36.0583C23.3395 36.062 22.4291 37.1278 22.4254 38.4786C22.4254 39.9477 23.2211 40.9173 24.7346 40.9062C25.2564 40.9025 25.6265 40.8618 26.0594 40.7433V41.3354C25.6709 41.4465 25.2231 41.5131 24.7346 41.5131C22.9028 41.5131 21.8037 40.3437 21.8037 38.4786C21.8 36.7282 23.0286 35.4514 24.7642 35.4514C26.5183 35.4514 27.721 36.6504 27.7173 38.2565C27.7173 39.3926 27.1363 40.0513 26.3481 40.0476C25.867 40.0476 25.5081 39.8034 25.4525 39.4629H25.4155C25.323 39.6517 25.0862 40.018 24.5496 40.018ZM23.9945 38.4711C23.9908 39.0077 24.2498 39.4074 24.7124 39.4111C25.1824 39.4074 25.4266 39.0373 25.4303 38.4711C25.4266 37.9198 25.1861 37.5571 24.7124 37.5534C24.2461 37.5571 23.9908 37.9494 23.9945 38.4711Z" fill="white"/>
<path d="M20.8269 35.8068L20.7603 39.6185H20.0275L19.9609 35.8068H20.8269ZM19.8721 40.6917C19.8684 40.403 20.109 40.1662 20.3976 40.1662C20.6826 40.1662 20.9194 40.403 20.9231 40.6917C20.9194 40.9803 20.6826 41.2134 20.3976 41.2171C20.109 41.2134 19.8684 40.9803 19.8721 40.6917Z" fill="white"/>
<path d="M17.2445 41.1653L17.4813 39.7295H16.2305L15.9937 41.1653H15.3572L15.594 39.7295H14.8243L14.9205 39.1004H15.6976L15.8975 37.8718H15.1351L15.2313 37.2353H16.0048L16.2379 35.8068H16.8744L16.6413 37.2353H17.8921L18.1252 35.8068H18.7544L18.5212 37.2353H19.302L19.1984 37.8718H18.4176L18.2178 39.1004H18.9912L18.8802 39.7295H18.1141L17.881 41.1653H17.2445ZM16.3341 39.1004H17.585L17.7848 37.8718H16.534L16.3341 39.1004Z" fill="white"/>
<path d="M12.2265 41.8385V41.2464C11.1533 41.1798 10.4835 40.5951 10.4354 39.6773H11.2496C11.2903 40.1954 11.701 40.4693 12.2265 40.5322V38.7596L11.9749 38.693C11.1126 38.4561 10.5797 38.0194 10.576 37.2719C10.5797 36.4208 11.2718 35.8361 12.2265 35.7436V35.1329H12.6558V35.7362C13.6513 35.7991 14.3322 36.3986 14.3581 37.2201H13.5662C13.5218 36.776 13.1665 36.4985 12.6558 36.4467V38.112L12.8852 38.1749C13.5699 38.3414 14.4284 38.7152 14.4321 39.6847C14.4284 40.5396 13.7882 41.1761 12.6558 41.2464V41.8385H12.2265ZM11.3902 37.2275C11.3902 37.679 11.8306 37.8862 12.2265 37.9972V36.4504C11.7084 36.5244 11.3939 36.8315 11.3902 37.2275ZM12.6558 40.5322C13.2257 40.4619 13.6217 40.1399 13.6254 39.6699C13.6217 39.2147 13.1998 39.026 12.6558 38.8743V40.5322Z" fill="white"/>
<g filter="url(#filter1_d_155_77)">
<path fill-rule="evenodd" clip-rule="evenodd" d="M30.9762 55.7853C31.6828 49.8159 34.3263 44.0322 38.9066 39.4518C43.487 34.8715 49.2707 32.228 55.2401 31.5214L30.9762 55.7853Z" fill="white"/>
</g>
<defs>
<filter id="filter0_d_155_77" x="0" y="0" width="64.0424" height="60.4942" filterUnits="userSpaceOnUse" color-interpolation-filters="sRGB">
<feFlood flood-opacity="0" result="BackgroundImageFix"/>
<feColorMatrix in="SourceAlpha" type="matrix" values="0 0 0 0 0 0 0 0 0 0 0 0 0 0 0 0 0 0 127 0" result="hardAlpha"/>
<feOffset/>
<feGaussianBlur stdDeviation="2"/>
<feComposite in2="hardAlpha" operator="out"/>
<feColorMatrix type="matrix" values="0 0 0 0 0 0 0 0 0 0 0 0 0 0 0 0 0 0 0.6 0"/>
<feBlend mode="normal" in2="BackgroundImageFix" result="effect1_dropShadow_155_77"/>
<feBlend mode="normal" in="SourceGraphic" in2="effect1_dropShadow_155_77" result="shape"/>
</filter>
<filter id="filter1_d_155_77" x="23.9763" y="27.5214" width="32.2639" height="32.2639" filterUnits="userSpaceOnUse" color-interpolation-filters="sRGB">
<feFlood flood-opacity="0" result="BackgroundImageFix"/>
<feColorMatrix in="SourceAlpha" type="matrix" values="0 0 0 0 0 0 0 0 0 0 0 0 0 0 0 0 0 0 127 0" result="hardAlpha"/>
<feOffset dx="-3"/>
<feGaussianBlur stdDeviation="2"/>
<feComposite in2="hardAlpha" operator="out"/>
<feColorMatrix type="matrix" values="0 0 0 0 0.264323 0 0 0 0 0.264323 0 0 0 0 0.264323 0 0 0 0.17 0"/>
<feBlend mode="normal" in2="BackgroundImageFix" result="effect1_dropShadow_155_77"/>
<feBlend mode="normal" in="SourceGraphic" in2="effect1_dropShadow_155_77" result="shape"/>
</filter>
<radialGradient id="paint0_radial_155_77" cx="0" cy="0" r="1" gradientUnits="userSpaceOnUse" gradientTransform="translate(30.8156 53.4807) rotate(-90) scale(45.4734)">
<stop stop-color="#FFC37D"/>
<stop offset="0.55268" stop-color="#FFA77D"/>
<stop offset="1" stop-color="#FF7D7D"/>
</radialGradient>
<linearGradient id="paint1_linear_155_77" x1="37.2454" y1="30.0841" x2="37.9586" y2="21.9189" gradientUnits="userSpaceOnUse">
<stop/>
<stop offset="1" stop-color="#2E2E2E"/>
</linearGradient>
<linearGradient id="paint2_linear_155_77" x1="24.4595" y1="29.7684" x2="23.7463" y2="21.6032" gradientUnits="userSpaceOnUse">
<stop/>
<stop offset="1" stop-color="#2E2E2E"/>
</linearGradient>
</defs>
</svg>
