<svg xmlns="http://www.w3.org/2000/svg" width="48" height="46" viewBox="0 0 48 46" fill="none">
  <g filter="url(#filter0_d_71_453)">
    <mask id="path-1-outside-1_71_453" maskUnits="userSpaceOnUse" x="4" y="4.1111" width="41" height="38" fill="black">
      <rect fill="white" x="4" y="4.1111" width="41" height="38"/>
      <path fill-rule="evenodd" clip-rule="evenodd" d="M35.5864 6.77075C35.8752 6.6647 36.1773 6.58146 36.4937 6.52392C37.5788 6.32665 39.081 6.21167 40.1744 6.95645C40.9353 7.47474 41.0303 8.28108 40.883 9.00534C40.8534 9.15072 40.8137 9.29591 40.7666 9.43905C41.171 9.68847 41.5152 10.0755 41.7729 10.6131C42.1475 11.3945 42.0165 12.1611 41.6855 12.8117C41.3586 13.4543 40.8275 14.0072 40.3451 14.4133C39.8302 14.8469 39.2599 15.1469 38.6615 15.3392C38.4909 15.8695 38.2359 16.3784 37.913 16.8241C38.7499 18.7688 39.2135 20.912 39.2135 23.1634C39.2135 24.0601 39.14 24.9397 38.9986 25.7964C39.6875 26.5811 40.1052 27.6099 40.1052 28.7362C40.1052 31.1828 38.1343 33.1691 35.6936 33.1941C32.7523 36.8634 28.2325 39.2129 23.164 39.2129C18.0956 39.2129 13.576 36.8635 10.6347 33.1944H10.4582C7.996 33.1944 6 31.1984 6 28.7362C6 27.5095 6.49545 26.3985 7.29716 25.5924C7.1769 24.8003 7.11455 23.9891 7.11455 23.1634C7.11455 14.2995 14.3001 7.11395 23.164 7.11395C25.5804 7.11395 27.8721 7.64796 29.9275 8.60441C30.0391 8.44063 30.1586 8.28241 30.284 8.13079C30.9833 7.28515 31.8988 6.60531 32.7656 6.28015C33.661 5.94431 34.8131 6.10938 35.5864 6.77075ZM37.8784 15.529C37.7934 15.7298 37.6947 15.9242 37.5841 16.109C37.5336 16.0061 37.4821 15.9038 37.4296 15.8021C37.5314 15.7307 37.6083 15.649 37.665 15.5613C37.7363 15.5518 37.8075 15.5411 37.8784 15.529ZM37.1185 14.9409C37.0638 14.9438 37.0089 14.946 36.954 14.9474C36.7875 14.6687 36.6129 14.3954 36.4303 14.1279C36.4415 14.1214 36.4527 14.1149 36.4639 14.1083C36.5635 14.1719 36.6619 14.2461 36.7587 14.3314C36.8775 14.4362 37.0344 14.6584 37.1021 14.8805C37.1086 14.9017 37.114 14.9218 37.1185 14.9409ZM34.8613 12.072C34.8373 12.0806 34.8134 12.0893 34.7894 12.0983C34.7238 12.0294 34.6576 11.9611 34.5908 11.8933C34.6505 11.8648 34.7094 11.8343 34.7674 11.802C34.8023 11.8902 34.8336 11.9803 34.8613 12.072ZM34.4581 11.2088C34.3331 11.2798 34.2017 11.3403 34.0684 11.387C33.6796 11.0269 33.2729 10.6857 32.8499 10.365L32.8521 10.3617C33.4933 10.3842 34.0739 10.6387 34.4581 11.2088ZM31.4508 9.29376C31.3972 9.30173 31.3435 9.3107 31.2905 9.3204C31.0426 9.1746 30.7905 9.03527 30.5344 8.90263C30.6177 8.78498 30.7062 8.66958 30.7993 8.55697C31.437 7.78591 32.2603 7.18392 33.0005 6.90628C33.5868 6.68635 34.3212 6.7557 34.8817 7.08697C34.4239 7.33137 34.0025 7.63562 33.6119 7.98512C33.0788 8.07986 32.6342 8.38818 32.3305 8.81052C32.2303 8.94995 32.1452 9.10184 32.0767 9.26294L32.0637 9.26172C31.8749 9.24474 31.6536 9.26362 31.4508 9.29376ZM37.7844 14.8668C37.8973 14.8473 38.0091 14.8242 38.1198 14.7973C38.184 14.5297 38.2232 14.2583 38.2342 13.99C38.2532 13.5255 38.0992 13.2002 37.8546 12.9687C37.8399 12.9862 37.8251 13.0036 37.8102 13.0209C37.5907 13.2742 37.3303 13.507 37.0589 13.7116C37.1066 13.749 37.154 13.7884 37.2009 13.8298C37.4104 14.0145 37.637 14.3419 37.7417 14.6854C37.7592 14.7425 37.7739 14.8034 37.7844 14.8668ZM38.3881 12.5569C38.7252 12.9124 38.9277 13.3977 38.9023 14.0173C38.895 14.1962 38.8769 14.3764 38.8486 14.5564C39.2272 14.3947 39.5851 14.179 39.9144 13.9018C40.3626 13.5244 40.8195 13.0391 41.0895 12.5085C41.3553 11.986 41.4298 11.4444 41.1699 10.9022C40.9848 10.516 40.7576 10.2488 40.5091 10.0706C40.3552 10.3901 40.1807 10.6816 40.0219 10.9194C39.5779 11.584 39.0158 12.1251 38.3881 12.5569ZM40.1492 9.17462C40.1807 9.07342 40.2073 8.97221 40.2277 8.87199C40.3465 8.28783 40.2476 7.81544 39.7979 7.50914C38.9459 6.92876 37.6908 6.98597 36.6133 7.18187C36.4209 7.21684 36.234 7.26279 36.0523 7.31905C36.3294 7.7962 36.4051 8.37834 36.3715 8.92608C36.4817 9.04565 36.5795 9.17918 36.6599 9.32808C36.8992 9.47482 37.1256 9.63575 37.3316 9.80229C37.7706 9.51996 38.251 9.30138 38.7359 9.18503C39.2031 9.07293 39.6884 9.05268 40.1492 9.17462ZM37.8444 10.2717C38.1803 10.0733 38.5374 9.92038 38.8919 9.8353C39.2464 9.75025 39.5866 9.73564 39.8963 9.80165C39.7635 10.0742 39.6112 10.3303 39.4658 10.5479C39.1766 10.9809 38.8279 11.3578 38.4373 11.6821C38.4672 11.2557 38.3299 10.8276 37.9871 10.4291C37.9424 10.377 37.8947 10.3244 37.8444 10.2717ZM36.8985 11.0051C37.0193 10.8841 37.1493 10.7675 37.2864 10.6576C37.3568 10.7277 37.4217 10.7971 37.4801 10.8651C37.7394 11.1666 37.8008 11.4489 37.7618 11.7125C37.7453 11.8245 37.7095 11.9393 37.6562 12.0555C37.3523 11.9225 37.0223 11.845 36.6991 11.8101C36.7884 11.5544 36.8585 11.2822 36.8985 11.0051ZM36.1899 9.93635C36.2594 10.1721 36.2797 10.4336 36.2589 10.7076C36.1276 10.8524 36.008 11.0017 35.9024 11.153C35.7586 11.3591 35.6192 11.5996 35.4956 11.8617C35.4477 11.7053 35.3909 11.5528 35.3258 11.4057C35.5229 11.2298 35.691 11.0316 35.8145 10.8209C35.9632 10.567 36.0927 10.2634 36.1899 9.93635ZM34.1515 8.63576C34.1425 8.63468 34.1335 8.63364 34.1245 8.63263C34.0493 8.62417 33.9759 8.62164 33.9044 8.62467C33.8748 8.65285 33.8452 8.68136 33.8158 8.71018C33.9258 8.676 34.0379 8.65154 34.1515 8.63576ZM37.0509 12.552C36.8681 12.6374 36.6818 12.7152 36.4929 12.7856C36.4714 12.6858 36.4276 12.6031 36.3732 12.5351C36.3876 12.5101 36.4017 12.4849 36.4154 12.4595C36.4342 12.4601 36.4528 12.4609 36.4712 12.462C36.6705 12.4736 36.8665 12.5034 37.0509 12.552ZM33.3737 9.75101C33.9902 9.87188 34.5669 10.1922 34.9901 10.802C35.0889 10.7004 35.1731 10.5928 35.2375 10.4829C35.3883 10.2254 35.5196 9.89363 35.6053 9.53583C34.8685 9.23074 34.1848 9.18192 33.702 9.49468C33.5891 9.56777 33.4793 9.65406 33.3737 9.75101ZM34.6188 8.0348C34.8732 7.85481 35.1389 7.69763 35.4175 7.56612C35.5746 7.79284 35.6663 8.08487 35.6978 8.41476C35.6483 8.38809 35.5983 8.36289 35.5482 8.33909C35.2458 8.19568 34.924 8.09763 34.6188 8.0348Z"/>
    </mask>
    <path fill-rule="evenodd" clip-rule="evenodd" d="M35.5864 6.77075C35.8752 6.6647 36.1773 6.58146 36.4937 6.52392C37.5788 6.32665 39.081 6.21167 40.1744 6.95645C40.9353 7.47474 41.0303 8.28108 40.883 9.00534C40.8534 9.15072 40.8137 9.29591 40.7666 9.43905C41.171 9.68847 41.5152 10.0755 41.7729 10.6131C42.1475 11.3945 42.0165 12.1611 41.6855 12.8117C41.3586 13.4543 40.8275 14.0072 40.3451 14.4133C39.8302 14.8469 39.2599 15.1469 38.6615 15.3392C38.4909 15.8695 38.2359 16.3784 37.913 16.8241C38.7499 18.7688 39.2135 20.912 39.2135 23.1634C39.2135 24.0601 39.14 24.9397 38.9986 25.7964C39.6875 26.5811 40.1052 27.6099 40.1052 28.7362C40.1052 31.1828 38.1343 33.1691 35.6936 33.1941C32.7523 36.8634 28.2325 39.2129 23.164 39.2129C18.0956 39.2129 13.576 36.8635 10.6347 33.1944H10.4582C7.996 33.1944 6 31.1984 6 28.7362C6 27.5095 6.49545 26.3985 7.29716 25.5924C7.1769 24.8003 7.11455 23.9891 7.11455 23.1634C7.11455 14.2995 14.3001 7.11395 23.164 7.11395C25.5804 7.11395 27.8721 7.64796 29.9275 8.60441C30.0391 8.44063 30.1586 8.28241 30.284 8.13079C30.9833 7.28515 31.8988 6.60531 32.7656 6.28015C33.661 5.94431 34.8131 6.10938 35.5864 6.77075ZM37.8784 15.529C37.7934 15.7298 37.6947 15.9242 37.5841 16.109C37.5336 16.0061 37.4821 15.9038 37.4296 15.8021C37.5314 15.7307 37.6083 15.649 37.665 15.5613C37.7363 15.5518 37.8075 15.5411 37.8784 15.529ZM37.1185 14.9409C37.0638 14.9438 37.0089 14.946 36.954 14.9474C36.7875 14.6687 36.6129 14.3954 36.4303 14.1279C36.4415 14.1214 36.4527 14.1149 36.4639 14.1083C36.5635 14.1719 36.6619 14.2461 36.7587 14.3314C36.8775 14.4362 37.0344 14.6584 37.1021 14.8805C37.1086 14.9017 37.114 14.9218 37.1185 14.9409ZM34.8613 12.072C34.8373 12.0806 34.8134 12.0893 34.7894 12.0983C34.7238 12.0294 34.6576 11.9611 34.5908 11.8933C34.6505 11.8648 34.7094 11.8343 34.7674 11.802C34.8023 11.8902 34.8336 11.9803 34.8613 12.072ZM34.4581 11.2088C34.3331 11.2798 34.2017 11.3403 34.0684 11.387C33.6796 11.0269 33.2729 10.6857 32.8499 10.365L32.8521 10.3617C33.4933 10.3842 34.0739 10.6387 34.4581 11.2088ZM31.4508 9.29376C31.3972 9.30173 31.3435 9.3107 31.2905 9.3204C31.0426 9.1746 30.7905 9.03527 30.5344 8.90263C30.6177 8.78498 30.7062 8.66958 30.7993 8.55697C31.437 7.78591 32.2603 7.18392 33.0005 6.90628C33.5868 6.68635 34.3212 6.7557 34.8817 7.08697C34.4239 7.33137 34.0025 7.63562 33.6119 7.98512C33.0788 8.07986 32.6342 8.38818 32.3305 8.81052C32.2303 8.94995 32.1452 9.10184 32.0767 9.26294L32.0637 9.26172C31.8749 9.24474 31.6536 9.26362 31.4508 9.29376ZM37.7844 14.8668C37.8973 14.8473 38.0091 14.8242 38.1198 14.7973C38.184 14.5297 38.2232 14.2583 38.2342 13.99C38.2532 13.5255 38.0992 13.2002 37.8546 12.9687C37.8399 12.9862 37.8251 13.0036 37.8102 13.0209C37.5907 13.2742 37.3303 13.507 37.0589 13.7116C37.1066 13.749 37.154 13.7884 37.2009 13.8298C37.4104 14.0145 37.637 14.3419 37.7417 14.6854C37.7592 14.7425 37.7739 14.8034 37.7844 14.8668ZM38.3881 12.5569C38.7252 12.9124 38.9277 13.3977 38.9023 14.0173C38.895 14.1962 38.8769 14.3764 38.8486 14.5564C39.2272 14.3947 39.5851 14.179 39.9144 13.9018C40.3626 13.5244 40.8195 13.0391 41.0895 12.5085C41.3553 11.986 41.4298 11.4444 41.1699 10.9022C40.9848 10.516 40.7576 10.2488 40.5091 10.0706C40.3552 10.3901 40.1807 10.6816 40.0219 10.9194C39.5779 11.584 39.0158 12.1251 38.3881 12.5569ZM40.1492 9.17462C40.1807 9.07342 40.2073 8.97221 40.2277 8.87199C40.3465 8.28783 40.2476 7.81544 39.7979 7.50914C38.9459 6.92876 37.6908 6.98597 36.6133 7.18187C36.4209 7.21684 36.234 7.26279 36.0523 7.31905C36.3294 7.7962 36.4051 8.37834 36.3715 8.92608C36.4817 9.04565 36.5795 9.17918 36.6599 9.32808C36.8992 9.47482 37.1256 9.63575 37.3316 9.80229C37.7706 9.51996 38.251 9.30138 38.7359 9.18503C39.2031 9.07293 39.6884 9.05268 40.1492 9.17462ZM37.8444 10.2717C38.1803 10.0733 38.5374 9.92038 38.8919 9.8353C39.2464 9.75025 39.5866 9.73564 39.8963 9.80165C39.7635 10.0742 39.6112 10.3303 39.4658 10.5479C39.1766 10.9809 38.8279 11.3578 38.4373 11.6821C38.4672 11.2557 38.3299 10.8276 37.9871 10.4291C37.9424 10.377 37.8947 10.3244 37.8444 10.2717ZM36.8985 11.0051C37.0193 10.8841 37.1493 10.7675 37.2864 10.6576C37.3568 10.7277 37.4217 10.7971 37.4801 10.8651C37.7394 11.1666 37.8008 11.4489 37.7618 11.7125C37.7453 11.8245 37.7095 11.9393 37.6562 12.0555C37.3523 11.9225 37.0223 11.845 36.6991 11.8101C36.7884 11.5544 36.8585 11.2822 36.8985 11.0051ZM36.1899 9.93635C36.2594 10.1721 36.2797 10.4336 36.2589 10.7076C36.1276 10.8524 36.008 11.0017 35.9024 11.153C35.7586 11.3591 35.6192 11.5996 35.4956 11.8617C35.4477 11.7053 35.3909 11.5528 35.3258 11.4057C35.5229 11.2298 35.691 11.0316 35.8145 10.8209C35.9632 10.567 36.0927 10.2634 36.1899 9.93635ZM34.1515 8.63576C34.1425 8.63468 34.1335 8.63364 34.1245 8.63263C34.0493 8.62417 33.9759 8.62164 33.9044 8.62467C33.8748 8.65285 33.8452 8.68136 33.8158 8.71018C33.9258 8.676 34.0379 8.65154 34.1515 8.63576ZM37.0509 12.552C36.8681 12.6374 36.6818 12.7152 36.4929 12.7856C36.4714 12.6858 36.4276 12.6031 36.3732 12.5351C36.3876 12.5101 36.4017 12.4849 36.4154 12.4595C36.4342 12.4601 36.4528 12.4609 36.4712 12.462C36.6705 12.4736 36.8665 12.5034 37.0509 12.552ZM33.3737 9.75101C33.9902 9.87188 34.5669 10.1922 34.9901 10.802C35.0889 10.7004 35.1731 10.5928 35.2375 10.4829C35.3883 10.2254 35.5196 9.89363 35.6053 9.53583C34.8685 9.23074 34.1848 9.18192 33.702 9.49468C33.5891 9.56777 33.4793 9.65406 33.3737 9.75101ZM34.6188 8.0348C34.8732 7.85481 35.1389 7.69763 35.4175 7.56612C35.5746 7.79284 35.6663 8.08487 35.6978 8.41476C35.6483 8.38809 35.5983 8.36289 35.5482 8.33909C35.2458 8.19568 34.924 8.09763 34.6188 8.0348Z" fill="white"/>
    <path fill-rule="evenodd" clip-rule="evenodd" d="M35.5864 6.77075C35.8752 6.6647 36.1773 6.58146 36.4937 6.52392C37.5788 6.32665 39.081 6.21167 40.1744 6.95645C40.9353 7.47474 41.0303 8.28108 40.883 9.00534C40.8534 9.15072 40.8137 9.29591 40.7666 9.43905C41.171 9.68847 41.5152 10.0755 41.7729 10.6131C42.1475 11.3945 42.0165 12.1611 41.6855 12.8117C41.3586 13.4543 40.8275 14.0072 40.3451 14.4133C39.8302 14.8469 39.2599 15.1469 38.6615 15.3392C38.4909 15.8695 38.2359 16.3784 37.913 16.8241C38.7499 18.7688 39.2135 20.912 39.2135 23.1634C39.2135 24.0601 39.14 24.9397 38.9986 25.7964C39.6875 26.5811 40.1052 27.6099 40.1052 28.7362C40.1052 31.1828 38.1343 33.1691 35.6936 33.1941C32.7523 36.8634 28.2325 39.2129 23.164 39.2129C18.0956 39.2129 13.576 36.8635 10.6347 33.1944H10.4582C7.996 33.1944 6 31.1984 6 28.7362C6 27.5095 6.49545 26.3985 7.29716 25.5924C7.1769 24.8003 7.11455 23.9891 7.11455 23.1634C7.11455 14.2995 14.3001 7.11395 23.164 7.11395C25.5804 7.11395 27.8721 7.64796 29.9275 8.60441C30.0391 8.44063 30.1586 8.28241 30.284 8.13079C30.9833 7.28515 31.8988 6.60531 32.7656 6.28015C33.661 5.94431 34.8131 6.10938 35.5864 6.77075ZM37.8784 15.529C37.7934 15.7298 37.6947 15.9242 37.5841 16.109C37.5336 16.0061 37.4821 15.9038 37.4296 15.8021C37.5314 15.7307 37.6083 15.649 37.665 15.5613C37.7363 15.5518 37.8075 15.5411 37.8784 15.529ZM37.1185 14.9409C37.0638 14.9438 37.0089 14.946 36.954 14.9474C36.7875 14.6687 36.6129 14.3954 36.4303 14.1279C36.4415 14.1214 36.4527 14.1149 36.4639 14.1083C36.5635 14.1719 36.6619 14.2461 36.7587 14.3314C36.8775 14.4362 37.0344 14.6584 37.1021 14.8805C37.1086 14.9017 37.114 14.9218 37.1185 14.9409ZM34.8613 12.072C34.8373 12.0806 34.8134 12.0893 34.7894 12.0983C34.7238 12.0294 34.6576 11.9611 34.5908 11.8933C34.6505 11.8648 34.7094 11.8343 34.7674 11.802C34.8023 11.8902 34.8336 11.9803 34.8613 12.072ZM34.4581 11.2088C34.3331 11.2798 34.2017 11.3403 34.0684 11.387C33.6796 11.0269 33.2729 10.6857 32.8499 10.365L32.8521 10.3617C33.4933 10.3842 34.0739 10.6387 34.4581 11.2088ZM31.4508 9.29376C31.3972 9.30173 31.3435 9.3107 31.2905 9.3204C31.0426 9.1746 30.7905 9.03527 30.5344 8.90263C30.6177 8.78498 30.7062 8.66958 30.7993 8.55697C31.437 7.78591 32.2603 7.18392 33.0005 6.90628C33.5868 6.68635 34.3212 6.7557 34.8817 7.08697C34.4239 7.33137 34.0025 7.63562 33.6119 7.98512C33.0788 8.07986 32.6342 8.38818 32.3305 8.81052C32.2303 8.94995 32.1452 9.10184 32.0767 9.26294L32.0637 9.26172C31.8749 9.24474 31.6536 9.26362 31.4508 9.29376ZM37.7844 14.8668C37.8973 14.8473 38.0091 14.8242 38.1198 14.7973C38.184 14.5297 38.2232 14.2583 38.2342 13.99C38.2532 13.5255 38.0992 13.2002 37.8546 12.9687C37.8399 12.9862 37.8251 13.0036 37.8102 13.0209C37.5907 13.2742 37.3303 13.507 37.0589 13.7116C37.1066 13.749 37.154 13.7884 37.2009 13.8298C37.4104 14.0145 37.637 14.3419 37.7417 14.6854C37.7592 14.7425 37.7739 14.8034 37.7844 14.8668ZM38.3881 12.5569C38.7252 12.9124 38.9277 13.3977 38.9023 14.0173C38.895 14.1962 38.8769 14.3764 38.8486 14.5564C39.2272 14.3947 39.5851 14.179 39.9144 13.9018C40.3626 13.5244 40.8195 13.0391 41.0895 12.5085C41.3553 11.986 41.4298 11.4444 41.1699 10.9022C40.9848 10.516 40.7576 10.2488 40.5091 10.0706C40.3552 10.3901 40.1807 10.6816 40.0219 10.9194C39.5779 11.584 39.0158 12.1251 38.3881 12.5569ZM40.1492 9.17462C40.1807 9.07342 40.2073 8.97221 40.2277 8.87199C40.3465 8.28783 40.2476 7.81544 39.7979 7.50914C38.9459 6.92876 37.6908 6.98597 36.6133 7.18187C36.4209 7.21684 36.234 7.26279 36.0523 7.31905C36.3294 7.7962 36.4051 8.37834 36.3715 8.92608C36.4817 9.04565 36.5795 9.17918 36.6599 9.32808C36.8992 9.47482 37.1256 9.63575 37.3316 9.80229C37.7706 9.51996 38.251 9.30138 38.7359 9.18503C39.2031 9.07293 39.6884 9.05268 40.1492 9.17462ZM37.8444 10.2717C38.1803 10.0733 38.5374 9.92038 38.8919 9.8353C39.2464 9.75025 39.5866 9.73564 39.8963 9.80165C39.7635 10.0742 39.6112 10.3303 39.4658 10.5479C39.1766 10.9809 38.8279 11.3578 38.4373 11.6821C38.4672 11.2557 38.3299 10.8276 37.9871 10.4291C37.9424 10.377 37.8947 10.3244 37.8444 10.2717ZM36.8985 11.0051C37.0193 10.8841 37.1493 10.7675 37.2864 10.6576C37.3568 10.7277 37.4217 10.7971 37.4801 10.8651C37.7394 11.1666 37.8008 11.4489 37.7618 11.7125C37.7453 11.8245 37.7095 11.9393 37.6562 12.0555C37.3523 11.9225 37.0223 11.845 36.6991 11.8101C36.7884 11.5544 36.8585 11.2822 36.8985 11.0051ZM36.1899 9.93635C36.2594 10.1721 36.2797 10.4336 36.2589 10.7076C36.1276 10.8524 36.008 11.0017 35.9024 11.153C35.7586 11.3591 35.6192 11.5996 35.4956 11.8617C35.4477 11.7053 35.3909 11.5528 35.3258 11.4057C35.5229 11.2298 35.691 11.0316 35.8145 10.8209C35.9632 10.567 36.0927 10.2634 36.1899 9.93635ZM34.1515 8.63576C34.1425 8.63468 34.1335 8.63364 34.1245 8.63263C34.0493 8.62417 33.9759 8.62164 33.9044 8.62467C33.8748 8.65285 33.8452 8.68136 33.8158 8.71018C33.9258 8.676 34.0379 8.65154 34.1515 8.63576ZM37.0509 12.552C36.8681 12.6374 36.6818 12.7152 36.4929 12.7856C36.4714 12.6858 36.4276 12.6031 36.3732 12.5351C36.3876 12.5101 36.4017 12.4849 36.4154 12.4595C36.4342 12.4601 36.4528 12.4609 36.4712 12.462C36.6705 12.4736 36.8665 12.5034 37.0509 12.552ZM33.3737 9.75101C33.9902 9.87188 34.5669 10.1922 34.9901 10.802C35.0889 10.7004 35.1731 10.5928 35.2375 10.4829C35.3883 10.2254 35.5196 9.89363 35.6053 9.53583C34.8685 9.23074 34.1848 9.18192 33.702 9.49468C33.5891 9.56777 33.4793 9.65406 33.3737 9.75101ZM34.6188 8.0348C34.8732 7.85481 35.1389 7.69763 35.4175 7.56612C35.5746 7.79284 35.6663 8.08487 35.6978 8.41476C35.6483 8.38809 35.5983 8.36289 35.5482 8.33909C35.2458 8.19568 34.924 8.09763 34.6188 8.0348Z" stroke="white" stroke-width="4" stroke-linejoin="round" mask="url(#path-1-outside-1_71_453)"/>
  </g>
  <circle cx="23.164" cy="23.0523" r="16.0495" fill="url(#paint0_radial_71_453)"/>
  <path d="M31.5526 18.3248C32.3652 19.7323 31.8829 21.5319 30.4755 22.3445C29.0681 23.1571 27.2684 22.6749 26.4558 21.2675C25.6432 19.86 27.0082 19.5894 28.4157 18.7768C29.8231 17.9642 30.74 16.9174 31.5526 18.3248Z" fill="url(#paint1_linear_71_453)"/>
  <path d="M14.8274 18.1021C14.0148 19.5095 14.497 21.3092 15.9044 22.1218C17.3119 22.9343 19.1115 22.4521 19.9241 21.0447C20.7367 19.6373 19.3717 19.3666 17.9643 18.554C16.5568 17.7414 15.6399 16.6946 14.8274 18.1021Z" fill="url(#paint2_linear_71_453)"/>
  <rect x="6" y="24.1669" width="34.1052" height="8.91638" rx="4.45819" fill="black"/>
  <path fill-rule="evenodd" clip-rule="evenodd" d="M35.5864 6.65953C35.8752 6.55348 36.1772 6.47024 36.4937 6.41271C37.5788 6.21543 39.081 6.10045 40.1744 6.84524C40.9353 7.36353 41.0303 8.16987 40.8829 8.89412C40.8533 9.03951 40.8137 9.18469 40.7665 9.32784C41.1709 9.57726 41.5152 9.96433 41.7729 10.5019C42.1475 11.2833 42.0164 12.0499 41.6855 12.7005C41.3586 13.343 40.8274 13.896 40.3451 14.3021C39.8302 14.7357 39.2599 15.0357 38.6615 15.2279C38.3313 16.2539 37.6859 17.1994 36.8424 17.7627C35.8882 18.3999 34.5531 18.6457 33.4445 18.3719C32.4742 18.1323 31.9689 17.2019 32.0447 16.2691C31.5921 16.4037 31.1049 16.4352 30.5977 16.2916C30.4187 16.2409 30.2729 16.1355 30.186 15.9768C30.1049 15.8286 30.0953 15.6707 30.1065 15.5441C30.1284 15.2978 30.241 15.0517 30.3154 14.9076C30.4801 14.5887 30.6977 14.3149 30.9455 14.0814C30.3542 13.7805 29.8263 13.3121 29.6156 12.5653C29.2828 12.161 29.0711 11.6444 29.0711 10.9879C29.0711 9.91277 29.5856 8.86394 30.2839 8.01957C30.9833 7.17394 31.8987 6.49409 32.7656 6.16894C33.6609 5.83309 34.8131 5.99817 35.5864 6.65953ZM29.8934 10.047C30.0704 9.48882 30.3901 8.94052 30.7993 8.44575C31.4369 7.6747 32.2602 7.07271 33.0004 6.79507C33.5868 6.57513 34.3212 6.64449 34.8817 6.97576C34.4239 7.22016 34.0024 7.5244 33.6119 7.87391C33.0787 7.96865 32.6342 8.27696 32.3305 8.69931C32.2303 8.83874 32.1452 8.99062 32.0766 9.15173C32.0723 9.1513 32.068 9.15089 32.0637 9.1505C31.8749 9.13353 31.6536 9.1524 31.4507 9.18255C31.2437 9.21332 31.036 9.2589 30.8667 9.30486C30.782 9.32784 30.7039 9.35175 30.6382 9.37504C30.5814 9.39521 30.5072 9.42396 30.4491 9.46152C30.2133 9.61376 30.0315 9.81756 29.8934 10.047ZM31.6473 14.3626C31.3424 14.5942 31.0839 14.8769 30.9096 15.2145C30.8422 15.3449 30.7824 15.4938 30.7726 15.6034C30.7709 15.6232 30.7712 15.6369 30.772 15.6458C30.7743 15.6465 30.7769 15.6473 30.7799 15.6482C31.2298 15.7755 31.6738 15.718 32.1103 15.5368C32.0089 15.382 31.9652 15.1887 31.9898 14.9665C32.0082 14.7999 32.0427 14.6385 32.0912 14.4827C32.0494 14.4729 32.0078 14.4627 31.9665 14.4523C31.8622 14.4259 31.7553 14.3962 31.6473 14.3626ZM32.8155 15.9327C32.8062 15.9379 32.797 15.9432 32.7878 15.9484C32.5198 16.7498 32.9135 17.552 33.6048 17.7227C34.5259 17.9502 35.6688 17.7423 36.471 17.2066C37.0712 16.8059 37.5665 16.1543 37.8783 15.4178C37.8074 15.4298 37.7363 15.4406 37.665 15.4501C37.6065 15.5405 37.5266 15.6246 37.4199 15.6976C37.1329 15.8941 36.7869 15.8618 36.535 15.7927C36.2719 15.7206 36.0226 15.5857 35.8533 15.4572C35.8507 15.4552 35.848 15.4532 35.8454 15.4512C35.5179 15.4131 35.1765 15.3546 34.8338 15.2729C34.3257 15.7756 33.6264 16.0168 32.926 15.9467C32.8907 15.9432 32.8536 15.9386 32.8155 15.9327ZM37.1184 14.8296C36.9647 14.8378 36.8098 14.8403 36.6541 14.8373C36.4848 14.8341 36.3067 14.8244 36.1228 14.8077C35.9841 14.6703 35.882 14.5081 35.8129 14.3263C36.0098 14.2442 36.2329 14.1329 36.4639 13.9971C36.5635 14.0607 36.6619 14.1349 36.7586 14.2202C36.8775 14.325 37.0343 14.5472 37.1021 14.7692C37.1085 14.7905 37.114 14.8106 37.1184 14.8296ZM37.7844 14.7556C37.8972 14.7361 38.0091 14.713 38.1197 14.6861C38.1839 14.4185 38.2231 14.1471 38.2341 13.8788C38.2531 13.4143 38.0991 13.089 37.8545 12.8575C37.8399 12.875 37.8251 12.8924 37.8101 12.9097C37.5907 13.163 37.3303 13.3958 37.0589 13.6003C37.1066 13.6378 37.1539 13.6772 37.2009 13.7186C37.4103 13.9033 37.6369 14.2307 37.7417 14.5742C37.7591 14.6313 37.7739 14.6922 37.7844 14.7556ZM38.3881 12.4457C38.7252 12.8012 38.9277 13.2865 38.9023 13.9061C38.895 14.0849 38.8769 14.2651 38.8486 14.4452C39.2272 14.2835 39.5851 14.0678 39.9144 13.7906C40.3625 13.4132 40.8195 12.9279 41.0894 12.3973C41.3552 11.8748 41.4298 11.3332 41.1699 10.791C40.9847 10.4048 40.7576 10.1375 40.509 9.95939C40.3552 10.2789 40.1807 10.5704 40.0219 10.8082C39.5779 11.4728 39.0157 12.0139 38.3881 12.4457ZM40.1491 9.06341C40.1807 8.9622 40.2072 8.861 40.2276 8.76078C40.3465 8.17662 40.2476 7.70423 39.7979 7.39793C38.9459 6.81755 37.6908 6.87476 36.6133 7.07065C36.4209 7.10563 36.234 7.15157 36.0523 7.20784C36.3293 7.68499 36.4051 8.26712 36.3714 8.81487C36.4817 8.93444 36.5795 9.06797 36.6599 9.21687C36.8992 9.36361 37.1256 9.52453 37.3316 9.69108C37.7706 9.40875 38.251 9.19016 38.7359 9.07381C39.2031 8.96172 39.6884 8.94147 40.1491 9.06341ZM37.8443 10.1605C38.1803 9.96212 38.5373 9.80917 38.8919 9.72409C39.2464 9.63903 39.5865 9.62443 39.8963 9.69044C39.7635 9.963 39.6112 10.2191 39.4658 10.4367C39.1766 10.8697 38.8279 11.2465 38.4373 11.5709C38.4671 11.1445 38.3298 10.7164 37.9871 10.3179C37.9423 10.2658 37.8947 10.2132 37.8443 10.1605ZM36.8984 10.8939C37.0192 10.7729 37.1493 10.6563 37.2864 10.5464C37.3568 10.6165 37.4216 10.6859 37.4801 10.7539C37.7394 11.0554 37.8008 11.3377 37.7618 11.6013C37.7452 11.7133 37.7095 11.828 37.6562 11.9443C37.3522 11.8113 37.0222 11.7337 36.6991 11.6989C36.7883 11.4432 36.8585 11.1709 36.8984 10.8939ZM36.1899 9.82514C36.2593 10.0609 36.2796 10.3224 36.2589 10.5964C36.1276 10.7412 36.008 10.8905 35.9024 11.0418C35.7586 11.2479 35.6192 11.4884 35.4956 11.7505C35.4476 11.5941 35.3908 11.4416 35.3258 11.2945C35.5229 11.1185 35.691 10.9204 35.8144 10.7097C35.9632 10.4558 36.0927 10.1522 36.1899 9.82514ZM34.1514 8.52455C34.1424 8.52347 34.1334 8.52243 34.1245 8.52142C34.0493 8.51296 33.9758 8.51043 33.9044 8.51346C33.8747 8.54164 33.8452 8.57014 33.8158 8.59896C33.9257 8.56478 34.0379 8.54033 34.1514 8.52455ZM31.2295 9.90394C31.163 9.91884 31.0996 9.93456 31.0418 9.95024C30.9686 9.97011 30.9074 9.98911 30.8618 10.0053C30.822 10.0194 30.8066 10.0271 30.8065 10.0268C30.6201 10.149 30.4734 10.3408 30.3678 10.5841C30.596 10.3022 30.8908 10.0671 31.2295 9.90394ZM33.9005 15.1234C33.9513 15.0991 34.001 15.0723 34.0493 15.0429C34.0346 15.0377 34.0199 15.0324 34.0052 15.0271C33.9708 15.0593 33.9359 15.0914 33.9005 15.1234ZM37.0508 12.4408C36.8681 12.5262 36.6817 12.604 36.4929 12.6744C36.4713 12.5745 36.4276 12.4918 36.3732 12.4239C36.3876 12.3989 36.4016 12.3737 36.4154 12.3483C36.4342 12.3489 36.4528 12.3497 36.4712 12.3508C36.6705 12.3624 36.8664 12.3922 37.0508 12.4408ZM34.8613 11.9607C34.8336 11.8691 34.8023 11.779 34.7674 11.6908C34.4838 11.8489 34.1774 11.963 33.8754 12.0163C33.4853 12.0851 33.0699 12.0583 32.7102 11.8592C32.5434 11.7669 32.3977 11.6426 32.2767 11.4871C32.1465 11.9804 32.2142 12.2946 32.3471 12.5014C32.4826 12.7123 32.7244 12.8724 33.0637 12.9778C33.0778 12.9478 33.0929 12.9178 33.109 12.8877C33.4716 12.2134 34.1129 12.0493 34.6822 12.0285C34.7418 12.0048 34.8015 11.9822 34.8613 11.9607ZM32.6084 10.6546C32.6972 10.9949 32.8591 11.1773 33.0341 11.2741C33.2219 11.3781 33.4708 11.4086 33.7591 11.3577C33.9957 11.316 34.2367 11.2233 34.4581 11.0976C34.0739 10.5274 33.4933 10.273 32.8521 10.2505C32.7638 10.3798 32.6822 10.5154 32.6084 10.6546ZM31.646 10.4512C31.1582 10.6429 30.7828 11.0295 30.6208 11.4704C30.4862 11.8365 30.4948 12.2481 30.7245 12.6383C30.8349 12.7045 30.9524 12.7652 31.076 12.8211C31.1927 12.8739 31.3136 12.9216 31.4374 12.9649C31.1443 12.3154 31.2268 11.5985 31.4389 10.9675C31.498 10.7915 31.5683 10.6187 31.646 10.4512ZM35.0015 12.6988C34.986 12.6983 34.9713 12.6979 34.9576 12.6974C34.9108 12.6957 34.865 12.6948 34.8202 12.6947C34.5814 12.7964 34.3443 12.9192 34.1184 13.0619C34.2062 13.0764 34.2932 13.0946 34.3788 13.1165C34.537 13.1106 34.6937 13.0985 34.845 13.0816C34.9025 13.0431 34.9586 13.0029 35.0133 12.9613C35.0127 12.8738 35.0088 12.7862 35.0015 12.6988ZM33.3736 9.63979C33.9901 9.76067 34.5668 10.081 34.99 10.6908C35.0889 10.5892 35.173 10.4816 35.2374 10.3717C35.3883 10.1142 35.5195 9.78242 35.6052 9.42462C34.8685 9.11953 34.1848 9.07071 33.702 9.38347C33.5891 9.45656 33.4793 9.54285 33.3736 9.63979ZM34.6187 7.92359C34.8732 7.7436 35.1389 7.58642 35.4174 7.45491C35.5745 7.68163 35.6662 7.97366 35.6978 8.30355C35.6483 8.27688 35.5983 8.25167 35.5481 8.22787C35.2458 8.08447 34.924 7.98641 34.6187 7.92359Z" fill="black"/>
  <path d="M37.5383 29.1281L35.0828 30.3141V29.7498L36.8747 28.9322V28.9061L35.0828 28.0885V27.519L37.5383 28.7102V29.1281Z" fill="white"/>
  <path d="M34.5342 26.4481L33.3169 30.9777H32.8206L34.0379 26.4481H34.5342Z" fill="white"/>
  <path d="M29.827 28.773V28.355L32.2825 27.1638V27.7333L30.4905 28.5483V28.5797L32.2825 29.3947V29.9589L29.827 28.773Z" fill="white"/>
  <path d="M27.4655 30.4604C26.7054 30.4604 26.2378 30.0111 26.2378 29.4051C26.2378 28.9506 26.5356 28.6737 26.9692 28.3785C26.7289 28.0859 26.5539 27.8195 26.5513 27.4825C26.5539 26.9574 26.93 26.5839 27.5073 26.5839C28.0899 26.5839 28.4477 26.9653 28.4477 27.4093C28.4477 27.7698 28.2597 28.0337 27.9462 28.2609L27.685 28.4516L28.4425 29.3554C28.5392 29.1674 28.5992 28.9427 28.5992 28.6893H29.1008C29.1008 29.2144 28.9493 29.5514 28.7847 29.7656L29.3254 30.4082H28.6985L28.4425 30.1078C28.1839 30.3481 27.8077 30.4604 27.4655 30.4604ZM26.7968 29.3894C26.7942 29.7133 27.0606 29.9902 27.4708 29.9902C27.7006 29.9902 27.9357 29.9014 28.129 29.7421L27.2827 28.7494L27.1886 28.8199C26.8908 29.0394 26.7942 29.2692 26.7968 29.3894ZM27.0737 27.4877C27.0737 27.681 27.2095 27.8743 27.3819 28.0859L27.6118 27.9213C27.8182 27.7855 27.941 27.6471 27.941 27.425C27.941 27.2474 27.7738 27.0489 27.5178 27.0489C27.2566 27.0515 27.0737 27.2709 27.0737 27.4877Z" fill="white"/>
  <path d="M22.4396 28.4228C21.9224 28.4281 21.6403 28.0441 21.6455 27.4824C21.6403 26.9287 21.9355 26.5447 22.4396 26.5473C22.9595 26.5447 23.2311 26.9287 23.2337 27.4824C23.2311 28.0467 22.949 28.4281 22.4396 28.4228ZM22.0739 30.4081L24.6705 26.6256H25.1459L22.5493 30.4081H22.0739ZM22.0739 27.4824C22.0765 27.8299 22.1967 28.0545 22.4396 28.0571C22.6852 28.0545 22.8001 27.8299 22.8001 27.4824C22.8001 27.1429 22.693 26.9104 22.4396 26.913C22.1967 26.9182 22.0765 27.1455 22.0739 27.4824ZM24.0331 29.5461C24.0305 28.9871 24.323 28.6031 24.8272 28.6057C25.3444 28.6031 25.6187 28.9871 25.6213 29.5461C25.6187 30.1051 25.3366 30.4865 24.8272 30.4865C24.3126 30.4865 24.0305 30.1025 24.0331 29.5461ZM24.4615 29.5461C24.4641 29.8883 24.5843 30.1156 24.8272 30.1156C25.0728 30.1156 25.1877 29.8883 25.1877 29.5461C25.1877 29.2013 25.0806 28.9714 24.8272 28.9714C24.5869 28.9766 24.4641 29.2039 24.4615 29.5461Z" fill="white"/>
  <path d="M18.7407 29.5986C18.2365 29.5986 17.8604 29.1963 17.8578 28.5119C17.8604 27.8249 18.2496 27.4304 18.7407 27.4304C19.1012 27.4304 19.2605 27.6551 19.3258 27.7857H19.352V27.4722H19.8065V28.9351C19.8143 29.1258 19.8901 29.2198 20.0468 29.2172C20.342 29.2198 20.5353 28.8776 20.5379 28.3708C20.5431 27.4252 19.8666 26.8035 18.8922 26.8035C17.8865 26.8061 17.2439 27.5584 17.2413 28.5119C17.2413 29.5489 17.8029 30.2333 18.8713 30.2255C19.2396 30.2229 19.5009 30.1942 19.8065 30.1106V30.5285C19.5322 30.6069 19.2161 30.6539 18.8713 30.6539C17.5783 30.6539 16.8024 29.8284 16.8024 28.5119C16.7998 27.2763 17.6671 26.3751 18.8922 26.3751C20.1304 26.3751 20.9794 27.2214 20.9768 28.3551C20.9768 29.1571 20.5666 29.6221 20.0102 29.6195C19.6707 29.6195 19.4173 29.4471 19.3781 29.2067H19.352C19.2867 29.34 19.1195 29.5986 18.7407 29.5986ZM18.3489 28.5067C18.3463 28.8854 18.5291 29.1675 18.8556 29.1702C19.1874 29.1675 19.3598 28.9063 19.3624 28.5067C19.3598 28.1174 19.19 27.8614 18.8556 27.8588C18.5265 27.8614 18.3463 28.1383 18.3489 28.5067Z" fill="white"/>
  <path d="M16.1128 26.6259L16.0658 29.3165H15.5486L15.5016 26.6259H16.1128ZM15.4389 30.074C15.4363 29.8703 15.6061 29.7031 15.8098 29.7031C16.0109 29.7031 16.1781 29.8703 16.1807 30.074C16.1781 30.2778 16.0109 30.4424 15.8098 30.445C15.6061 30.4424 15.4363 30.2778 15.4389 30.074Z" fill="white"/>
  <path d="M13.5842 30.4084L13.7514 29.3949H12.8684L12.7013 30.4084H12.252L12.4191 29.3949H11.8758L11.9437 28.9508H12.4923L12.6333 28.0835H12.0952L12.1631 27.6342H12.7091L12.8737 26.6259H13.323L13.1584 27.6342H14.0413L14.2059 26.6259H14.65L14.4854 27.6342H15.0366L14.9634 28.0835H14.4123L14.2712 28.9508H14.8172L14.7388 29.3949H14.1981L14.0335 30.4084H13.5842ZM12.9416 28.9508H13.8245L13.9656 28.0835H13.0826L12.9416 28.9508Z" fill="white"/>
  <path d="M10.042 30.8836V30.4657C9.28448 30.4186 8.81167 30.0059 8.77771 29.3581H9.3524C9.38113 29.7238 9.67109 29.9171 10.042 29.9615V28.7103L9.86439 28.6632C9.25575 28.4961 8.87959 28.1878 8.87697 27.6601C8.87959 27.0593 9.36807 26.6466 10.042 26.5813V26.1503H10.345V26.5761C11.0477 26.6205 11.5284 27.0437 11.5467 27.6236H10.9876C10.9563 27.3101 10.7055 27.1142 10.345 27.0776V28.2531L10.507 28.2975C10.9903 28.4151 11.5963 28.6789 11.5989 29.3633C11.5963 29.9667 11.1444 30.416 10.345 30.4657V30.8836H10.042ZM9.45166 27.6288C9.45166 27.9475 9.76252 28.0938 10.042 28.1721V27.0802C9.67631 27.1325 9.45428 27.3493 9.45166 27.6288ZM10.345 29.9615C10.7473 29.9119 11.0268 29.6846 11.0294 29.3529C11.0268 29.0316 10.729 28.8983 10.345 28.7912V29.9615Z" fill="white"/>
  <defs>
    <filter id="filter0_d_71_453" x="0" y="0.111458" width="48.0007" height="45.1015" filterUnits="userSpaceOnUse" color-interpolation-filters="sRGB">
      <feFlood flood-opacity="0" result="BackgroundImageFix"/>
      <feColorMatrix in="SourceAlpha" type="matrix" values="0 0 0 0 0 0 0 0 0 0 0 0 0 0 0 0 0 0 127 0" result="hardAlpha"/>
      <feOffset/>
      <feGaussianBlur stdDeviation="2"/>
      <feComposite in2="hardAlpha" operator="out"/>
      <feColorMatrix type="matrix" values="0 0 0 0 0 0 0 0 0 0 0 0 0 0 0 0 0 0 0.6 0"/>
      <feBlend mode="normal" in2="BackgroundImageFix" result="effect1_dropShadow_71_453"/>
      <feBlend mode="normal" in="SourceGraphic" in2="effect1_dropShadow_71_453" result="shape"/>
    </filter>
    <radialGradient id="paint0_radial_71_453" cx="0" cy="0" r="1" gradientUnits="userSpaceOnUse" gradientTransform="translate(23.164 39.1018) rotate(-90) scale(32.099)">
      <stop stop-color="#FFC37D"/>
      <stop offset="0.55268" stop-color="#FFA77D"/>
      <stop offset="1" stop-color="#FF7D7D"/>
    </radialGradient>
    <linearGradient id="paint1_linear_71_453" x1="27.7027" y1="22.5863" x2="28.2061" y2="16.8226" gradientUnits="userSpaceOnUse">
      <stop/>
      <stop offset="1" stop-color="#2E2E2E"/>
    </linearGradient>
    <linearGradient id="paint2_linear_71_453" x1="18.6773" y1="22.3635" x2="18.1738" y2="16.5998" gradientUnits="userSpaceOnUse">
      <stop/>
      <stop offset="1" stop-color="#2E2E2E"/>
    </linearGradient>
  </defs>
</svg>