<svg width="63" height="63" viewBox="0 0 63 63" fill="none" xmlns="http://www.w3.org/2000/svg">
<path fill-rule="evenodd" clip-rule="evenodd" d="M19.8753 11.6247C8.89847 17.9622 5.13754 31.9982 11.475 42.975C17.2714 53.0146 29.5079 57.0179 39.9536 52.7794C40.402 54.6276 42.0675 56 44.0535 56C45.2649 56 46.357 55.4894 47.1265 54.6718C47.4433 54.9167 47.8408 55.0625 48.2723 55.0625C48.9948 55.0625 49.6219 54.6538 49.935 54.0549C51.659 53.7171 52.9598 52.198 52.9598 50.375C52.9598 48.9532 52.1685 47.7161 51.0022 47.0803C51.0565 46.7805 51.0848 46.4717 51.0848 46.1563C51.0848 45.3828 50.9145 44.6491 50.6093 43.9906C55.1444 36.9856 55.6845 27.7481 51.2256 20.025C50.2649 18.3611 49.1274 16.863 47.8504 15.5407V13C47.8504 12.4477 47.4027 12 46.8504 12C46.2981 12 45.8504 12.4477 45.8504 13V13.703C44.9016 12.9302 43.8978 12.2398 42.8504 11.6348V10C42.8504 9.44772 42.4027 9 41.8504 9C41.2981 9 40.8504 9.44772 40.8504 10V10.6066C34.3369 7.65161 26.5419 7.77571 19.8753 11.6247Z" fill="white"/>
<g filter="url(#filter0_d_63_126)">
<path fill-rule="evenodd" clip-rule="evenodd" d="M48.3504 16.0754C49.4256 17.2628 50.3921 18.5815 51.2256 20.025C55.6845 27.7481 55.1444 36.9856 50.6093 43.9906C50.9145 44.6491 51.0848 45.3828 51.0848 46.1563C51.0848 46.4717 51.0564 46.7805 51.0022 47.0803C52.1685 47.7161 52.9598 48.9532 52.9598 50.375C52.9598 52.198 51.659 53.7171 49.935 54.0549C49.6219 54.6538 48.9948 55.0625 48.2723 55.0625C47.8408 55.0625 47.4433 54.9167 47.1264 54.6718C46.357 55.4894 45.2649 56 44.0535 56C42.5042 56 41.15 55.1649 40.4165 53.9202C40.2096 53.5693 40.0522 53.1859 39.9536 52.7794C39.1721 53.0965 38.3807 53.3675 37.5826 53.5932C27.7131 56.3852 16.8378 52.2635 11.475 42.975C5.13753 31.9982 8.89846 17.9622 19.8753 11.6247C25.7136 8.25394 32.4173 7.73995 38.3678 9.649C38.7079 9.75811 39.0455 9.87514 39.3804 10C39.7065 10.1216 40.0299 10.2506 40.3504 10.3869C40.3694 10.395 40.3885 10.4031 40.4075 10.4113C40.5558 10.4748 40.7034 10.5399 40.8504 10.6066V10C40.8504 9.54877 41.1493 9.16734 41.5598 9.04287C41.6518 9.01499 41.7493 9 41.8504 9C42.4027 9 42.8504 9.44772 42.8504 10V11.6348C43.0182 11.7317 43.1849 11.8308 43.3504 11.9321C43.397 11.9607 43.4435 11.9894 43.49 12.0182C43.9848 12.326 44.4691 12.6534 44.9414 13C45.0788 13.1008 45.2151 13.2032 45.3504 13.3072C45.363 13.317 45.3757 13.3267 45.3883 13.3364C45.5437 13.4565 45.6978 13.5787 45.8504 13.703V13C45.8504 12.4477 46.2981 12 46.8504 12C46.9694 12 47.0835 12.0208 47.1894 12.0589C47.5748 12.1978 47.8504 12.5667 47.8504 13V15.5407C48.0195 15.7159 48.1862 15.8941 48.3504 16.0754ZM50.3504 14.5609C51.4847 15.8357 52.5061 17.2429 53.3906 18.775C58.1158 26.9591 57.7762 36.6736 53.3558 44.2928C53.4861 44.8133 53.5631 45.3541 53.5808 45.9082C54.7382 47.0411 55.4598 48.6228 55.4598 50.375C55.4598 53.0484 53.7832 55.3259 51.425 56.2203C50.6307 57.0457 49.5129 57.5625 48.2723 57.5625C48.0339 57.5625 47.7995 57.5433 47.5709 57.5063C46.5481 58.1356 45.3425 58.5 44.0535 58.5C41.8777 58.5 39.9461 57.4668 38.7188 55.8653C27.6533 59.2214 15.3404 54.67 9.30993 44.225C2.28211 32.0524 6.45273 16.4874 18.6253 9.45962C25.2261 5.64863 32.8251 5.13255 39.5134 7.39446C40.1331 6.83832 40.9522 6.5 41.8504 6.5C43.7293 6.5 45.2624 7.9805 45.3467 9.83856C45.8023 9.6215 46.3122 9.5 46.8504 9.5C48.7834 9.5 50.3504 11.067 50.3504 13V14.5609Z" fill="white"/>
</g>
<circle cx="31.3503" cy="31.5" r="22.95" transform="rotate(150 31.3503 31.5)" fill="url(#paint0_radial_63_126)"/>
<path d="M37.1395 36.0516C36.3989 37.6486 34.5038 38.3428 32.9068 37.6021C31.3098 36.8614 30.6156 34.9664 31.3563 33.3694C32.097 31.7724 33.2216 32.7394 34.8186 33.4801C36.4156 34.2208 37.8802 34.4546 37.1395 36.0516Z" fill="url(#paint1_linear_63_126)"/>
<path d="M20.8504 43C20.8504 41.3432 23.3128 40 26.3504 40C29.388 40 31.8504 41.3432 31.8504 43C31.8504 44.6569 31.4104 46 26.3504 46C20.8504 46 20.8504 44.6569 20.8504 43Z" fill="url(#paint2_linear_63_126)"/>
<path d="M15.508 36.2341C16.3371 37.787 18.2681 38.3739 19.821 37.5448C21.374 36.7157 21.9608 34.7847 21.1318 33.2318C20.3027 31.6788 19.2341 32.7074 17.6811 33.5365C16.1282 34.3655 14.6789 34.6811 15.508 36.2341Z" fill="url(#paint3_linear_63_126)"/>
<path fill-rule="evenodd" clip-rule="evenodd" d="M39.8413 51.544C38.707 50.7878 37.9598 49.4968 37.9598 48.0313C37.9598 47.8027 37.978 47.5784 38.0129 47.3597L35.9068 44.9025C35.8445 44.8298 35.8327 44.7265 35.877 44.6416C35.9213 44.5567 36.0128 44.5073 36.1081 44.5168L39.411 44.8471C39.9379 44.3887 40.5797 44.0589 41.2875 43.9068C42.1231 42.1861 43.8873 41 45.9285 41C48.7762 41 51.0848 43.3085 51.0848 46.1563C51.0848 46.4717 51.0565 46.7805 51.0022 47.0803C52.1685 47.7161 52.9598 48.9532 52.9598 50.375C52.9598 52.198 51.659 53.7171 49.935 54.0549C49.6219 54.6538 48.9948 55.0625 48.2723 55.0625C47.8408 55.0625 47.4433 54.9167 47.1265 54.6718C46.357 55.4894 45.2649 56 44.0535 56C41.7236 56 39.8348 54.1112 39.8348 51.7813C39.8348 51.7016 39.837 51.6225 39.8413 51.544Z" fill="url(#paint4_radial_63_126)"/>
<path fill-rule="evenodd" clip-rule="evenodd" d="M36 11C36.5523 11 37 11.4975 37 12.1111V19.8889C37 20.5025 36.5523 21 36 21C35.4477 21 35 20.5025 35 19.8889V12.1111C35 11.4975 35.4477 11 36 11Z" fill="#23BB3C"/>
<path fill-rule="evenodd" clip-rule="evenodd" d="M41.8504 9C42.4027 9 42.8504 9.44772 42.8504 10V25C42.8504 25.5523 42.4027 26 41.8504 26C41.2981 26 40.8504 25.5523 40.8504 25V10C40.8504 9.44772 41.2981 9 41.8504 9Z" fill="#23BB3C"/>
<path fill-rule="evenodd" clip-rule="evenodd" d="M46.8504 12C47.4027 12 47.8504 12.4477 47.8504 13V27C47.8504 27.5523 47.4027 28 46.8504 28C46.2981 28 45.8504 27.5523 45.8504 27V13C45.8504 12.4477 46.2981 12 46.8504 12Z" fill="#23BB3C"/>
<defs>
<filter id="filter0_d_63_126" x="1.89603" y="2.04622" width="58.9082" height="60.4538" filterUnits="userSpaceOnUse" color-interpolation-filters="sRGB">
<feFlood flood-opacity="0" result="BackgroundImageFix"/>
<feColorMatrix in="SourceAlpha" type="matrix" values="0 0 0 0 0 0 0 0 0 0 0 0 0 0 0 0 0 0 127 0" result="hardAlpha"/>
<feOffset/>
<feGaussianBlur stdDeviation="2"/>
<feComposite in2="hardAlpha" operator="out"/>
<feColorMatrix type="matrix" values="0 0 0 0 0 0 0 0 0 0 0 0 0 0 0 0 0 0 0.6 0"/>
<feBlend mode="normal" in2="BackgroundImageFix" result="effect1_dropShadow_63_126"/>
<feBlend mode="normal" in="SourceGraphic" in2="effect1_dropShadow_63_126" result="shape"/>
</filter>
<radialGradient id="paint0_radial_63_126" cx="0" cy="0" r="1" gradientUnits="userSpaceOnUse" gradientTransform="translate(39.319 23.2125) rotate(125.763) scale(32.9968)">
<stop stop-color="#D1EC99"/>
<stop offset="0.798204" stop-color="#8DEB7E"/>
<stop offset="1" stop-color="#73E061"/>
</radialGradient>
<linearGradient id="paint1_linear_63_126" x1="30.9647" y1="35.2959" x2="36.3853" y2="32.1504" gradientUnits="userSpaceOnUse">
<stop/>
<stop offset="1" stop-color="#2E2E2E"/>
</linearGradient>
<linearGradient id="paint2_linear_63_126" x1="28.7704" y1="41.7692" x2="27.579" y2="46.4958" gradientUnits="userSpaceOnUse">
<stop stop-color="#E88A61"/>
<stop offset="1" stop-color="#BD8268"/>
</linearGradient>
<linearGradient id="paint3_linear_63_126" x1="21.6308" y1="35.1333" x2="16.0423" y2="32.2967" gradientUnits="userSpaceOnUse">
<stop/>
<stop offset="1" stop-color="#2E2E2E"/>
</linearGradient>
<radialGradient id="paint4_radial_63_126" cx="0" cy="0" r="1" gradientUnits="userSpaceOnUse" gradientTransform="translate(35.8504 41) rotate(55.008) scale(18.3098 20.8847)">
<stop stop-color="white"/>
<stop offset="1" stop-color="#D8F1FF"/>
</radialGradient>
</defs>
</svg>
