<svg width="60" height="59" viewBox="0 0 60 59" fill="none" xmlns="http://www.w3.org/2000/svg">
<g filter="url(#filter0_d_95_719)">
<path fill-rule="evenodd" clip-rule="evenodd" d="M55.2107 30.7888C55.232 30.3619 55.2427 29.9322 55.2427 29.5C55.2427 15.4167 43.826 4 29.7427 4C15.6595 4 4.24274 15.4167 4.24274 29.5C4.24274 43.5833 15.6595 55 29.7427 55C30.1749 55 30.6046 54.9893 31.0315 54.968L55.2107 30.7888Z" fill="white"/>
</g>
<path fill-rule="evenodd" clip-rule="evenodd" d="M52.3113 33.6882C52.5617 32.3302 52.6926 30.9304 52.6926 29.5C52.6926 16.825 42.4175 6.54996 29.7426 6.54996C17.0677 6.54996 6.7926 16.825 6.7926 29.5C6.7926 42.1749 17.0677 52.45 29.7426 52.45C31.173 52.45 32.5729 52.3191 33.9308 52.0687L52.3113 33.6882Z" fill="url(#paint0_radial_95_719)"/>
<path d="M39.824 32.5C39.824 35.2614 36.4661 39 32.324 39C28.1818 39 24.824 35.2614 24.824 32.5C24.824 29.7386 25.424 29 32.324 29C39.824 29 39.824 29.7386 39.824 32.5Z" fill="url(#paint1_linear_95_719)"/>
<ellipse cx="17.7771" cy="28.9344" rx="6.53437" ry="3.98438" fill="url(#paint2_radial_95_719)"/>
<ellipse cx="46.3583" cy="29.9344" rx="6.53437" ry="3.98438" fill="url(#paint3_radial_95_719)"/>
<path d="M35.824 20.8125C35.824 22.3658 36.824 25.3125 40.824 27C44.824 25.3125 45.824 22.3658 45.824 20.8125C45.824 19.2592 44.7047 18 43.324 18C41.9433 18 40.824 19 40.824 19.5C40.824 19 39.7047 18 38.324 18C36.9433 18 35.824 19.2592 35.824 20.8125Z" fill="url(#paint4_radial_95_719)"/>
<path d="M18.824 20.8125C18.824 22.3658 19.824 25.3125 23.824 27C27.824 25.3125 28.824 22.3658 28.824 20.8125C28.824 19.2592 27.7047 18 26.324 18C24.9433 18 23.824 19 23.824 19.5C23.824 19 22.7047 18 21.324 18C19.9433 18 18.824 19.2592 18.824 20.8125Z" fill="url(#paint5_radial_95_719)"/>
<g filter="url(#filter1_d_95_719)">
<path fill-rule="evenodd" clip-rule="evenodd" d="M31.0921 54.884C31.575 48.9541 34.0847 43.1582 38.6213 38.6217C43.1578 34.0852 48.9537 31.5754 54.8835 31.0925L31.0921 54.884Z" fill="white"/>
</g>
<defs>
<filter id="filter0_d_95_719" x="0.242737" y="0" width="59" height="59" filterUnits="userSpaceOnUse" color-interpolation-filters="sRGB">
<feFlood flood-opacity="0" result="BackgroundImageFix"/>
<feColorMatrix in="SourceAlpha" type="matrix" values="0 0 0 0 0 0 0 0 0 0 0 0 0 0 0 0 0 0 127 0" result="hardAlpha"/>
<feOffset/>
<feGaussianBlur stdDeviation="2"/>
<feComposite in2="hardAlpha" operator="out"/>
<feColorMatrix type="matrix" values="0 0 0 0 0 0 0 0 0 0 0 0 0 0 0 0 0 0 0.6 0"/>
<feBlend mode="normal" in2="BackgroundImageFix" result="effect1_dropShadow_95_719"/>
<feBlend mode="normal" in="SourceGraphic" in2="effect1_dropShadow_95_719" result="shape"/>
</filter>
<filter id="filter1_d_95_719" x="24.092" y="27.0925" width="31.7915" height="31.7915" filterUnits="userSpaceOnUse" color-interpolation-filters="sRGB">
<feFlood flood-opacity="0" result="BackgroundImageFix"/>
<feColorMatrix in="SourceAlpha" type="matrix" values="0 0 0 0 0 0 0 0 0 0 0 0 0 0 0 0 0 0 127 0" result="hardAlpha"/>
<feOffset dx="-3"/>
<feGaussianBlur stdDeviation="2"/>
<feComposite in2="hardAlpha" operator="out"/>
<feColorMatrix type="matrix" values="0 0 0 0 0.264323 0 0 0 0 0.264323 0 0 0 0 0.264323 0 0 0 0.17 0"/>
<feBlend mode="normal" in2="BackgroundImageFix" result="effect1_dropShadow_95_719"/>
<feBlend mode="normal" in="SourceGraphic" in2="effect1_dropShadow_95_719" result="shape"/>
</filter>
<radialGradient id="paint0_radial_95_719" cx="0" cy="0" r="1" gradientUnits="userSpaceOnUse" gradientTransform="translate(37.7114 21.2125) rotate(125.763) scale(32.9968)">
<stop stop-color="#FFBABE"/>
<stop offset="0.798204" stop-color="#FF7070"/>
<stop offset="1" stop-color="#FF6580"/>
</radialGradient>
<linearGradient id="paint1_linear_95_719" x1="29.024" y1="36.0513" x2="31.3814" y2="28.3995" gradientUnits="userSpaceOnUse">
<stop stop-color="#4B0808"/>
<stop offset="1" stop-color="#671F00"/>
</linearGradient>
<radialGradient id="paint2_radial_95_719" cx="0" cy="0" r="1" gradientUnits="userSpaceOnUse" gradientTransform="translate(17.7771 28.9344) rotate(90) scale(3.98438 6.53437)">
<stop stop-color="#FF5C5C"/>
<stop offset="0.555" stop-color="#FF5E57" stop-opacity="0.5"/>
<stop offset="1" stop-color="#FF9283" stop-opacity="0"/>
</radialGradient>
<radialGradient id="paint3_radial_95_719" cx="0" cy="0" r="1" gradientUnits="userSpaceOnUse" gradientTransform="translate(46.3583 29.9344) rotate(90) scale(3.98438 6.53437)">
<stop stop-color="#FF5C5C"/>
<stop offset="0.555" stop-color="#FF5E57" stop-opacity="0.5"/>
<stop offset="1" stop-color="#FF9283" stop-opacity="0"/>
</radialGradient>
<radialGradient id="paint4_radial_95_719" cx="0" cy="0" r="1" gradientUnits="userSpaceOnUse" gradientTransform="translate(42.4906 20.25) rotate(123.362) scale(8.08181 9.0481)">
<stop stop-color="#FF4343"/>
<stop offset="1" stop-color="#B7002C"/>
</radialGradient>
<radialGradient id="paint5_radial_95_719" cx="0" cy="0" r="1" gradientUnits="userSpaceOnUse" gradientTransform="translate(25.4906 20.25) rotate(123.362) scale(8.08181 9.0481)">
<stop stop-color="#FF4343"/>
<stop offset="1" stop-color="#B7002C"/>
</radialGradient>
</defs>
</svg>
