<svg width="30" height="30" viewBox="0 0 30 30" fill="none" xmlns="http://www.w3.org/2000/svg">
<path d="M2.5 10.3125C2.05729 10.3125 1.68646 10.1625 1.3875 9.8625C1.0875 9.56354 0.9375 9.19271 0.9375 8.75V5.625C0.9375 5.18229 1.0875 4.81094 1.3875 4.51094C1.68646 4.21198 2.05729 4.0625 2.5 4.0625H5.625C6.06771 4.0625 6.43906 4.21198 6.73906 4.51094C7.03802 4.81094 7.1875 5.18229 7.1875 5.625V8.75C7.1875 9.19271 7.03802 9.56354 6.73906 9.8625C6.43906 10.1625 6.06771 10.3125 5.625 10.3125H2.5ZM10.3125 10.3125C9.86979 10.3125 9.49896 10.1625 9.2 9.8625C8.9 9.56354 8.75 9.19271 8.75 8.75V5.625C8.75 5.18229 8.9 4.81094 9.2 4.51094C9.49896 4.21198 9.86979 4.0625 10.3125 4.0625H27.5C27.9427 4.0625 28.3135 4.21198 28.6125 4.51094C28.9125 4.81094 29.0625 5.18229 29.0625 5.625V8.75C29.0625 9.19271 28.9125 9.56354 28.6125 9.8625C28.3135 10.1625 27.9427 10.3125 27.5 10.3125H10.3125ZM10.3125 18.125C9.86979 18.125 9.49896 17.975 9.2 17.675C8.9 17.376 8.75 17.0052 8.75 16.5625V13.4375C8.75 12.9948 8.9 12.6234 9.2 12.3234C9.49896 12.0245 9.86979 11.875 10.3125 11.875H27.5C27.9427 11.875 28.3135 12.0245 28.6125 12.3234C28.9125 12.6234 29.0625 12.9948 29.0625 13.4375V16.5625C29.0625 17.0052 28.9125 17.376 28.6125 17.675C28.3135 17.975 27.9427 18.125 27.5 18.125H10.3125ZM2.5 18.125C2.05729 18.125 1.68646 17.975 1.3875 17.675C1.0875 17.376 0.9375 17.0052 0.9375 16.5625V13.4375C0.9375 12.9948 1.0875 12.6234 1.3875 12.3234C1.68646 12.0245 2.05729 11.875 2.5 11.875H5.625C6.06771 11.875 6.43906 12.0245 6.73906 12.3234C7.03802 12.6234 7.1875 12.9948 7.1875 13.4375V16.5625C7.1875 17.0052 7.03802 17.376 6.73906 17.675C6.43906 17.975 6.06771 18.125 5.625 18.125H2.5ZM10.3125 25.9375C9.86979 25.9375 9.49896 25.7875 9.2 25.4875C8.9 25.1885 8.75 24.8177 8.75 24.375V21.25C8.75 20.8073 8.9 20.4359 9.2 20.1359C9.49896 19.837 9.86979 19.6875 10.3125 19.6875H27.5C27.9427 19.6875 28.3135 19.837 28.6125 20.1359C28.9125 20.4359 29.0625 20.8073 29.0625 21.25V24.375C29.0625 24.8177 28.9125 25.1885 28.6125 25.4875C28.3135 25.7875 27.9427 25.9375 27.5 25.9375H10.3125ZM2.5 25.9375C2.05729 25.9375 1.68646 25.7875 1.3875 25.4875C1.0875 25.1885 0.9375 24.8177 0.9375 24.375V21.25C0.9375 20.8073 1.0875 20.4359 1.3875 20.1359C1.68646 19.837 2.05729 19.6875 2.5 19.6875H5.625C6.06771 19.6875 6.43906 19.837 6.73906 20.1359C7.03802 20.4359 7.1875 20.8073 7.1875 21.25V24.375C7.1875 24.8177 7.03802 25.1885 6.73906 25.4875C6.43906 25.7875 6.06771 25.9375 5.625 25.9375H2.5Z" fill="#333333"/>
</svg>
