<svg width="56" height="56" viewBox="0 0 56 56" fill="none" xmlns="http://www.w3.org/2000/svg">
<g filter="url(#filter0_d_63_77)">
<path fill-rule="evenodd" clip-rule="evenodd" d="M27.9292 51.8584C41.1449 51.8584 51.8584 41.1449 51.8584 27.9292C51.8584 14.7135 41.1449 4 27.9292 4C14.7135 4 4 14.7135 4 27.9292C4 32.2609 5.15094 36.3237 7.16369 39.8286C7.16136 39.8852 7.16017 39.9412 7.16017 39.9964C7.16017 44.1447 10.4955 48.1335 14.6098 48.1335C14.7661 48.1335 14.9213 48.1278 15.0752 48.1165C18.7881 50.4855 23.1983 51.8584 27.9292 51.8584Z" fill="white"/>
</g>
<circle cx="27.9293" cy="27.9291" r="21.5073" fill="url(#paint0_radial_63_77)"/>
<path d="M38.0855 24.0459C38.0855 25.6956 36.7481 27.033 35.0984 27.033C33.4486 27.033 32.1113 25.6956 32.1113 24.0459C32.1113 21.5068 33.1568 22.0228 35.0984 22.5523C37.9362 23.3263 38.0855 22.3961 38.0855 24.0459Z" fill="url(#paint1_linear_63_77)"/>
<path d="M17.773 24.0459C17.773 25.6956 19.1104 27.033 20.7602 27.033C22.4099 27.033 23.7473 25.6956 23.7473 24.0459C23.7473 21.5068 22.7018 22.0228 20.7602 22.5523C17.9224 23.3263 17.773 22.3961 17.773 24.0459Z" fill="url(#paint2_linear_63_77)"/>
<path fill-rule="evenodd" clip-rule="evenodd" d="M28.016 32.0337C26.3598 31.2298 24.5787 31.9238 23.9199 32.3843C23.3114 32.8096 22.4734 32.6611 22.0481 32.0526C21.6228 31.4441 21.7713 30.6061 22.3798 30.1808C23.4688 29.4196 26.3158 28.2201 29.1899 29.6151C30.1394 30.076 30.895 30.1839 31.417 30.168C31.6811 30.16 31.888 30.1202 32.0341 30.0769C32.1619 30.039 32.2256 30.0037 32.237 29.9974C32.2392 29.9958 32.2394 29.996 32.237 29.9974C32.8455 29.5721 33.6838 29.7207 34.1091 30.3292C34.5344 30.9377 34.3859 31.7758 33.7774 32.2011C32.7743 32.9022 30.6248 33.3 28.016 32.0337Z" fill="black"/>
<path d="M23.1498 38.9726C23.1498 42.632 20.2076 46.1507 16.5781 46.1507C12.9487 46.1507 10.0065 42.632 10.0065 38.9726C10.0065 35.3131 15.8936 27.9293 16.5781 27.9293C17.2627 27.9293 23.1498 35.3131 23.1498 38.9726Z" fill="url(#paint3_radial_63_77)"/>
<defs>
<filter id="filter0_d_63_77" x="0" y="0" width="55.8584" height="55.8584" filterUnits="userSpaceOnUse" color-interpolation-filters="sRGB">
<feFlood flood-opacity="0" result="BackgroundImageFix"/>
<feColorMatrix in="SourceAlpha" type="matrix" values="0 0 0 0 0 0 0 0 0 0 0 0 0 0 0 0 0 0 127 0" result="hardAlpha"/>
<feOffset/>
<feGaussianBlur stdDeviation="2"/>
<feComposite in2="hardAlpha" operator="out"/>
<feColorMatrix type="matrix" values="0 0 0 0 0 0 0 0 0 0 0 0 0 0 0 0 0 0 0.6 0"/>
<feBlend mode="normal" in2="BackgroundImageFix" result="effect1_dropShadow_63_77"/>
<feBlend mode="normal" in="SourceGraphic" in2="effect1_dropShadow_63_77" result="shape"/>
</filter>
<radialGradient id="paint0_radial_63_77" cx="0" cy="0" r="1" gradientUnits="userSpaceOnUse" gradientTransform="translate(35.3971 20.1626) rotate(125.763) scale(30.9225)">
<stop stop-color="#8CD6FF"/>
<stop offset="1" stop-color="#4AA0F0"/>
</radialGradient>
<linearGradient id="paint1_linear_63_77" x1="32.538" y1="25.8382" x2="35.906" y2="21.0267" gradientUnits="userSpaceOnUse">
<stop/>
<stop offset="1" stop-color="#2E2E2E"/>
</linearGradient>
<linearGradient id="paint2_linear_63_77" x1="23.3206" y1="25.8382" x2="19.9525" y2="21.0267" gradientUnits="userSpaceOnUse">
<stop/>
<stop offset="1" stop-color="#2E2E2E"/>
</linearGradient>
<radialGradient id="paint3_radial_63_77" cx="0" cy="0" r="1" gradientUnits="userSpaceOnUse" gradientTransform="translate(17.773 33.4554) rotate(110.037) scale(13.5132 9.74723)">
<stop stop-color="white"/>
<stop offset="1" stop-color="#D8F1FF"/>
</radialGradient>
</defs>
</svg>
