<svg width="32" height="31" viewBox="0 0 32 31" fill="none" xmlns="http://www.w3.org/2000/svg">
<path d="M5.59098 29.9186C4.65348 29.9186 3.8512 29.5962 3.18416 28.9513C2.51598 28.3054 2.18188 27.5293 2.18188 26.6229V11.7924C2.18188 11.2706 2.30291 10.7762 2.54495 10.3093C2.78586 9.84244 3.11939 9.45794 3.54552 9.15584L13.7728 1.74056C14.0853 1.52085 14.412 1.35606 14.7529 1.2462C15.0938 1.13635 15.4489 1.08142 15.8182 1.08142C16.1876 1.08142 16.5427 1.13635 16.8836 1.2462C17.2245 1.35606 17.5512 1.52085 17.8637 1.74056L28.091 9.15584C28.5171 9.45794 28.8512 9.84244 29.0933 10.3093C29.3342 10.7762 29.4546 11.2706 29.4546 11.7924V26.6229C29.4546 27.5293 29.1211 28.3054 28.454 28.9513C27.7859 29.5962 26.983 29.9186 26.0455 29.9186H19.2273V18.3837H12.4092V29.9186H5.59098Z" fill="#AFAFAF"/>
</svg>
