<svg width="28" height="29" viewBox="0 0 28 29" fill="none" xmlns="http://www.w3.org/2000/svg">
<path d="M3.59098 28.9186C2.65348 28.9186 1.8512 28.5962 1.18416 27.9513C0.515975 27.3054 0.181885 26.5293 0.181885 25.6229V10.7924C0.181885 10.2706 0.302907 9.77622 0.544953 9.30933C0.785862 8.84244 1.11939 8.45794 1.54552 8.15584L11.7728 0.740557C12.0853 0.520845 12.412 0.356061 12.7529 0.246205C13.0938 0.136349 13.4489 0.0814209 13.8182 0.0814209C14.1876 0.0814209 14.5427 0.136349 14.8836 0.246205C15.2245 0.356061 15.5512 0.520845 15.8637 0.740557L26.091 8.15584C26.5171 8.45794 26.8512 8.84244 27.0933 9.30933C27.3342 9.77622 27.4546 10.2706 27.4546 10.7924V25.6229C27.4546 26.5293 27.1211 27.3054 26.454 27.9513C25.7859 28.5962 24.983 28.9186 24.0455 28.9186H17.2273V17.3837H10.4092V28.9186H3.59098Z" fill="#4C4C4C"/>
</svg>
