<svg width="32" height="31" viewBox="0 0 32 31" fill="none" xmlns="http://www.w3.org/2000/svg">
<path d="M5.59085 29.9186C4.65335 29.9186 3.85108 29.5962 3.18404 28.9513C2.51585 28.3054 2.18176 27.5293 2.18176 26.6229V11.7924C2.18176 11.2706 2.30279 10.7762 2.54483 10.3093C2.78574 9.84244 3.11926 9.45794 3.5454 9.15584L13.7727 1.74056C14.0852 1.52085 14.4119 1.35606 14.7528 1.2462C15.0937 1.13635 15.4488 1.08142 15.8181 1.08142C16.1874 1.08142 16.5426 1.13635 16.8835 1.2462C17.2244 1.35606 17.5511 1.52085 17.8636 1.74056L28.0909 9.15584C28.517 9.45794 28.8511 9.84244 29.0931 10.3093C29.334 10.7762 29.4545 11.2706 29.4545 11.7924V26.6229C29.4545 27.5293 29.121 28.3054 28.4539 28.9513C27.7857 29.5962 26.9829 29.9186 26.0454 29.9186H19.2272V18.3837H12.409V29.9186H5.59085Z" fill="#5EB0F5"/>
</svg>
