<svg width="37" height="36" viewBox="0 0 37 36" fill="none" xmlns="http://www.w3.org/2000/svg">
<g clip-path="url(#clip0_161_47)">
<path d="M19.4162 24.8001C22.1408 24.8001 24.3496 22.651 24.3496 20.0001C24.3496 17.3491 22.1408 15.2001 19.4162 15.2001C16.6916 15.2001 14.4829 17.3491 14.4829 20.0001C14.4829 22.651 16.6916 24.8001 19.4162 24.8001Z" fill="#A6A6A6"/>
<path d="M14.7917 5L11.9704 8H7.08333C5.3875 8 4 9.35 4 11V29C4 30.65 5.3875 32 7.08333 32H31.75C33.4458 32 34.8333 30.65 34.8333 29V11C34.8333 9.35 33.4458 8 31.75 8H26.8629L24.0417 5H14.7917ZM19.4167 27.5C15.1617 27.5 11.7083 24.14 11.7083 20C11.7083 15.86 15.1617 12.5 19.4167 12.5C23.6717 12.5 27.125 15.86 27.125 20C27.125 24.14 23.6717 27.5 19.4167 27.5Z" fill="#A6A6A6"/>
</g>
<defs>
<clipPath id="clip0_161_47">
<rect width="37" height="36" fill="white"/>
</clipPath>
</defs>
</svg>
