<svg width="28" height="28" viewBox="0 0 28 28" fill="none" xmlns="http://www.w3.org/2000/svg">
<path d="M14 21C14.3967 21 14.7294 20.8656 14.9982 20.5968C15.2661 20.3289 15.4 19.9967 15.4 19.6V15.4H19.635C20.0317 15.4 20.3583 15.2656 20.615 14.9968C20.8717 14.7289 21 14.3967 21 14C21 13.6033 20.8656 13.2706 20.5968 13.0018C20.3289 12.7339 19.9967 12.6 19.6 12.6H15.4V8.365C15.4 7.96833 15.2661 7.64167 14.9982 7.385C14.7294 7.12833 14.3967 7 14 7C13.6033 7 13.2711 7.13393 13.0032 7.4018C12.7344 7.6706 12.6 8.00333 12.6 8.4V12.6H8.365C7.96833 12.6 7.64167 12.7339 7.385 13.0018C7.12833 13.2706 7 13.6033 7 14C7 14.3967 7.13393 14.7289 7.4018 14.9968C7.6706 15.2656 8.00333 15.4 8.4 15.4H12.6V19.635C12.6 20.0317 12.7344 20.3583 13.0032 20.615C13.2711 20.8717 13.6033 21 14 21ZM14 28C12.0633 28 10.2433 27.6323 8.54 26.8968C6.83667 26.1623 5.355 25.165 4.095 23.905C2.835 22.645 1.83773 21.1633 1.1032 19.46C0.367733 17.7567 0 15.9367 0 14C0 12.0633 0.367733 10.2433 1.1032 8.54C1.83773 6.83667 2.835 5.355 4.095 4.095C5.355 2.835 6.83667 1.83727 8.54 1.1018C10.2433 0.367267 12.0633 0 14 0C15.9367 0 17.7567 0.367267 19.46 1.1018C21.1633 1.83727 22.645 2.835 23.905 4.095C25.165 5.355 26.1623 6.83667 26.8968 8.54C27.6323 10.2433 28 12.0633 28 14C28 15.9367 27.6323 17.7567 26.8968 19.46C26.1623 21.1633 25.165 22.645 23.905 23.905C22.645 25.165 21.1633 26.1623 19.46 26.8968C17.7567 27.6323 15.9367 28 14 28Z" fill="white"/>
</svg>
