<svg width="35" height="35" viewBox="0 0 35 35" fill="none" xmlns="http://www.w3.org/2000/svg">
<path d="M17.5 0.416748C8.07002 0.416748 0.416687 8.07008 0.416687 17.5001C0.416687 26.9301 8.07002 34.5834 17.5 34.5834C26.93 34.5834 34.5834 26.9301 34.5834 17.5001C34.5834 8.07008 26.93 0.416748 17.5 0.416748ZM17.5 7.25008C20.7971 7.25008 23.4792 9.93217 23.4792 13.2292C23.4792 16.5263 20.7971 19.2084 17.5 19.2084C14.2029 19.2084 11.5209 16.5263 11.5209 13.2292C11.5209 9.93217 14.2029 7.25008 17.5 7.25008ZM17.5 31.1667C14.0321 31.1667 9.9321 29.7659 7.01085 26.2467C9.89794 23.9918 13.5367 22.6251 17.5 22.6251C21.4634 22.6251 25.1021 23.9918 27.9892 26.2467C25.0679 29.7659 20.9679 31.1667 17.5 31.1667Z" fill="#666666"/>
</svg>
