<svg width="20" height="20" viewBox="0 0 20 20" fill="none" xmlns="http://www.w3.org/2000/svg">
<g clip-path="url(#clip0_63_211)">
<path d="M2.85715 19.0476C2.33334 19.0476 1.88493 18.8611 1.51192 18.4881C1.1389 18.1151 0.952393 17.6667 0.952393 17.1429V3.80952C0.952393 3.28571 1.1389 2.8373 1.51192 2.46429C1.88493 2.09127 2.33334 1.90476 2.85715 1.90476H3.80954V0H5.7143V1.90476H13.3333V0H15.2381V1.90476H16.1905C16.7143 1.90476 17.1627 2.09127 17.5357 2.46429C17.9087 2.8373 18.0952 3.28571 18.0952 3.80952V9.21429C17.7937 9.07143 17.4841 8.95238 17.1667 8.85714C16.8492 8.7619 16.5238 8.69048 16.1905 8.64286V7.61905H2.85715V17.1429H8.85715C8.96827 17.4921 9.09922 17.8254 9.25001 18.1429C9.40081 18.4603 9.57938 18.7619 9.78573 19.0476H2.85715ZM15.2381 20C13.9206 20 12.7976 19.5357 11.8691 18.6071C10.9405 17.6786 10.4762 16.5556 10.4762 15.2381C10.4762 13.9206 10.9405 12.7976 11.8691 11.869C12.7976 10.9405 13.9206 10.4762 15.2381 10.4762C16.5556 10.4762 17.6786 10.9405 18.6072 11.869C19.5357 12.7976 20 13.9206 20 15.2381C20 16.5556 19.5357 17.6786 18.6072 18.6071C17.6786 19.5357 16.5556 20 15.2381 20ZM16.8333 17.5L17.5 16.8333L15.7143 15.0476V12.381H14.7619V15.4286L16.8333 17.5Z" fill="#666666"/>
</g>
<defs>
<clipPath id="clip0_63_211">
<rect width="20" height="20" fill="white"/>
</clipPath>
</defs>
</svg>
