<svg width="28" height="40" viewBox="0 0 28 40" fill="none" xmlns="http://www.w3.org/2000/svg">
<path fill-rule="evenodd" clip-rule="evenodd" d="M14 0C6.26 0 0 6.26 0 14C0 24.5 14 40 14 40C14 40 28 24.5 28 14C28 6.26 21.74 0 14 0ZM12 11C12 9.89541 12.8955 8.99998 14 8.99998C15.1046 8.99998 16 9.89541 16 11V12H17C18.1046 12 19 12.8955 19 14C19 15.1046 18.1046 16 17 16H16V17C16 18.1045 15.1046 19 14 19C12.8955 19 12 18.1045 12 17V16H11C9.89545 16 9.00002 15.1046 9.00002 14C9.00002 12.8955 9.89545 12 11 12H12V11Z" fill="#5EB0F5"/>
</svg>
