<svg width="253" height="81" viewBox="0 0 253 81" fill="none" xmlns="http://www.w3.org/2000/svg">
<g filter="url(#filter0_d_1_1969)">
<path fill-rule="evenodd" clip-rule="evenodd" d="M16 5C9.92487 5 5 9.92487 5 16V47C5 53.0751 9.92486 58 16 58H213.727C213.839 58.1902 213.988 58.3688 214.176 58.5278L234.147 75.4001C235.641 76.6625 237.873 75.2502 237.371 73.3595L233.296 58H237C243.075 58 248 53.0751 248 47V16C248 9.92487 243.075 5 237 5H16Z" fill="white"/>
<path d="M213.727 58L214.159 57.7469C214.069 57.594 213.905 57.5 213.727 57.5V58ZM214.176 58.5278L213.853 58.9097V58.9097L214.176 58.5278ZM234.147 75.4001L233.824 75.782L234.147 75.4001ZM237.371 73.3595L237.854 73.2312L237.371 73.3595ZM233.296 58V57.5C233.141 57.5 232.994 57.5721 232.9 57.6951C232.805 57.8182 232.773 57.9782 232.813 58.1282L233.296 58ZM5.5 16C5.5 10.201 10.201 5.5 16 5.5V4.5C9.64873 4.5 4.5 9.64873 4.5 16H5.5ZM5.5 47V16H4.5V47H5.5ZM16 57.5C10.201 57.5 5.5 52.799 5.5 47H4.5C4.5 53.3513 9.64872 58.5 16 58.5V57.5ZM213.727 57.5H16V58.5H213.727V57.5ZM214.498 58.1458C214.353 58.0227 214.241 57.8875 214.159 57.7469L213.296 58.2531C213.437 58.4929 213.622 58.7149 213.853 58.9097L214.498 58.1458ZM234.47 75.0181L214.498 58.1458L213.853 58.9097L233.824 75.782L234.47 75.0181ZM236.888 73.4877C237.264 74.9057 235.59 75.965 234.47 75.0181L233.824 75.782C235.692 77.3601 238.481 75.5947 237.854 73.2312L236.888 73.4877ZM232.813 58.1282L236.888 73.4877L237.854 73.2312L233.779 57.8718L232.813 58.1282ZM237 57.5H233.296V58.5H237V57.5ZM247.5 47C247.5 52.799 242.799 57.5 237 57.5V58.5C243.351 58.5 248.5 53.3513 248.5 47H247.5ZM247.5 16V47H248.5V16H247.5ZM237 5.5C242.799 5.5 247.5 10.201 247.5 16H248.5C248.5 9.64873 243.351 4.5 237 4.5V5.5ZM16 5.5H237V4.5H16V5.5Z" fill="#CBCBCB"/>
</g>
<defs>
<filter id="filter0_d_1_1969" x="0.5" y="0.5" width="252" height="79.8833" filterUnits="userSpaceOnUse" color-interpolation-filters="sRGB">
<feFlood flood-opacity="0" result="BackgroundImageFix"/>
<feColorMatrix in="SourceAlpha" type="matrix" values="0 0 0 0 0 0 0 0 0 0 0 0 0 0 0 0 0 0 127 0" result="hardAlpha"/>
<feOffset/>
<feGaussianBlur stdDeviation="2"/>
<feComposite in2="hardAlpha" operator="out"/>
<feColorMatrix type="matrix" values="0 0 0 0 0 0 0 0 0 0 0 0 0 0 0 0 0 0 0.25 0"/>
<feBlend mode="normal" in2="BackgroundImageFix" result="effect1_dropShadow_1_1969"/>
<feBlend mode="normal" in="SourceGraphic" in2="effect1_dropShadow_1_1969" result="shape"/>
</filter>
</defs>
</svg>
