<svg width="326" height="326" viewBox="0 0 326 326" fill="none" xmlns="http://www.w3.org/2000/svg">
<g filter="url(#filter0_d_1_2165)">
<path fill-rule="evenodd" clip-rule="evenodd" d="M316.531 170.944C316.842 167.004 317 163.02 317 159C317 76.1573 249.843 9 167 9C84.1573 9 17 76.1573 17 159C17 241.843 84.1573 309 167 309C171.02 309 175.004 308.842 178.944 308.531L316.531 170.944Z" fill="white"/>
</g>
<path fill-rule="evenodd" clip-rule="evenodd" d="M299.207 186.448C301.038 177.585 301.999 168.405 301.999 159C301.999 84.4416 241.558 24 166.999 24C92.441 24 31.9995 84.4416 31.9995 159C31.9995 233.558 92.441 294 166.999 294C176.404 294 185.585 293.038 194.447 291.208L299.207 186.448Z" fill="url(#paint0_radial_1_2165)"/>
<circle cx="120.125" cy="134.625" r="18.75" fill="url(#paint1_linear_1_2165)"/>
<circle cx="215.75" cy="134.625" r="18.75" fill="url(#paint2_linear_1_2165)"/>
<path d="M191.375 197.438C191.375 214.524 180.882 228.375 167.938 228.375C154.993 228.375 144.5 214.524 144.5 197.438C144.5 180.351 146.375 166.5 167.938 166.5C191.375 166.5 191.375 180.351 191.375 197.438Z" fill="url(#paint3_linear_1_2165)"/>
<ellipse cx="248.562" cy="174.938" rx="38.4375" ry="23.4375" fill="url(#paint4_radial_1_2165)"/>
<ellipse cx="87.313" cy="174.938" rx="38.4375" ry="23.4375" fill="url(#paint5_radial_1_2165)"/>
<g filter="url(#filter1_d_1_2165)">
<path fill-rule="evenodd" clip-rule="evenodd" d="M179.066 308.32C181.852 274.11 196.33 240.673 222.502 214.502C248.673 188.331 282.11 173.852 316.319 171.066L179.066 308.32Z" fill="white"/>
</g>
<defs>
<filter id="filter0_d_1_2165" x="0.9" y="0.9" width="324.2" height="324.2" filterUnits="userSpaceOnUse" color-interpolation-filters="sRGB">
<feFlood flood-opacity="0" result="BackgroundImageFix"/>
<feColorMatrix in="SourceAlpha" type="matrix" values="0 0 0 0 0 0 0 0 0 0 0 0 0 0 0 0 0 0 127 0" result="hardAlpha"/>
<feOffset dx="-4" dy="4"/>
<feGaussianBlur stdDeviation="6.05"/>
<feComposite in2="hardAlpha" operator="out"/>
<feColorMatrix type="matrix" values="0 0 0 0 0 0 0 0 0 0 0 0 0 0 0 0 0 0 0.4 0"/>
<feBlend mode="normal" in2="BackgroundImageFix" result="effect1_dropShadow_1_2165"/>
<feBlend mode="normal" in="SourceGraphic" in2="effect1_dropShadow_1_2165" result="shape"/>
</filter>
<filter id="filter1_d_1_2165" x="172.066" y="167.066" width="145.254" height="145.254" filterUnits="userSpaceOnUse" color-interpolation-filters="sRGB">
<feFlood flood-opacity="0" result="BackgroundImageFix"/>
<feColorMatrix in="SourceAlpha" type="matrix" values="0 0 0 0 0 0 0 0 0 0 0 0 0 0 0 0 0 0 127 0" result="hardAlpha"/>
<feOffset dx="-3"/>
<feGaussianBlur stdDeviation="2"/>
<feComposite in2="hardAlpha" operator="out"/>
<feColorMatrix type="matrix" values="0 0 0 0 0.264323 0 0 0 0 0.264323 0 0 0 0 0.264323 0 0 0 0.17 0"/>
<feBlend mode="normal" in2="BackgroundImageFix" result="effect1_dropShadow_1_2165"/>
<feBlend mode="normal" in="SourceGraphic" in2="effect1_dropShadow_1_2165" result="shape"/>
</filter>
<radialGradient id="paint0_radial_1_2165" cx="0" cy="0" r="1" gradientUnits="userSpaceOnUse" gradientTransform="translate(213.874 110.25) rotate(125.763) scale(194.099)">
<stop stop-color="#FFF170"/>
<stop offset="0.798204" stop-color="#FFDD70"/>
<stop offset="1" stop-color="#FFCE70"/>
</radialGradient>
<linearGradient id="paint1_linear_1_2165" x1="104.054" y1="145.875" x2="125.195" y2="115.673" gradientUnits="userSpaceOnUse">
<stop/>
<stop offset="1" stop-color="#2E2E2E"/>
</linearGradient>
<linearGradient id="paint2_linear_1_2165" x1="199.679" y1="145.875" x2="220.82" y2="115.673" gradientUnits="userSpaceOnUse">
<stop/>
<stop offset="1" stop-color="#2E2E2E"/>
</linearGradient>
<linearGradient id="paint3_linear_1_2165" x1="157.625" y1="210.13" x2="180.672" y2="172.349" gradientUnits="userSpaceOnUse">
<stop stop-color="#FF7D7D"/>
<stop offset="1" stop-color="#FFA47D"/>
</linearGradient>
<radialGradient id="paint4_radial_1_2165" cx="0" cy="0" r="1" gradientUnits="userSpaceOnUse" gradientTransform="translate(248.563 174.938) rotate(90) scale(23.4375 38.4375)">
<stop stop-color="#FF7D7D"/>
<stop offset="1" stop-color="#FFA47D" stop-opacity="0"/>
</radialGradient>
<radialGradient id="paint5_radial_1_2165" cx="0" cy="0" r="1" gradientUnits="userSpaceOnUse" gradientTransform="translate(87.313 174.938) rotate(90) scale(23.4375 38.4375)">
<stop stop-color="#FF7D7D"/>
<stop offset="1" stop-color="#FFA47D" stop-opacity="0"/>
</radialGradient>
</defs>
</svg>
