<svg width="698" height="770" viewBox="0 0 698 770" fill="none" xmlns="http://www.w3.org/2000/svg">
<path d="M446.315 471.426C444.629 471.935 442.991 472.509 441.398 473.167C440.543 473.513 439.624 473.676 438.702 473.646C437.779 473.615 436.874 473.391 436.043 472.989C435.212 472.587 434.475 472.015 433.879 471.31C433.284 470.606 432.842 469.784 432.583 468.898L406.268 380.481L106.555 469.676L178.009 709.787C180.51 718.18 186.242 725.236 193.945 729.403C201.647 733.57 210.69 734.508 219.083 732.009L455.509 661.639C463.902 659.138 470.958 653.406 475.125 645.703C479.292 638.001 480.23 628.958 477.731 620.565L460.842 563.796C460.575 562.913 460.496 561.983 460.61 561.067C460.724 560.152 461.029 559.27 461.504 558.479C461.979 557.688 462.615 557.005 463.37 556.474C464.125 555.944 464.983 555.577 465.889 555.398C467.597 555.08 469.288 554.672 470.954 554.176C495.768 546.769 510.361 522.278 503.565 499.417C496.768 476.556 471.129 464.046 446.315 471.426Z" fill="#99ADF9"/>
<g style="mix-blend-mode:multiply" opacity="0.25">
<path d="M366.157 696.935C366.157 696.935 235.028 733.741 206.148 712.37C181.815 694.407 180.694 675.889 146.157 602.824C145.768 665.787 180.13 769.12 180.13 769.12L366.157 696.935Z" fill="#99ADF9"/>
</g>
<g style="mix-blend-mode:multiply" opacity="0.25">
<path d="M218.268 448.315C218.268 448.315 231.065 509.574 277.444 495.778C323.824 481.981 301 423.676 301 423.676L218.268 448.315Z" fill="#99ADF9"/>
</g>
<path d="M325.398 108.741L57.3147 188.5C48.9226 190.999 41.867 196.729 37.6996 204.43C33.5322 212.131 32.5944 221.172 35.0925 229.565L106.555 469.676L209.407 439.12C210.219 438.875 211.074 438.803 211.916 438.907C212.758 439.012 213.568 439.291 214.296 439.726C215.024 440.162 215.653 440.745 216.142 441.438C216.632 442.131 216.971 442.918 217.139 443.75C217.441 445.293 217.824 446.836 218.287 448.38C225.694 473.185 250.185 487.787 273.037 480.982C295.889 474.176 308.444 448.574 301.055 423.741C300.592 422.204 300.074 420.694 299.481 419.232C299.172 418.444 299.03 417.602 299.064 416.757C299.098 415.912 299.308 415.083 299.68 414.324C300.052 413.564 300.578 412.891 301.224 412.345C301.871 411.8 302.624 411.396 303.435 411.157L406.287 380.546L325.398 108.741Z" fill="#FEC272"/>
<g style="mix-blend-mode:multiply" opacity="0.52">
<path d="M72.3888 372.38C72.3888 372.38 35.6203 241.25 56.9443 212.37C74.9166 188.037 106.722 173.796 144.287 162.611C81.324 162.222 0.194336 186.352 0.194336 186.352L72.3888 372.38Z" fill="#FEC272"/>
</g>
<path d="M325.398 108.741L348.426 186.111C348.799 187.343 348.903 188.641 348.733 189.918C348.563 191.194 348.121 192.419 347.437 193.51C346.754 194.601 345.845 195.533 344.771 196.244C343.698 196.955 342.484 197.427 341.213 197.63C338.811 197.987 336.438 198.513 334.111 199.204C309.305 206.611 294.704 231.102 301.509 253.963C308.315 276.824 333.916 289.361 358.741 281.981C361.069 281.292 363.344 280.432 365.546 279.407C366.72 278.89 367.991 278.629 369.275 278.642C370.558 278.654 371.823 278.94 372.987 279.479C374.152 280.019 375.187 280.8 376.026 281.771C376.865 282.742 377.487 283.881 377.852 285.111L406.231 380.481L504.129 351.333C506.935 350.477 509.289 348.546 510.677 345.962C512.064 343.377 512.374 340.349 511.537 337.537L511.454 337.259C504.046 312.444 516.62 286.815 539.472 280.019C562.324 273.222 586.842 287.815 594.222 312.63L594.305 312.898C595.146 315.718 597.07 318.089 599.657 319.491C602.243 320.894 605.28 321.213 608.102 320.38L674.305 300.676C682.697 298.177 689.753 292.446 693.921 284.745C698.088 277.044 699.026 268.003 696.528 259.611L634.491 51.1481C631.991 42.7561 626.261 35.7004 618.56 31.5331C610.859 27.3657 601.818 26.4279 593.426 28.9259L325.398 108.741Z" fill="#FF97C9"/>
<g style="mix-blend-mode:multiply" opacity="0.19">
<path d="M334.111 199.194C334.111 199.194 308.407 212.787 317.778 244.324C327.148 275.861 349.065 279.963 363.481 282.537C337.555 305.111 260.944 274.037 260.944 274.037L289.889 196.176L334.111 199.194Z" fill="#FF97C9"/>
</g>
<g style="mix-blend-mode:multiply" opacity="0.19">
<path d="M677.602 195.778C677.602 195.778 636.685 65.8796 603.046 53.3518C574.694 42.8055 534.111 38.9259 496.565 50.1018C549.092 15.3333 636.38 0.546295 636.38 0.546295L677.602 195.778Z" fill="#FF97C9"/>
</g>
<path d="M142.148 308.694C150.903 308.694 158 301.597 158 292.843C158 284.088 150.903 276.991 142.148 276.991C133.393 276.991 126.296 284.088 126.296 292.843C126.296 301.597 133.393 308.694 142.148 308.694Z" fill="#1C3177"/>
<path d="M259.731 273.713C268.486 273.713 275.583 266.616 275.583 257.861C275.583 249.106 268.486 242.009 259.731 242.009C250.977 242.009 243.879 249.106 243.879 257.861C243.879 266.616 250.977 273.713 259.731 273.713Z" fill="#1C3177"/>
<path d="M192.268 312.444C192.268 312.444 192.713 300.102 207.268 295.778C221.824 291.454 228.5 301.676 228.5 301.676" stroke="#1C3177" stroke-width="9" stroke-miterlimit="10" stroke-linecap="round"/>
<path d="M240.768 584.509C249.523 584.509 256.62 577.412 256.62 568.657C256.62 559.903 249.523 552.806 240.768 552.806C232.014 552.806 224.917 559.903 224.917 568.657C224.917 577.412 232.014 584.509 240.768 584.509Z" fill="#1C3177"/>
<path d="M358.352 549.519C367.107 549.519 374.204 542.421 374.204 533.667C374.204 524.912 367.107 517.815 358.352 517.815C349.597 517.815 342.5 524.912 342.5 533.667C342.5 542.421 349.597 549.519 358.352 549.519Z" fill="#1C3177"/>
<path d="M461.713 197.75C464.204 206.139 458.009 210.185 449.611 212.685C441.213 215.185 433.815 215.185 431.315 206.796C430.672 204.787 430.436 202.669 430.622 200.567C430.808 198.465 431.411 196.421 432.397 194.556C433.383 192.69 434.73 191.039 436.362 189.701C437.993 188.363 439.875 187.364 441.898 186.762C443.92 186.16 446.042 185.968 448.14 186.196C450.237 186.425 452.268 187.07 454.114 188.093C455.959 189.116 457.582 190.497 458.887 192.156C460.191 193.814 461.152 195.716 461.713 197.75Z" fill="#1C3177"/>
<path d="M579.287 162.759C581.787 171.157 575.583 175.194 567.185 177.694C558.787 180.194 551.389 180.194 548.889 171.806C548.246 169.796 548.011 167.678 548.196 165.576C548.382 163.474 548.986 161.431 549.971 159.565C550.957 157.699 552.305 156.049 553.936 154.71C555.567 153.372 557.449 152.373 559.472 151.771C561.494 151.169 563.616 150.977 565.714 151.205C567.812 151.434 569.843 152.079 571.688 153.102C573.533 154.125 575.156 155.507 576.461 157.165C577.766 158.823 578.726 160.725 579.287 162.759Z" fill="#1C3177"/>
<path d="M540.694 210.435C540.111 218.426 530.407 217.574 516.342 221.759C502.278 225.944 495.555 232.87 489.759 225.593C482.352 216.333 495.065 201.704 509.129 197.519C523.194 193.333 541.555 198.657 540.694 210.435Z" fill="#F774B9"/>
<path d="M334.421 565.965L277.578 582.878C272.177 584.485 269.101 590.166 270.708 595.568C272.315 600.969 277.997 604.045 283.398 602.438L340.241 585.525C345.642 583.918 348.718 578.236 347.111 572.835C345.504 567.433 339.822 564.358 334.421 565.965Z" fill="white"/>
<path d="M589.954 524.259L605.759 552.87" stroke="#1C3177" stroke-width="12" stroke-miterlimit="10" stroke-linecap="round"/>
<path d="M623.537 426.13L653.157 412.306" stroke="#1C3177" stroke-width="12" stroke-miterlimit="10" stroke-linecap="round"/>
<path d="M621.694 479.065L659.889 491.62" stroke="#1C3177" stroke-width="12" stroke-miterlimit="10" stroke-linecap="round"/>
</svg>
